<?xml version="1.0" encoding="utf-8"?>
<svg viewBox="0 0 500 500" xmlns="http://www.w3.org/2000/svg">
  <rect x="0.89" y="0.593" width="499.11" height="499.11" style="stroke: rgba(0, 0, 0, 0); fill: rgb(255, 250, 250);" transform="matrix(1, 0, 0, 1, -1.4210854715202004e-14, 0)"/>
  <path fill="#0B1222" opacity="1.000000" stroke="none" d="M 321.243 156.271 C 328.978 150.737 337.642 147.806 346.882 146.842 C 364.238 145.031 379.521 150.44 392.498 162.374 C 396.674 166.214 399.869 171.209 403.547 175.976 C 403.966 176.769 404.35 177.26 404.734 177.751 C 404.734 177.751 404.867 177.894 404.898 178.101 C 404.986 178.445 405.08 178.551 405.209 178.623 C 405.263 178.674 405.318 178.724 405.258 178.955 C 404.736 179.619 404.329 180.103 403.807 180.488 C 403.389 179.866 403.084 179.344 402.779 178.821 C 402.53 179.032 402.282 179.245 402.034 179.457 C 403.396 181.837 404.759 184.217 406.056 186.739 C 405.459 188.06 405.722 188.897 406.906 189.504 C 407.222 187.374 407.51 185.436 407.797 183.498 C 412.009 192.017 414.001 201.187 415.362 211.209 C 413.657 209.783 412.365 208.702 410.943 207.514 C 413.945 213.387 416.838 219.045 419.731 224.861 C 419.732 225.02 419.757 225.01 419.757 225.01 C 418.698 224.388 417.64 223.766 416.582 223.145 C 416.4 223.321 416.216 223.497 416.034 223.673 C 417.045 224.897 418.041 226.134 419.071 227.341 C 420.215 228.681 421.701 229.817 422.501 231.346 C 430.549 246.744 435.8 263.115 437.985 280.529 C 439.497 292.593 440.179 304.698 439.197 316.833 C 438.885 320.678 437.934 324.482 437.081 328.257 C 436.44 331.097 434.685 333.04 431.628 333.803 C 431.221 333.856 431.078 333.923 430.935 333.99 C 430.329 333.972 429.724 333.956 428.841 333.846 C 427.306 333.175 426.048 332.594 424.789 331.848 C 424.174 330.664 423.516 329.67 422.974 328.612 C 422.848 328.366 423.111 327.904 423.328 327.589 C 425.043 328.477 426.622 329.317 428.139 330.297 C 427.681 330.899 427.286 331.362 426.891 331.823 C 426.962 332.041 427.033 332.258 427.102 332.476 C 427.687 332.392 428.514 332.521 428.797 332.173 C 429.209 331.666 429.226 330.814 429.507 330.019 C 429.672 329.547 429.932 329.009 429.78 328.806 C 428.089 326.542 426.333 324.33 424.578 322.103 C 424.563 322.102 424.563 322.069 424.575 321.938 C 424.488 321.667 424.39 321.527 424.259 321.239 C 420.343 313.396 418.321 305.071 416.749 296.621 C 415.233 288.478 413.992 280.281 412.471 272.14 C 411.567 267.306 409.56 262.857 405.255 260.486 C 402.903 259.191 401.678 257.446 400.698 255.175 C 400.524 254.773 400.357 254.368 400.164 253.976 C 396.17 245.866 390.1 240.363 381.414 238.614 C 377.854 237.898 374.129 238.071 370.456 237.676 C 369.378 236.736 368.322 235.959 367.138 235.088 C 367.965 234.615 368.653 234.223 369.341 233.83 C 369.31 233.739 369.28 233.648 369.25 233.556 C 368.614 233.619 367.978 233.68 367.611 233.715 C 367.234 232.732 366.944 231.971 366.702 231.068 C 374.699 225.418 379.011 217.697 379.77 207.599 C 379.682 205.754 379.664 204.079 379.399 202.447 C 378.933 199.589 378.789 196.538 377.682 193.954 C 372.669 182.259 363.814 175.623 351.591 174.855 C 341.278 174.207 332.622 178.553 325.873 186.767 C 322.373 191.028 319.803 195.801 319.23 201.491 C 318.823 205.519 320.199 207.664 323.826 209.144 C 324.69 209.496 325.519 209.946 326.364 210.351 C 326.344 210.563 326.323 210.774 326.304 210.986 C 323.32 212.172 320.168 212.582 316.998 212.677 C 317.194 211.94 317.372 211.362 317.499 210.948 C 314.662 210.079 312 209.263 309.265 208.292 C 308.666 208.039 308.141 207.941 307.526 207.838 C 307.436 207.832 307.263 207.779 307.208 207.651 C 307.362 206.965 307.571 206.408 307.686 206.102 C 306.038 206.102 304.278 206.102 302.544 206.088 C 302.57 206.075 302.535 206.124 302.536 205.96 C 300.856 203.917 300.659 201.526 300.483 199.152 C 300.263 196.183 299.528 193.671 296.17 193.188 C 296.291 192.687 296.413 192.187 296.711 191.453 C 296.913 191.035 296.936 190.851 296.959 190.666 C 299.309 181.41 303.897 173.455 310.263 166.31 C 311.271 165.34 311.995 164.431 312.72 163.523 C 312.72 163.523 312.755 163.575 312.879 163.559 C 313.348 163.114 313.693 162.687 314.037 162.258 C 314.037 162.258 314.051 162.275 314.198 162.278 C 315.702 163.325 316.972 164.002 317.909 161.732 C 318.063 161.356 318.758 161.261 319.123 160.937 C 319.931 160.221 320.688 159.44 321.604 158.553 C 321.035 158.522 320.603 158.498 320.105 158.471 C 320.387 157.751 320.618 157.163 320.85 156.574 C 320.85 156.574 320.863 156.526 320.956 156.511 C 321.14 156.446 321.205 156.372 321.243 156.271 M 396.254 170.009 C 394.885 167.782 393.103 166.042 391.034 164.64 C 390.776 164.921 390.516 165.2 390.257 165.48 C 391.694 166.741 393.113 168.024 394.575 169.25 C 395.08 169.674 395.692 169.961 396.254 170.009 M 424.489 239.255 C 423.9 237.9 423.312 236.544 422.724 235.188 C 422.524 235.284 422.323 235.381 422.123 235.477 C 423.087 237.964 424.053 240.451 425.017 242.939 C 425.176 242.886 425.337 242.834 425.497 242.782 C 425.204 241.711 424.912 240.64 424.489 239.255 M 373.496 154.411 C 374.06 154.782 374.625 155.152 375.189 155.524 C 375.337 155.241 375.485 154.958 375.633 154.675 C 374.124 153.824 372.614 152.972 371.105 152.119 C 370.99 152.338 370.875 152.556 370.76 152.774 C 371.587 153.266 372.416 153.758 373.496 154.411 M 409.989 200.136 C 409.602 198.195 409.214 196.253 408.825 194.312 C 408.538 194.389 408.252 194.468 407.966 194.546 C 408.598 196.513 409.231 198.479 409.989 200.136 Z" style="" transform="matrix(1, 0, 0, 1, -1.4210854715202004e-14, 0)"/>
  <path fill="#ABB8C5" opacity="1.000000" stroke="none" d="M 409.47 360.723 C 410.604 361.319 411.694 362.044 412.879 362.487 C 418.511 364.595 424.226 366.477 429.786 368.767 C 431.606 369.517 433.178 371.119 434.633 372.58 C 436.368 374.319 436.432 376.244 434.531 377.661 C 432.218 379.384 429.678 381.172 426.983 381.862 C 419.896 383.678 412.725 385.389 405.491 386.262 C 395.854 387.428 386.131 387.835 376.436 388.408 C 373.305 388.593 370.147 388.259 367 388.195 C 364.975 388.155 362.943 388.275 360.923 388.151 C 349.678 387.456 338.433 386.766 327.196 385.964 C 314.593 385.065 302.238 382.417 289.956 379.561 C 282.826 377.903 275.663 375.96 269.378 371.722 C 268.845 371.362 268.3 371.012 267.808 370.597 C 265.309 368.496 265.228 365.395 267.958 363.661 C 270.584 361.993 273.404 360.321 276.353 359.605 C 283.879 357.778 291.525 356.489 299.119 354.964 C 299.659 354.856 300.168 354.58 300.917 354.306 C 301.783 354.77 302.424 355.308 302.986 355.987 C 301.248 357.103 299.587 358.079 297.503 359.306 C 298.92 359.951 299.715 360.375 300.55 360.68 C 301.492 361.024 302.473 361.262 303.328 361.646 C 302.381 362.592 301.423 363.347 300.735 364.312 C 300.072 365.243 299.688 366.392 299.19 367.532 C 299.199 367.62 299.227 367.795 299.222 367.96 C 299.784 368.882 300.204 369.905 300.945 370.351 C 303.105 371.652 305.385 372.738 307.643 373.854 C 307.847 373.954 308.234 373.649 308.701 373.507 C 310.45 373.211 312.035 372.94 313.695 372.751 C 313.883 372.934 313.994 373.033 314.119 373.273 C 314.497 373.79 314.861 374.166 315.263 374.634 C 315.3 374.724 315.308 374.921 315.34 375.032 C 315.615 375.115 315.858 375.088 316.238 374.973 C 317.273 374.544 318.171 374.203 319.238 373.932 C 323.024 374.544 326.64 375.085 330.417 375.687 C 332.27 375.74 333.962 375.733 335.836 375.757 C 342.275 375.953 348.532 376.116 354.932 376.379 C 355.849 376.504 356.62 376.534 357.392 376.557 C 363.014 376.731 368.637 376.906 374.353 377.175 C 374.814 377.513 375.182 377.756 375.612 378.116 C 376.23 378.298 376.783 378.363 377.528 378.418 C 381.823 378.548 385.924 378.688 390.161 378.887 C 390.763 379.083 391.23 379.22 391.758 379.483 C 392.41 380.038 393.002 380.463 393.811 381.046 C 394.134 379.613 394.381 378.512 394.793 377.378 C 397.649 377.54 400.341 377.735 403.108 378.071 C 404.142 378.578 405.101 378.944 406.52 379.484 C 406.016 378.006 405.737 377.194 405.316 376.289 C 404.287 375.024 403.394 373.858 402.522 372.675 C 401.988 371.948 401.488 371.196 401.099 370.366 C 402.369 369.61 403.512 368.943 404.763 368.214 C 404.104 367.368 403.547 366.652 403.111 365.845 C 405.171 364.089 407.108 362.423 409.152 360.749 C 409.329 360.737 409.4 360.73 409.47 360.723 Z" style="" transform="matrix(1, 0, 0, 1, -1.4210854715202004e-14, 0)"/>
  <path fill="#A1B2C1" opacity="1.000000" stroke="none" d="M 289.944 336.421 C 289.064 332.11 287.799 327.837 287.414 323.479 C 287.045 319.299 287.589 315.032 287.856 310.516 C 288.55 308.628 289.12 307.029 289.845 305.46 C 292.127 306.795 294.122 308.493 296.407 309.323 C 300.942 310.967 302.517 311.69 305.693 315.083 C 305.791 315.189 305.891 315.329 306.014 315.366 C 308.113 316.006 308.702 318 309.642 319.696 C 310.131 320.577 310.624 321.502 311.305 322.208 C 312.136 323.069 313.248 322.899 313.396 321.671 C 313.719 319.005 315.333 319.518 316.924 319.827 C 319.505 320.328 322.078 320.874 324.779 321.47 C 328.38 324.365 331.677 327.478 335.367 329.958 C 343.74 335.585 352.816 339.77 362.255 343.071 C 367.517 344.911 372.831 346.599 378.12 348.542 C 378.048 350.44 378.083 351.975 380.487 351.108 C 380.819 350.988 381.413 351.532 381.838 351.841 C 384.666 353.899 385.158 357.945 388.129 359.913 C 388.353 360.061 388.254 360.741 388.16 361.245 C 387.429 361.56 386.861 361.93 386.254 362.026 C 380.643 362.913 375.095 363.778 369.317 363.546 C 362.039 363.253 354.966 362.121 348.212 359.593 C 342.486 357.45 336.979 354.568 331.598 351.576 C 329.182 350.233 327.025 348.074 325.255 345.849 C 321.802 341.512 318.71 336.864 315.454 332.356 C 314.939 331.643 314.349 330.986 313.668 330.15 C 312.845 333.074 313.271 335.907 314.714 336.172 C 316.728 336.542 316.991 337.997 317.267 339.514 C 316.102 339.108 314.758 338.056 314.154 338.403 C 311.281 340.048 308.447 338.898 305.582 338.928 C 304.064 338.944 301.924 338.225 300.776 340.358 C 300.454 339.885 300.248 339.486 300.096 338.962 C 299.968 338.479 299.788 338.12 299.538 337.627 C 296.282 331.997 295.356 325.847 294.772 319.088 C 294.048 320.043 293.384 320.569 293.181 321.246 C 292.418 323.801 291.716 326.384 291.162 328.997 C 290.642 331.446 290.341 333.944 289.944 336.421 M 358.181 351.154 C 358.387 351.917 358.592 352.681 358.797 353.445 C 359.261 353.09 359.726 352.736 360.191 352.382 C 359.622 351.938 359.055 351.494 358.181 351.154 Z" style="" transform="matrix(1, 0, 0, 1, -1.4210854715202004e-14, 0)"/>
  <path fill="#0F1726" opacity="1.000000" stroke="none" d="M 289.69 305.43 C 289.12 307.029 288.55 308.628 287.858 310.324 C 283.28 298.063 285.222 285.689 287.829 273.378 C 290.009 263.09 293.161 253.096 297.858 243.737 C 300.172 239.128 302.997 234.797 305.765 230.151 C 307.234 230.515 308.529 231.067 309.873 231.759 C 309.921 231.997 309.922 232.095 309.783 232.239 C 306.676 233.981 305.267 237.017 303.784 239.918 C 299.163 248.956 297.901 258.702 298.386 268.941 C 298.383 269.291 298.411 269.493 298.421 269.881 C 298.441 270.818 298.482 271.568 298.472 272.52 C 298.165 276.262 297.908 279.802 297.576 283.479 C 296.426 287.202 295.351 290.789 294.189 294.494 C 292.633 298.218 291.161 301.824 289.69 305.43 Z" style="" transform="matrix(1, 0, 0, 1, -1.4210854715202004e-14, 0)"/>
  <path fill="#7F8FA4" opacity="1.000000" stroke="none" d="M 289.958 336.569 C 290.341 333.944 290.642 331.446 291.162 328.997 C 291.716 326.384 292.418 323.801 293.181 321.246 C 293.384 320.569 294.048 320.043 294.772 319.088 C 295.356 325.847 296.282 331.997 299.541 337.774 C 299.757 338.4 299.9 338.742 300.043 339.086 C 300.248 339.486 300.454 339.885 300.835 340.499 C 304.056 347.051 308.705 351.801 314.536 355.58 C 318.043 357.495 321.505 359.23 324.897 361.101 C 325.775 361.586 326.619 362.392 327.086 363.275 C 327.224 363.539 326.029 364.568 325.284 365.226 C 321.853 364.041 318.591 362.854 315.311 361.717 C 312.923 360.889 310.513 360.13 308.076 359.197 C 306.382 357.986 304.723 356.917 303.063 355.848 C 302.424 355.308 301.783 354.77 301.016 354.175 C 296.44 349.845 292.829 344.963 290.698 338.717 C 290.618 338.323 290.534 338.222 290.421 338.145 C 290.272 337.669 290.122 337.194 289.958 336.569 Z" style="" transform="matrix(1, 0, 0, 1, -1.4210854715202004e-14, 0)"/>
  <path fill="#A1B2C1" opacity="1.000000" stroke="none" d="M 409.574 360.614 C 409.4 360.73 409.329 360.737 409.008 360.77 C 408.575 360.859 408.393 360.922 408.23 360.803 C 408.47 360.008 408.513 359.156 408.934 358.821 C 410.801 357.341 410.452 355.281 410.317 353.366 C 410.129 350.712 406.708 348.874 405.079 350.584 C 404.063 351.651 403.328 351.469 402.406 350.91 C 405.503 348.472 408.436 346.074 410.36 342.242 C 409.718 342.381 409.388 342.453 409.035 342.394 C 408.673 342.103 408.331 341.941 407.952 341.661 C 407.891 341.465 407.864 341.386 407.843 341.187 C 407.844 340.987 407.844 340.905 407.856 340.676 C 407.913 340.332 407.957 340.138 408.137 339.897 C 408.972 339.446 409.681 338.689 410.371 338.708 C 412.365 338.759 413.532 338.096 413.446 336.399 C 414.324 335.672 415.282 335.274 415.359 334.74 C 415.581 333.199 416.11 332.781 417.61 333.052 C 418.755 333.259 419.673 332.557 418.73 331.249 C 417.741 329.878 418.243 328.82 419.098 327.795 C 421.069 329.274 422.929 330.644 424.789 332.015 C 426.048 332.594 427.306 333.175 428.691 333.839 C 427.212 337.508 425.722 341.156 423.977 344.665 C 420.969 350.714 416.507 355.489 411.344 359.582 C 410.849 359.974 410.235 360.202 409.574 360.614 Z" style="" transform="matrix(1, 0, 0, 1, -1.4210854715202004e-14, 0)"/>
  <path fill="#EB978C" opacity="1.000000" stroke="none" d="M 277.062 213.614 C 273.753 211.786 273.4 210.421 275.898 207.852 C 277.5 207.476 278.808 207.194 280.304 206.911 C 281.461 206.846 282.465 206.931 283.394 206.699 C 287.533 205.666 291.652 204.541 295.807 203.573 C 295.99 203.81 296.144 203.923 296.3 204.036 C 296.388 203.79 296.476 203.545 296.566 203.289 C 296.57 203.278 296.568 203.258 296.735 203.231 C 297.798 203.015 298.693 202.826 299.674 202.722 C 300.685 203.912 301.611 205.018 302.535 206.124 C 302.535 206.124 302.57 206.075 302.629 206.216 C 303.919 206.87 305.151 207.382 306.466 208.016 C 306.914 208.189 307.279 208.239 307.648 208.289 C 307.653 208.287 307.647 208.296 307.549 208.367 C 307.094 208.599 306.736 208.761 306.205 208.912 C 297.352 207.64 288.692 208.362 280.042 209.277 C 278.826 209.405 277.65 209.955 276.455 210.309 C 276.498 210.52 276.54 210.731 276.582 210.942 C 277.907 211.086 279.234 211.349 280.56 211.353 C 291.717 211.383 302.875 211.366 314.001 211.385 C 313.97 211.407 313.982 211.486 313.889 211.597 C 311.601 212.401 309.446 213.31 307.206 213.749 C 300.409 215.08 293.546 215.399 286.664 214.54 C 283.477 214.143 280.308 213.598 277.115 213.056 C 277.067 212.971 277.033 212.949 276.999 212.925 C 277.049 212.982 277.1 213.04 277.134 213.227 C 277.099 213.443 277.081 213.528 277.062 213.614 Z" style="" transform="matrix(1, 0, 0, 1, -1.4210854715202004e-14, 0)"/>
  <path fill="#AE4F4C" opacity="1.000000" stroke="none" d="M 277.13 213.12 C 280.308 213.598 283.477 214.143 286.664 214.54 C 293.546 215.399 300.409 215.08 307.206 213.749 C 309.446 213.31 311.601 212.401 314.033 211.565 C 314.464 211.762 314.851 212.372 314.82 212.396 C 313.831 213.159 312.863 213.997 311.764 214.556 C 308.005 216.465 304.289 218.526 299.898 218.415 C 298.265 218.374 296.625 218.623 294.987 218.74 C 294.443 218.714 293.899 218.688 293.101 218.577 C 292.677 218.472 292.505 218.45 292.335 218.428 C 286.995 218.012 281.965 216.49 277.156 213.73 C 277.081 213.528 277.099 213.443 277.128 213.231 C 277.139 213.107 277.13 213.12 277.13 213.12 Z" style="" transform="matrix(1, 0, 0, 1, -1.4210854715202004e-14, 0)"/>
  <path fill="#F6BCB0" opacity="1.000000" stroke="none" d="M 299.588 202.636 C 298.693 202.826 297.798 203.015 296.757 203.06 C 296.263 202.498 295.895 201.7 295.575 201.72 C 291.604 201.974 287.602 202.114 283.69 202.794 C 281.874 203.108 279.844 204.173 280.114 206.914 C 278.808 207.194 277.5 207.476 276.022 207.771 C 278.025 204.036 281.608 201.963 285.026 199.836 C 288.219 197.85 291.718 196.398 295.261 194.794 C 296.619 196.108 297.801 197.341 299.063 198.756 C 299.292 200.172 299.44 201.404 299.588 202.636 Z" style="" transform="matrix(1, 0, 0, 1, -1.4210854715202004e-14, 0)"/>
  <path fill="#A1B2C1" opacity="1.000000" stroke="none" d="M 309.824 231.621 C 308.529 231.067 307.234 230.515 305.819 230.014 C 305.197 229.399 304.758 228.667 304.187 228.072 C 301.449 225.229 298.675 222.421 296.056 219.463 C 298.203 219.365 300.21 219.404 302.23 219.586 C 303.232 220.627 304.16 221.611 305.22 222.405 C 308.575 224.917 311.979 227.357 315.27 229.94 C 314.708 229.997 314.23 229.987 313.776 229.875 C 312.039 229.448 310.577 229.65 309.824 231.621 Z" style="" transform="matrix(1, 0, 0, 1, -1.4210854715202004e-14, 0)"/>
  <path fill="#923C3C" opacity="1.000000" stroke="none" d="M 302.215 219.442 C 300.21 219.404 298.203 219.365 296.001 219.328 C 295.598 219.184 295.393 219.039 295.087 218.817 C 296.625 218.623 298.265 218.374 299.898 218.415 C 304.289 218.526 308.005 216.465 311.764 214.556 C 312.863 213.997 313.831 213.159 314.82 212.396 C 314.851 212.372 314.464 211.762 314.127 211.455 C 313.982 211.486 313.97 211.407 313.981 211.214 C 313.065 210.675 312.156 210.254 311.206 210.004 C 309.611 209.585 307.989 209.277 306.378 208.921 C 306.736 208.761 307.094 208.599 307.718 208.334 C 308.435 208.303 308.887 208.375 309.339 208.447 C 312 209.263 314.662 210.079 317.499 210.948 C 317.372 211.362 317.194 211.94 316.952 212.811 C 314.345 214.517 311.803 215.929 309.13 217.357 C 306.739 218.063 304.477 218.753 302.215 219.442 Z" style="" transform="matrix(1, 0, 0, 1, -1.4210854715202004e-14, 0)"/>
  <path fill="#121A2B" opacity="1.000000" stroke="none" d="M 320.704 156.59 C 320.618 157.163 320.387 157.751 320.105 158.471 C 320.603 158.498 321.035 158.522 321.604 158.553 C 320.688 159.44 319.931 160.221 319.123 160.937 C 318.758 161.261 318.063 161.356 317.909 161.732 C 316.972 164.002 315.702 163.325 314.19 162.27 C 316.21 160.375 318.386 158.491 320.704 156.59 Z" style="" transform="matrix(1, 0, 0, 1, -1.4210854715202004e-14, 0)"/>
  <path fill="#121A2B" opacity="1.000000" stroke="none" d="M 407.782 183.34 C 407.51 185.436 407.222 187.374 406.906 189.504 C 405.722 188.897 405.459 188.06 406.093 186.567 C 405.437 184.364 404.679 182.476 403.922 180.586 C 404.329 180.103 404.736 179.619 405.286 179.065 C 406.208 180.391 406.987 181.787 407.782 183.34 Z" style="" transform="matrix(1, 0, 0, 1, -1.4210854715202004e-14, 0)"/>
  <path fill="#191919" opacity="1.000000" stroke="none" d="M 299.674 202.722 C 299.44 201.404 299.292 200.172 299.128 198.598 C 298.876 196.143 298.192 194.452 295.765 194.404 C 295.839 194.063 295.915 193.72 296.08 193.283 C 299.528 193.671 300.263 196.183 300.483 199.152 C 300.659 201.526 300.856 203.917 302.536 205.96 C 301.611 205.018 300.685 203.912 299.674 202.722 Z" style="" transform="matrix(1, 0, 0, 1, -1.4210854715202004e-14, 0)"/>
  <path fill="#EB978C" opacity="1.000000" stroke="none" d="M 295.657 194.436 C 298.192 194.452 298.876 196.143 299.046 198.415 C 297.801 197.341 296.619 196.108 295.4 194.737 C 295.423 194.556 295.486 194.512 295.657 194.436 Z" style="" transform="matrix(1, 0, 0, 1, -1.4210854715202004e-14, 0)"/>
  <path fill="#DBE0E2" opacity="1.000000" stroke="none" d="M 190.77 419.027 C 192.606 419.203 191.451 420.434 191.301 421.036 C 191.176 421.536 190.268 421.824 189.708 422.205 C 189.614 422.041 189.52 421.877 189.426 421.713 C 189.845 420.857 190.263 420.001 190.77 419.027 Z" style="" transform="matrix(1, 0, 0, 1, -1.4210854715202004e-14, 0)"/>
  <path fill="#121A2B" opacity="1.000000" stroke="none" d="M 312.586 163.566 C 311.995 164.431 311.271 165.34 310.394 166.249 C 310.979 165.37 311.715 164.491 312.586 163.566 Z" style="" transform="matrix(1, 0, 0, 1, -1.4210854715202004e-14, 0)"/>
  <path fill="#121A2B" opacity="1.000000" stroke="none" d="M 404.704 177.616 C 404.35 177.26 403.966 176.769 403.587 176.123 C 403.954 176.474 404.314 176.979 404.704 177.616 Z" style="" transform="matrix(1, 0, 0, 1, -1.4210854715202004e-14, 0)"/>
  <path fill="#121A2B" opacity="1.000000" stroke="none" d="M 313.908 162.296 C 313.693 162.687 313.348 163.114 312.854 163.541 C 313.063 163.138 313.421 162.737 313.908 162.296 Z" style="" transform="matrix(1, 0, 0, 1, -1.4210854715202004e-14, 0)"/>
  <path fill="#923C3C" opacity="1.000000" stroke="none" d="M 292.386 218.47 C 292.505 218.45 292.677 218.472 292.914 218.488 C 292.799 218.492 292.619 218.501 292.386 218.47 Z" style="" transform="matrix(1, 0, 0, 1, -1.4210854715202004e-14, 0)"/>
  <path fill="#0B1222" opacity="1.000000" stroke="none" d="M 419.721 225.027 C 419.78 225.162 419.852 225.29 419.923 225.419 C 419.81 225.317 419.698 225.216 419.672 225.062 C 419.757 225.01 419.732 225.02 419.721 225.027 Z" style="" transform="matrix(1, 0, 0, 1, -1.4210854715202004e-14, 0)"/>
  <path fill="#121A2B" opacity="1.000000" stroke="none" d="M 405.204 178.509 C 405.08 178.551 404.986 178.445 404.905 178.201 C 404.988 178.194 405.094 178.293 405.204 178.509 Z" style="" transform="matrix(1, 0, 0, 1, -1.4210854715202004e-14, 0)"/>
  <path fill="#191919" opacity="1.000000" stroke="none" d="M 296.857 190.766 C 296.936 190.851 296.913 191.035 296.803 191.328 C 296.73 191.247 296.743 191.056 296.857 190.766 Z" style="" transform="matrix(1, 0, 0, 1, -1.4210854715202004e-14, 0)"/>
  <path fill="#A1B2C1" opacity="1.000000" stroke="none" d="M 431.045 334.041 C 431.078 333.923 431.221 333.856 431.474 333.843 C 431.442 333.963 431.299 334.028 431.045 334.041 Z" style="" transform="matrix(1, 0, 0, 1, -1.4210854715202004e-14, 0)"/>
  <path fill="#A1B2C1" opacity="1.000000" stroke="none" d="M 290.431 338.249 C 290.534 338.222 290.618 338.323 290.696 338.552 C 290.589 338.591 290.496 338.492 290.431 338.249 Z" style="" transform="matrix(1, 0, 0, 1, -1.4210854715202004e-14, 0)"/>
  <path fill="#121A2B" opacity="1.000000" stroke="none" d="M 321.159 156.269 C 321.205 156.372 321.14 156.446 320.979 156.52 C 320.903 156.411 320.959 156.318 321.159 156.269 Z" style="" transform="matrix(1, 0, 0, 1, -1.4210854715202004e-14, 0)"/>
  <path fill="#FCFCF4" opacity="1.000000" stroke="none" d="M 370.478 237.84 C 374.129 238.071 377.854 237.898 381.414 238.614 C 390.1 240.363 396.17 245.866 400.164 253.976 C 400.357 254.368 400.524 254.773 400.698 255.175 C 401.678 257.446 402.903 259.191 405.255 260.486 C 409.56 262.857 411.567 267.306 412.471 272.14 C 413.992 280.281 415.233 288.478 416.749 296.621 C 418.321 305.071 420.343 313.396 424.108 321.236 C 423.506 321.021 422.821 320.773 422.574 320.284 C 420.916 317.001 418.82 313.825 417.858 310.319 C 415.239 300.761 413.166 291.043 410.765 281.417 C 409.727 277.252 408.608 273.085 407.155 269.064 C 406.412 267.013 404.831 265.305 402.156 264.269 C 402.556 266.533 402.88 268.357 403.193 270.365 C 403.118 271.131 403.034 271.71 402.992 272.294 C 402.68 276.585 402.375 280.877 402.083 285.341 C 402.137 285.743 402.177 285.972 402.166 286.347 C 402.049 287.958 401.983 289.425 401.907 291.095 C 402.157 294.943 402.291 298.603 402.706 302.228 C 403.304 307.449 404.106 312.645 404.655 317.856 C 401.533 318.806 398.567 319.715 395.627 320.711 C 394.192 321.196 393.343 320.746 392.402 319.509 C 391.151 317.865 389.543 316.515 388.088 315.039 C 387.877 315.181 387.667 315.325 387.456 315.468 C 387.311 316.537 387.248 317.629 386.985 318.666 C 386.858 319.169 386.242 320.007 386.042 319.95 C 383.814 319.318 381.37 319.417 379.864 316.803 C 378.473 314.388 376.441 312.374 374.692 310.184 C 374.399 310.349 374.107 310.515 373.813 310.679 C 374.052 311.911 374.224 313.161 374.545 314.368 C 374.933 315.832 374.696 316.698 372.888 316.474 C 370.847 315.742 369.432 314.808 368.435 312.659 C 366.785 309.096 363.98 306.389 360.79 304.235 C 360.61 304.363 360.429 304.49 360.249 304.617 C 361.642 307.167 363.034 309.717 364.426 312.267 C 360.635 311.175 356.865 310.143 354.561 306.951 C 352.424 303.992 350.889 300.552 349.161 297.282 C 348.002 295.087 346.97 292.818 345.881 290.583 C 345.674 290.666 345.466 290.749 345.258 290.832 C 344.167 296.308 347.805 300.276 350.14 305.041 C 348.838 304.434 347.899 304.004 346.968 303.555 C 346.78 303.465 346.62 303.308 346.447 303.183 C 339.303 298.02 333.285 291.767 328.786 283.937 C 325.15 277.612 322.729 270.852 321.765 263.583 C 321.079 258.395 322.73 253.89 326.497 250.185 C 328.243 249.3 329.845 248.442 331.479 247.733 C 332.191 247.908 332.927 248.124 333.541 247.928 C 337.633 246.62 341.699 245.227 345.771 243.854 C 347.489 243.274 349.201 242.678 351.06 242.038 C 351.303 241.958 351.401 241.929 351.663 241.893 C 352.79 241.633 353.754 241.379 354.891 241.078 C 358.227 240.302 361.387 239.575 364.696 238.821 C 365.171 238.628 365.495 238.462 366.012 238.3 C 367.627 238.15 369.054 237.994 370.478 237.84 M 385.99 312.116 C 386.55 312.534 387.11 312.951 387.672 313.366 C 387.87 313.037 388.306 312.527 388.224 312.409 C 387.847 311.868 387.361 311.375 386.822 311.016 C 386.712 310.943 386.202 311.528 385.99 312.116 Z" style="" transform="matrix(1, 0, 0, 1, -1.4210854715202004e-14, 0)"/>
  <path fill="#FBFBF4" opacity="1.000000" stroke="none" d="M 309.26 217.341 C 311.803 215.929 314.345 214.517 316.934 212.971 C 320.168 212.582 323.32 212.172 326.304 210.986 C 326.323 210.774 326.344 210.563 326.364 210.351 C 325.519 209.946 324.69 209.496 323.826 209.144 C 320.199 207.664 318.823 205.519 319.23 201.491 C 319.803 195.801 322.373 191.028 325.873 186.767 C 332.622 178.553 341.278 174.207 351.591 174.855 C 363.814 175.623 372.669 182.259 377.682 193.954 C 378.789 196.538 378.933 199.589 379.399 202.447 C 379.664 204.079 379.682 205.754 379.623 207.624 C 379.112 208.284 378.734 208.696 378.481 209.18 C 377.474 211.098 376.701 213.183 375.489 214.943 C 371.093 221.333 365.33 225.87 358.033 228.106 C 352.716 229.736 347.284 230.233 341.79 229.373 C 338.599 228.874 335.288 228.617 332.288 227.503 C 326.472 225.345 320.829 222.681 315.133 220.178 C 313.146 219.305 311.217 218.29 309.26 217.341 M 345.873 208.71 C 346.489 208.859 347.207 209.296 347.704 209.106 C 350.165 208.163 351.49 206.062 352.536 203.671 C 355.028 197.978 350.458 190.547 344.476 190.056 C 337.364 189.473 332.15 195.231 330.195 200.072 C 329.332 202.208 330.038 203.354 332.277 203.324 C 333.124 203.313 333.966 202.793 334.904 202.814 C 336.538 208.059 340.239 209.937 345.873 208.71 Z" style="" transform="matrix(1, 0, 0, 1, -1.4210854715202004e-14, 0)"/>
  <path fill="#DFE2E2" opacity="1.000000" stroke="none" d="M 309.13 217.357 C 311.217 218.29 313.146 219.305 315.133 220.178 C 320.829 222.681 326.472 225.345 332.288 227.503 C 335.288 228.617 338.599 228.874 341.79 229.373 C 347.284 230.233 352.716 229.736 358.033 228.106 C 365.33 225.87 371.093 221.333 375.489 214.943 C 376.701 213.183 377.474 211.098 378.481 209.18 C 378.734 208.696 379.112 208.284 379.581 207.813 C 379.011 217.697 374.699 225.418 366.57 231.133 C 363.408 232.806 360.429 234.272 357.279 235.714 C 348.2 238.439 339.207 238.091 330.376 235.679 C 325.234 234.275 320.359 231.812 315.363 229.825 C 311.979 227.357 308.575 224.917 305.22 222.405 C 304.16 221.611 303.232 220.627 302.23 219.586 C 304.477 218.753 306.739 218.063 309.13 217.357 Z" style="" transform="matrix(1, 0, 0, 1, -1.4210854715202004e-14, 0)"/>
  <path fill="#DBE0E2" opacity="1.000000" stroke="none" d="M 403.203 270.18 C 402.88 268.357 402.556 266.533 402.156 264.269 C 404.831 265.305 406.412 267.013 407.155 269.064 C 408.608 273.085 409.727 277.252 410.765 281.417 C 413.166 291.043 415.239 300.761 417.858 310.319 C 418.82 313.825 420.916 317.001 422.574 320.284 C 422.821 320.773 423.506 321.021 424.141 321.384 C 424.39 321.527 424.488 321.667 424.488 321.979 C 424.385 322.23 424.379 322.31 424.372 322.389 C 424.447 322.293 424.52 322.199 424.595 322.103 C 426.333 324.33 428.089 326.542 429.78 328.806 C 429.932 329.009 429.672 329.547 429.355 329.996 C 428.806 330.094 428.504 330.125 428.202 330.155 C 426.622 329.317 425.043 328.477 423.263 327.455 C 422.103 326.199 421.049 325.2 420.196 324.038 C 414.562 316.377 411.615 307.499 410.002 298.161 C 408.741 290.861 408.088 283.45 407.015 276.113 C 406.787 274.563 405.904 273.117 405.31 271.452 C 404.599 270.913 403.901 270.547 403.203 270.18 Z" style="" transform="matrix(1, 0, 0, 1, -1.4210854715202004e-14, 0)"/>
  <path fill="#121A2B" opacity="1.000000" stroke="none" d="M 405.322 271.623 C 405.904 273.117 406.787 274.563 407.015 276.113 C 408.088 283.45 408.741 290.861 410.002 298.161 C 411.615 307.499 414.562 316.377 420.196 324.038 C 421.049 325.2 422.103 326.199 423.129 327.407 C 423.111 327.904 422.848 328.366 422.974 328.612 C 423.516 329.67 424.174 330.664 424.789 331.848 C 422.929 330.644 421.069 329.274 419.048 327.669 C 414.174 322.024 410.807 315.784 408.193 309.031 C 405.766 302.761 404.531 296.221 403.642 289.413 C 403.958 285.243 404.205 281.24 404.549 277.246 C 404.712 275.362 405.059 273.496 405.322 271.623 Z" style="" transform="matrix(1, 0, 0, 1, -1.4210854715202004e-14, 0)"/>
  <path fill="#121A2B" opacity="1.000000" stroke="none" d="M 357.449 235.737 C 360.429 234.272 363.408 232.806 366.52 231.275 C 366.944 231.971 367.234 232.732 367.611 233.715 C 367.978 233.68 368.614 233.619 369.25 233.556 C 369.28 233.648 369.31 233.739 369.341 233.83 C 368.653 234.223 367.965 234.615 367.138 235.088 C 368.322 235.959 369.378 236.736 370.456 237.676 C 369.054 237.994 367.627 238.15 365.932 238.155 C 365.245 238.042 364.83 238.078 364.215 238.11 C 363.617 238.153 363.218 238.202 362.915 238.085 C 363.584 237.067 364.161 236.215 364.734 235.365 C 363.965 235.495 363.142 235.634 362.181 235.724 C 361.735 235.809 361.427 235.943 361.131 236.082 C 361.145 236.086 361.154 236.059 360.986 235.973 C 359.695 235.836 358.572 235.786 357.449 235.737 Z" style="" transform="matrix(1, 0, 0, 1, -1.4210854715202004e-14, 0)"/>
  <path fill="#C4D1D9" opacity="1.000000" stroke="none" d="M 396.254 170.16 C 395.692 169.961 395.08 169.674 394.575 169.25 C 393.113 168.024 391.694 166.741 390.257 165.48 C 390.516 165.2 390.776 164.921 391.034 164.64 C 393.103 166.042 394.885 167.782 396.254 170.16 Z" style="" transform="matrix(1, 0, 0, 1, -1.4210854715202004e-14, 0)"/>
  <path fill="#ABB8C5" opacity="1.000000" stroke="none" d="M 424.554 239.411 C 424.912 240.64 425.204 241.711 425.497 242.782 C 425.337 242.834 425.176 242.886 425.017 242.939 C 424.053 240.451 423.087 237.964 422.123 235.477 C 422.323 235.381 422.524 235.284 422.724 235.188 C 423.312 236.544 423.9 237.9 424.554 239.411 Z" style="" transform="matrix(1, 0, 0, 1, -1.4210854715202004e-14, 0)"/>
  <path fill="#CAD4DC" opacity="1.000000" stroke="none" d="M 403.807 180.488 C 404.679 182.476 405.437 184.364 406.159 186.426 C 404.759 184.217 403.396 181.837 402.034 179.457 C 402.282 179.245 402.53 179.032 402.779 178.821 C 403.084 179.344 403.389 179.866 403.807 180.488 Z" style="" transform="matrix(1, 0, 0, 1, -1.4210854715202004e-14, 0)"/>
  <path fill="#191919" opacity="1.000000" stroke="none" d="M 306.384 207.895 C 305.151 207.382 303.919 206.87 302.602 206.23 C 304.278 206.102 306.038 206.102 307.686 206.102 C 307.571 206.408 307.362 206.965 307.06 207.664 C 306.773 207.836 306.579 207.865 306.384 207.895 Z" style="" transform="matrix(1, 0, 0, 1, -1.4210854715202004e-14, 0)"/>
  <path fill="#ABB8C5" opacity="1.000000" stroke="none" d="M 373.37 154.33 C 372.416 153.758 371.587 153.266 370.76 152.774 C 370.875 152.556 370.99 152.338 371.105 152.119 C 372.614 152.972 374.124 153.824 375.633 154.675 C 375.485 154.958 375.337 155.241 375.189 155.524 C 374.625 155.152 374.06 154.782 373.37 154.33 Z" style="" transform="matrix(1, 0, 0, 1, -1.4210854715202004e-14, 0)"/>
  <path fill="#9AAAB9" opacity="1.000000" stroke="none" d="M 409.926 200.291 C 409.231 198.479 408.598 196.513 407.966 194.546 C 408.252 194.468 408.538 194.389 408.825 194.312 C 409.214 196.253 409.602 198.195 409.926 200.291 Z" style="" transform="matrix(1, 0, 0, 1, -1.4210854715202004e-14, 0)"/>
  <path fill="#121A2B" opacity="1.000000" stroke="none" d="M 428.139 330.297 C 428.504 330.125 428.806 330.094 429.26 330.085 C 429.226 330.814 429.209 331.666 428.797 332.173 C 428.514 332.521 427.687 332.392 427.102 332.476 C 427.033 332.258 426.962 332.041 426.891 331.823 C 427.286 331.362 427.681 330.899 428.139 330.297 Z" style="" transform="matrix(1, 0, 0, 1, -1.4210854715202004e-14, 0)"/>
  <path fill="#191919" opacity="1.000000" stroke="none" d="M 309.265 208.292 C 308.887 208.375 308.435 208.303 307.815 208.264 C 307.647 208.296 307.653 208.287 307.653 208.176 C 307.64 207.991 307.628 207.918 307.615 207.844 C 308.141 207.941 308.666 208.039 309.265 208.292 Z" style="" transform="matrix(1, 0, 0, 1, -1.4210854715202004e-14, 0)"/>
  <path fill="#923C3C" opacity="1.000000" stroke="none" d="M 307.526 207.838 C 307.628 207.918 307.64 207.991 307.649 208.178 C 307.279 208.239 306.914 208.189 306.466 208.016 C 306.579 207.865 306.773 207.836 307.115 207.793 C 307.263 207.779 307.436 207.832 307.526 207.838 Z" style="" transform="matrix(1, 0, 0, 1, -1.4210854715202004e-14, 0)"/>
  <path fill="#923C3C" opacity="1.000000" stroke="none" d="M 308.113 359.34 C 310.513 360.13 312.923 360.889 315.311 361.717 C 318.591 362.854 321.853 364.041 325.403 365.34 C 330.33 366.699 334.976 367.926 339.579 369.304 C 339.092 370.184 338.651 370.918 338.2 371.644 C 337.355 373.007 336.503 374.366 335.653 375.726 C 333.962 375.733 332.27 375.74 330.397 375.537 C 327.801 371.803 321.788 371.013 319.068 373.862 C 318.171 374.203 317.273 374.544 316.109 374.939 C 315.664 374.968 315.486 374.945 315.308 374.921 C 315.308 374.921 315.3 374.724 315.393 374.549 C 316.541 372.842 317.654 371.346 318.623 369.756 C 319.016 369.112 319.095 368.261 319.318 367.504 C 318.531 367.358 317.472 366.808 317.012 367.144 C 316.002 367.883 315.108 368.969 314.524 370.111 C 314.092 370.956 314.224 372.114 314.105 373.132 C 313.994 373.033 313.883 372.934 313.702 372.592 C 313.039 371.43 312.446 370.509 311.792 369.484 C 311.379 369.412 311.027 369.444 310.513 369.479 C 310.025 369.491 309.7 369.502 309.275 369.407 C 306.133 367 302.63 367.379 299.182 367.444 C 299.688 366.392 300.072 365.243 300.735 364.312 C 301.423 363.347 302.381 362.592 303.465 361.602 C 305.178 360.753 306.646 360.046 308.113 359.34 Z" style="" transform="matrix(1, 0, 0, 1, -1.4210854715202004e-14, 0)"/>
  <path fill="#0F1726" opacity="1.000000" stroke="none" d="M 335.836 375.757 C 336.503 374.366 337.355 373.007 338.2 371.644 C 338.651 370.918 339.092 370.184 339.757 369.28 C 340.329 369.111 340.687 369.079 341.034 369.126 C 350.169 370.373 359.314 370.917 368.497 369.702 C 369.116 369.62 369.762 369.757 370.427 369.935 C 370.893 370.945 371.327 371.81 371.592 372.734 C 365.876 373.954 360.333 375.117 354.787 376.28 C 348.532 376.116 342.275 375.953 335.836 375.757 Z" style="" transform="matrix(1, 0, 0, 1, -1.4210854715202004e-14, 0)"/>
  <path fill="#AE4F4C" opacity="1.000000" stroke="none" d="M 377.337 378.428 C 376.783 378.363 376.23 378.298 375.622 377.946 C 375.59 377.431 375.612 377.206 375.779 376.978 C 377.543 376.102 379.181 375.262 380.764 374.324 C 381.111 374.118 381.51 373.496 381.439 373.175 C 381.358 372.818 380.772 372.356 380.396 372.346 C 379.498 372.321 378.594 372.535 377.692 372.468 C 377.472 369.1 380.287 371.253 381.298 370.039 C 381.001 369.716 380.712 369.4 380.491 369.16 C 381.033 368.709 381.485 368.333 382.098 367.885 C 384.987 367.257 387.716 366.701 390.608 366.138 C 391.501 366.007 392.231 365.883 392.998 365.902 C 394.695 366.916 396.352 367.788 398.064 368.787 C 398.221 369.171 398.324 369.426 398.243 369.654 C 396.465 369.666 394.699 369.067 393.431 370.892 C 393.845 371.268 394.115 371.638 394.474 371.822 C 397.81 373.534 401.153 375.228 404.522 376.869 C 404.718 376.965 405.142 376.555 405.46 376.381 C 405.737 377.194 406.016 378.006 406.52 379.484 C 405.101 378.944 404.142 378.578 403.008 377.983 C 400.869 376.999 398.936 376.138 396.932 375.528 C 395.553 375.11 394.575 375.692 394.628 377.411 C 394.381 378.512 394.134 379.613 393.811 381.046 C 393.002 380.463 392.41 380.038 391.695 379.343 C 390.919 378.706 390.265 378.338 389.603 377.961 C 389.595 377.953 389.578 377.938 389.569 377.783 C 388.724 377.157 387.887 376.688 387.038 376.216 C 387.025 376.214 387.006 376.195 386.897 376.067 C 385.715 376.017 384.641 376.094 383.495 376.184 C 383.421 376.197 383.273 376.207 383.112 376.197 C 382.457 376.327 381.966 376.468 381.318 376.633 C 379.886 377.247 378.611 377.837 377.337 378.428 M 393.587 376.871 C 393.027 375.185 392.721 373.321 391.797 371.892 C 391.363 371.222 389.737 371.388 388.651 371.175 C 388.78 372.189 388.579 373.476 389.103 374.162 C 390.429 375.899 392.08 377.365 393.879 379.227 C 393.811 378.269 393.771 377.708 393.587 376.871 Z" style="" transform="matrix(1, 0, 0, 1, -1.4210854715202004e-14, 0)"/>
  <path fill="#923C3C" opacity="1.000000" stroke="none" d="M 381.938 367.957 C 381.485 368.333 381.033 368.709 380.491 369.16 C 380.712 369.4 381.001 369.716 381.298 370.039 C 380.287 371.253 377.472 369.1 377.601 372.585 C 376.885 374.252 376.259 375.615 375.633 376.979 C 375.612 377.206 375.59 377.431 375.558 377.828 C 375.182 377.756 374.814 377.513 374.339 377.022 C 373.609 375.566 372.988 374.357 372.275 373.048 C 372.035 372.853 371.887 372.758 371.748 372.663 C 371.755 372.663 371.762 372.677 371.762 372.677 C 371.327 371.81 370.893 370.945 370.59 369.847 C 374.461 369.063 378.199 368.509 381.938 367.957 Z" style="" transform="matrix(1, 0, 0, 1, -1.4210854715202004e-14, 0)"/>
  <path fill="#61627C" opacity="1.000000" stroke="none" d="M 372.367 373.149 C 372.988 374.357 373.609 375.566 374.245 376.927 C 368.637 376.906 363.014 376.731 357.392 376.557 C 356.62 376.534 355.849 376.504 354.932 376.379 C 360.333 375.117 365.876 373.954 371.592 372.734 C 371.762 372.677 371.755 372.663 371.798 372.803 C 372.016 373.011 372.192 373.08 372.367 373.149 Z" style="" transform="matrix(1, 0, 0, 1, -1.4210854715202004e-14, 0)"/>
  <path fill="#121A2B" opacity="1.000000" stroke="none" d="M 398.009 368.66 C 396.352 367.788 394.695 366.916 393.171 365.865 C 398.273 364.119 403.241 362.551 408.209 360.983 C 408.393 360.922 408.575 360.859 408.902 360.776 C 407.108 362.423 405.171 364.089 402.969 365.879 C 401.139 366.888 399.574 367.773 398.009 368.66 Z" style="" transform="matrix(1, 0, 0, 1, -1.4210854715202004e-14, 0)"/>
  <path fill="#F6BCB0" opacity="1.000000" stroke="none" d="M 405.316 376.289 C 405.142 376.555 404.718 376.965 404.522 376.869 C 401.153 375.228 397.81 373.534 394.474 371.822 C 394.115 371.638 393.845 371.268 393.431 370.892 C 394.699 369.067 396.465 369.666 398.346 369.768 C 399.413 370.091 400.193 370.273 400.972 370.456 C 401.488 371.196 401.988 371.948 402.522 372.675 C 403.394 373.858 404.287 375.024 405.316 376.289 Z" style="" transform="matrix(1, 0, 0, 1, -1.4210854715202004e-14, 0)"/>
  <path fill="#9AAAB9" opacity="1.000000" stroke="none" d="M 308.076 359.197 C 306.646 360.046 305.178 360.753 303.573 361.503 C 302.473 361.262 301.492 361.024 300.55 360.68 C 299.715 360.375 298.92 359.951 297.503 359.306 C 299.587 358.079 301.248 357.103 302.986 355.987 C 304.723 356.917 306.382 357.986 308.076 359.197 Z" style="" transform="matrix(1, 0, 0, 1, -1.4210854715202004e-14, 0)"/>
  <path fill="#F6BCB0" opacity="1.000000" stroke="none" d="M 314.119 373.273 C 314.224 372.114 314.092 370.956 314.524 370.111 C 315.108 368.969 316.002 367.883 317.012 367.144 C 317.472 366.808 318.531 367.358 319.318 367.504 C 319.095 368.261 319.016 369.112 318.623 369.756 C 317.654 371.346 316.541 372.842 315.357 374.459 C 314.861 374.166 314.497 373.79 314.119 373.273 Z" style="" transform="matrix(1, 0, 0, 1, -1.4210854715202004e-14, 0)"/>
  <path fill="#61627C" opacity="1.000000" stroke="none" d="M 319.238 373.932 C 321.788 371.013 327.801 371.803 330.236 375.476 C 326.64 375.085 323.024 374.544 319.238 373.932 Z" style="" transform="matrix(1, 0, 0, 1, -1.4210854715202004e-14, 0)"/>
  <path fill="#61627C" opacity="1.000000" stroke="none" d="M 377.528 378.418 C 378.611 377.837 379.886 377.247 381.478 376.647 C 382.288 376.493 382.781 376.35 383.273 376.207 C 383.273 376.207 383.421 376.197 383.689 376.202 C 384.973 376.205 385.99 376.2 387.006 376.195 C 387.006 376.195 387.025 376.214 387.093 376.349 C 387.967 376.969 388.772 377.454 389.578 377.938 C 389.578 377.938 389.595 377.953 389.641 378.075 C 389.8 378.407 389.912 378.618 390.026 378.829 C 385.924 378.688 381.823 378.548 377.528 378.418 Z" style="" transform="matrix(1, 0, 0, 1, -1.4210854715202004e-14, 0)"/>
  <path fill="#9AAAB9" opacity="1.000000" stroke="none" d="M 308.535 373.533 C 308.234 373.649 307.847 373.954 307.643 373.854 C 305.385 372.738 303.105 371.652 300.945 370.351 C 300.204 369.905 299.784 368.882 299.375 367.995 C 302.109 368.879 304.686 369.891 307.279 371.054 C 307.71 371.981 308.123 372.757 308.535 373.533 Z" style="" transform="matrix(1, 0, 0, 1, -1.4210854715202004e-14, 0)"/>
  <path fill="#7F8FA4" opacity="1.000000" stroke="none" d="M 308.701 373.507 C 308.123 372.757 307.71 371.981 307.409 371 C 308.138 370.369 308.756 369.941 309.375 369.513 C 309.7 369.502 310.025 369.491 310.658 369.513 C 311.262 369.559 311.557 369.574 311.854 369.588 C 312.446 370.509 313.039 371.43 313.626 372.51 C 312.035 372.94 310.45 373.211 308.701 373.507 Z" style="" transform="matrix(1, 0, 0, 1, -1.4210854715202004e-14, 0)"/>
  <path fill="#61627C" opacity="1.000000" stroke="none" d="M 309.275 369.407 C 308.756 369.941 308.138 370.369 307.39 370.85 C 304.686 369.891 302.109 368.879 299.38 367.83 C 299.227 367.795 299.199 367.62 299.19 367.532 C 302.63 367.379 306.133 367 309.275 369.407 Z" style="" transform="matrix(1, 0, 0, 1, -1.4210854715202004e-14, 0)"/>
  <path fill="#61627C" opacity="1.000000" stroke="none" d="M 401.099 370.366 C 400.193 370.273 399.413 370.091 398.53 369.796 C 398.324 369.426 398.221 369.171 398.064 368.787 C 399.574 367.773 401.139 366.888 402.846 365.968 C 403.547 366.652 404.104 367.368 404.763 368.214 C 403.512 368.943 402.369 369.61 401.099 370.366 Z" style="" transform="matrix(1, 0, 0, 1, -1.4210854715202004e-14, 0)"/>
  <path fill="#121A2B" opacity="1.000000" stroke="none" d="M 394.793 377.378 C 394.575 375.692 395.553 375.11 396.932 375.528 C 398.936 376.138 400.869 376.999 402.932 377.841 C 400.341 377.735 397.649 377.54 394.793 377.378 Z" style="" transform="matrix(1, 0, 0, 1, -1.4210854715202004e-14, 0)"/>
  <path fill="#923C3C" opacity="1.000000" stroke="none" d="M 390.161 378.887 C 389.912 378.618 389.8 378.407 389.65 378.083 C 390.265 378.338 390.919 378.706 391.635 379.215 C 391.23 379.22 390.763 379.083 390.161 378.887 Z" style="" transform="matrix(1, 0, 0, 1, -1.4210854715202004e-14, 0)"/>
  <path fill="#F6BCB0" opacity="1.000000" stroke="none" d="M 315.34 375.032 C 315.486 374.945 315.664 374.968 315.971 375.026 C 315.858 375.088 315.615 375.115 315.34 375.032 Z" style="" transform="matrix(1, 0, 0, 1, -1.4210854715202004e-14, 0)"/>
  <path fill="#C4D1D9" opacity="1.000000" stroke="none" d="M 297.651 283.342 C 297.908 279.802 298.165 276.262 298.604 272.46 C 298.671 271.364 298.556 270.529 298.441 269.694 C 298.411 269.493 298.383 269.291 298.55 268.932 C 299.035 268.434 299.521 268.123 299.575 267.747 C 299.801 266.167 299.891 264.565 300.044 262.972 C 300.529 257.923 300.582 252.792 302.718 248.096 C 303.193 248.778 303.725 249.351 303.834 249.998 C 304.479 253.836 304.446 253.831 308.147 253.779 C 308.916 253.768 309.702 253.799 310.455 253.946 C 311.193 254.089 312.48 254.317 312.528 254.659 C 312.9 257.32 314.795 256.184 316.146 256.608 C 315.759 266.232 319.197 274.683 322.67 282.998 C 326.585 292.367 331.677 301.091 339.172 307.922 C 343.812 312.15 348.433 316.541 353.609 319.962 C 362.101 325.579 371.173 330.174 380.682 333.931 C 381.449 335.131 382.043 336.372 382.98 337.179 C 384.302 338.316 384.002 339.412 383.702 340.867 C 383.399 342.342 383.113 344.342 383.814 345.387 C 384.71 346.721 386.106 348.753 388.421 347.263 C 388.612 347.139 388.965 347.323 389.232 347.289 C 391.774 346.959 392.869 349.009 394.134 350.699 C 392.504 350.652 390.986 350.557 389.488 350.315 C 385.694 349.697 381.909 349.013 378.121 348.355 C 372.831 346.599 367.517 344.911 362.255 343.071 C 352.816 339.77 343.74 335.585 335.367 329.958 C 331.677 327.478 328.38 324.365 324.715 321.338 C 319.339 314.798 315.687 307.457 311.865 300.045 C 311.384 298.901 310.932 297.913 310.543 296.899 C 309.595 294.429 308.829 291.87 307.711 289.486 C 305.695 285.183 301.635 284.276 297.651 283.342 M 335.796 306.95 C 334.145 307.475 334.291 308.767 334.768 309.987 C 334.91 310.352 335.74 310.424 336.255 310.63 C 336.349 309.6 336.463 308.574 336.517 307.542 C 336.525 307.404 336.235 307.249 335.796 306.95 Z" style="" transform="matrix(1, 0, 0, 1, -1.4210854715202004e-14, 0)"/>
  <path fill="#8E9EB0" opacity="1.000000" stroke="none" d="M 382.098 367.885 C 378.199 368.509 374.461 369.063 370.559 369.705 C 369.762 369.757 369.116 369.62 368.497 369.702 C 359.314 370.917 350.169 370.373 341.034 369.126 C 340.687 369.079 340.329 369.111 339.799 369.129 C 334.976 367.926 330.33 366.699 325.565 365.359 C 326.029 364.568 327.224 363.539 327.086 363.275 C 326.619 362.392 325.775 361.586 324.897 361.101 C 321.505 359.23 318.043 357.495 314.687 355.507 C 316.447 355.57 318.129 355.835 320.278 356.174 C 321.569 354.75 320.388 350.374 324.939 350.607 C 321.208 347.517 318.054 344.396 317.429 339.512 C 316.991 337.997 316.728 336.542 314.714 336.172 C 313.271 335.907 312.845 333.074 313.668 330.15 C 314.349 330.986 314.939 331.643 315.454 332.356 C 318.71 336.864 321.802 341.512 325.255 345.849 C 327.025 348.074 329.182 350.233 331.598 351.576 C 336.979 354.568 342.486 357.45 348.212 359.593 C 354.966 362.121 362.039 363.253 369.317 363.546 C 375.095 363.778 380.643 362.913 386.254 362.026 C 386.861 361.93 387.429 361.56 388.318 361.244 C 389.505 360.879 390.388 360.586 391.35 360.433 C 391.856 360.775 392.314 360.926 392.705 361.187 C 393.632 361.808 394.528 362.48 395.436 363.131 C 394.5 363.799 393.591 364.516 392.619 365.119 C 391.939 365.541 391.172 365.809 390.444 366.144 C 387.716 366.701 384.987 367.257 382.098 367.885 Z" style="" transform="matrix(1, 0, 0, 1, -1.4210854715202004e-14, 0)"/>
  <path fill="#A8B9C6" opacity="1.000000" stroke="none" d="M 311.923 300.189 C 315.687 307.457 319.339 314.798 324.591 321.268 C 322.078 320.874 319.505 320.328 316.924 319.827 C 315.333 319.518 313.719 319.005 313.396 321.671 C 313.248 322.899 312.136 323.069 311.305 322.208 C 310.624 321.502 310.131 320.577 309.642 319.696 C 308.702 318 308.113 316.006 306.014 315.366 C 305.891 315.329 305.791 315.189 305.693 315.083 C 302.517 311.69 300.942 310.967 296.407 309.323 C 294.122 308.493 292.127 306.795 289.845 305.46 C 291.161 301.824 292.633 298.218 294.404 294.508 C 295.266 294.414 295.832 294.45 296.394 294.431 C 298.984 294.342 301.384 294.523 303.033 297.167 C 303.596 298.07 304.998 299.192 305.764 299.016 C 307.652 298.582 309.242 298.312 310.711 299.935 C 310.941 300.189 311.511 300.112 311.923 300.189 Z" style="" transform="matrix(1, 0, 0, 1, -1.4210854715202004e-14, 0)"/>
  <path fill="#9AAAB9" opacity="1.000000" stroke="none" d="M 317.267 339.514 C 318.054 344.396 321.208 347.517 324.939 350.607 C 320.388 350.374 321.569 354.75 320.278 356.174 C 318.129 355.835 316.447 355.57 314.614 355.378 C 308.705 351.801 304.056 347.051 300.951 340.572 C 301.924 338.225 304.064 338.944 305.582 338.928 C 308.447 338.898 311.281 340.048 314.154 338.403 C 314.758 338.056 316.102 339.108 317.267 339.514 Z" style="" transform="matrix(1, 0, 0, 1, -1.4210854715202004e-14, 0)"/>
  <path fill="#A8B9C6" opacity="1.000000" stroke="none" d="M 391.271 360.293 C 390.388 360.586 389.505 360.879 388.463 361.172 C 388.254 360.741 388.353 360.061 388.129 359.913 C 385.158 357.945 384.666 353.899 381.838 351.841 C 381.413 351.532 380.819 350.988 380.487 351.108 C 378.083 351.975 378.048 350.44 378.12 348.542 C 381.909 349.013 385.694 349.697 389.488 350.315 C 390.986 350.557 392.504 350.652 394.234 350.699 C 394.455 350.583 394.656 350.587 394.652 350.754 C 394.409 351.238 394.228 351.741 393.925 351.841 C 392.571 352.283 392.745 353.297 393.296 354.082 C 394.197 355.366 395.333 356.472 396.273 357.771 C 394.541 358.689 392.907 359.491 391.271 360.293 Z" style="" transform="matrix(1, 0, 0, 1, -1.4210854715202004e-14, 0)"/>
  <path fill="#7F8FA4" opacity="1.000000" stroke="none" d="M 358.334 351.102 C 359.055 351.494 359.622 351.938 360.191 352.382 C 359.726 352.736 359.261 353.09 358.797 353.445 C 358.592 352.681 358.387 351.917 358.334 351.102 Z" style="" transform="matrix(1, 0, 0, 1, -1.4210854715202004e-14, 0)"/>
  <path fill="#9AAAB9" opacity="1.000000" stroke="none" d="M 300.096 338.962 C 299.9 338.742 299.757 338.4 299.611 337.909 C 299.788 338.12 299.968 338.479 300.096 338.962 Z" style="" transform="matrix(1, 0, 0, 1, -1.4210854715202004e-14, 0)"/>
  <path fill="#9AAAB9" opacity="1.000000" stroke="none" d="M 357.279 235.714 C 358.572 235.786 359.695 235.836 360.882 236.09 C 359.859 236.655 358.772 237.018 357.516 237.382 C 356.113 237.657 354.877 237.921 353.645 238.204 C 352.355 238.502 351.692 239.301 351.769 240.832 C 351.636 241.26 351.567 241.58 351.499 241.9 C 351.401 241.929 351.303 241.958 350.998 241.873 C 350.402 241.681 349.987 241.473 349.629 241.549 C 345.824 242.364 342.029 243.222 338.108 243.942 C 334.458 243.305 330.918 242.881 327.41 242.264 C 320.889 241.116 314.604 239.197 308.896 235.491 C 309.259 234.29 309.591 233.242 309.923 232.194 C 309.922 232.095 309.921 231.997 309.873 231.759 C 310.577 229.65 312.039 229.448 313.776 229.875 C 314.23 229.987 314.708 229.997 315.27 229.94 C 320.359 231.812 325.234 234.275 330.376 235.679 C 339.207 238.091 348.2 238.439 357.279 235.714 Z" style="" transform="matrix(1, 0, 0, 1, -1.4210854715202004e-14, 0)"/>
  <path fill="#B6C4CD" opacity="1.000000" stroke="none" d="M 311.865 300.045 C 311.511 300.112 310.941 300.189 310.711 299.935 C 309.242 298.312 307.652 298.582 305.764 299.016 C 304.998 299.192 303.596 298.07 303.033 297.167 C 301.384 294.523 298.984 294.342 296.394 294.431 C 295.832 294.45 295.266 294.414 294.489 294.39 C 295.351 290.789 296.426 287.202 297.576 283.479 C 301.635 284.276 305.695 285.183 307.711 289.486 C 308.829 291.87 309.595 294.429 310.543 296.899 C 310.932 297.913 311.384 298.901 311.865 300.045 M 304.98 292.745 C 303.682 293.184 303.159 294.094 303.829 295.359 C 304.037 295.751 304.842 295.799 305.373 296.006 C 305.457 295.028 305.549 294.053 305.609 293.075 C 305.614 292.998 305.403 292.906 304.98 292.745 Z" style="" transform="matrix(1, 0, 0, 1, -1.4210854715202004e-14, 0)"/>
  <path fill="#DFE2E2" opacity="1.000000" stroke="none" d="M 309.783 232.239 C 309.591 233.242 309.259 234.29 308.779 235.567 C 305.66 239.358 303.652 243.437 302.579 248.019 C 300.582 252.792 300.529 257.923 300.044 262.972 C 299.891 264.565 299.801 266.167 299.575 267.747 C 299.521 268.123 299.035 268.434 298.584 268.782 C 297.901 258.702 299.163 248.956 303.784 239.918 C 305.267 237.017 306.676 233.981 309.783 232.239 Z" style="" transform="matrix(1, 0, 0, 1, -1.4210854715202004e-14, 0)"/>
  <path fill="#DFE2E2" opacity="1.000000" stroke="none" d="M 298.421 269.881 C 298.556 270.529 298.671 271.364 298.654 272.258 C 298.482 271.568 298.441 270.818 298.421 269.881 Z" style="" transform="matrix(1, 0, 0, 1, -1.4210854715202004e-14, 0)"/>
  <path fill="#94A5B4" opacity="1.000000" stroke="none" d="M 403.616 289.583 C 404.531 296.221 405.766 302.761 408.193 309.031 C 410.807 315.784 414.174 322.024 418.938 327.56 C 418.243 328.82 417.741 329.878 418.73 331.249 C 419.673 332.557 418.755 333.259 417.61 333.052 C 416.11 332.781 415.581 333.199 415.359 334.74 C 415.282 335.274 414.324 335.672 413.446 336.399 C 413.532 338.096 412.365 338.759 410.371 338.708 C 409.681 338.689 408.972 339.446 408.099 339.885 C 407.925 339.923 407.854 339.946 407.857 339.755 C 407.552 336.31 407.244 333.054 406.944 329.617 C 406.243 325.574 405.532 321.712 404.821 317.851 C 404.106 312.645 403.304 307.449 402.706 302.228 C 402.291 298.603 402.157 294.943 402.008 290.988 C 402.617 290.312 403.116 289.948 403.616 289.583 Z" style="" transform="matrix(1, 0, 0, 1, -1.4210854715202004e-14, 0)"/>
  <path fill="#CAD4DC" opacity="1.000000" stroke="none" d="M 394.656 350.587 C 394.656 350.587 394.455 350.583 394.354 350.583 C 392.869 349.009 391.774 346.959 389.232 347.289 C 388.965 347.323 388.612 347.139 388.421 347.263 C 386.106 348.753 384.71 346.721 383.814 345.387 C 383.113 344.342 383.399 342.342 383.702 340.867 C 384.002 339.412 384.302 338.316 382.98 337.179 C 382.043 336.372 381.449 335.131 380.843 333.934 C 384.765 334.974 388.493 336.434 392.343 337.285 C 397.462 338.42 402.679 339.081 407.854 339.946 C 407.854 339.946 407.925 339.923 407.963 339.933 C 407.957 340.138 407.913 340.332 407.789 340.723 C 407.685 340.97 407.627 341.04 407.641 341.063 C 407.694 341.153 407.771 341.228 407.839 341.309 C 407.864 341.386 407.891 341.465 407.915 341.792 C 407.911 342.222 407.907 342.403 407.917 342.657 C 408.031 342.69 408.131 342.65 408.37 342.604 C 408.69 342.574 408.874 342.549 409.056 342.523 C 409.388 342.453 409.718 342.381 410.36 342.242 C 408.436 346.074 405.503 348.472 402.278 350.977 C 401.027 351.874 399.983 352.583 398.83 353.181 C 397.336 349.973 397.199 349.889 394.656 350.587 Z" style="" transform="matrix(1, 0, 0, 1, -1.4210854715202004e-14, 0)"/>
  <path fill="#9AAAB9" opacity="1.000000" stroke="none" d="M 398.94 353.292 C 399.983 352.583 401.027 351.874 402.198 351.097 C 403.328 351.469 404.063 351.651 405.079 350.584 C 406.708 348.874 410.129 350.712 410.317 353.366 C 410.452 355.281 410.801 357.341 408.934 358.821 C 408.513 359.156 408.47 360.008 408.23 360.803 C 403.241 362.551 398.273 364.119 393.132 365.723 C 392.231 365.883 391.501 366.007 390.608 366.138 C 391.172 365.809 391.939 365.541 392.619 365.119 C 393.591 364.516 394.5 363.799 395.436 363.131 C 394.528 362.48 393.632 361.808 392.705 361.187 C 392.314 360.926 391.856 360.775 391.35 360.433 C 392.907 359.491 394.541 358.689 396.421 357.745 C 398.283 356.464 399.903 355.325 401.617 354.162 C 401.816 354.065 401.919 353.992 402.021 353.92 C 401.818 353.962 401.614 354.006 401.227 354.058 C 400.19 354.079 399.335 354.092 398.482 354.106 C 398.484 354.108 398.489 354.112 398.537 354.004 C 398.704 353.694 398.822 353.493 398.94 353.292 M 402.9 353.436 C 402.9 353.436 402.945 353.409 402.9 353.436 Z" style="" transform="matrix(1, 0, 0, 1, -1.4210854715202004e-14, 0)"/>
  <path fill="#94A5B4" opacity="1.000000" stroke="none" d="M 409.035 342.394 C 408.874 342.549 408.69 342.574 408.288 342.599 C 408.067 342.599 407.903 342.585 407.903 342.585 C 407.907 342.403 407.911 342.222 407.951 341.91 C 408.331 341.941 408.673 342.103 409.035 342.394 Z" style="" transform="matrix(1, 0, 0, 1, -1.4210854715202004e-14, 0)"/>
  <path fill="#DBE0E2" opacity="1.000000" stroke="none" d="M 407.843 341.187 C 407.771 341.228 407.694 341.153 407.641 341.063 C 407.627 341.04 407.685 340.97 407.776 340.872 C 407.844 340.905 407.844 340.987 407.843 341.187 Z" style="" transform="matrix(1, 0, 0, 1, -1.4210854715202004e-14, 0)"/>
  <path fill="#191919" opacity="1.000000" stroke="none" d="M 306.205 208.912 C 307.989 209.277 309.611 209.585 311.206 210.004 C 312.156 210.254 313.065 210.675 314.013 211.192 C 302.875 211.366 291.717 211.383 280.56 211.353 C 279.234 211.349 277.907 211.086 276.582 210.942 C 276.54 210.731 276.498 210.52 276.455 210.309 C 277.65 209.955 278.826 209.405 280.042 209.277 C 288.692 208.362 297.352 207.64 306.205 208.912 Z" style="" transform="matrix(1, 0, 0, 1, -1.4210854715202004e-14, 0)"/>
  <path fill="#FBFBF4" opacity="1.000000" stroke="none" d="M 280.304 206.911 C 279.844 204.173 281.874 203.108 283.69 202.794 C 287.602 202.114 291.604 201.974 295.575 201.72 C 295.895 201.7 296.263 202.498 296.588 203.087 C 296.568 203.258 296.57 203.278 296.433 203.293 C 296.125 203.355 295.951 203.402 295.778 203.45 C 291.652 204.541 287.533 205.666 283.394 206.699 C 282.465 206.931 281.461 206.846 280.304 206.911 Z" style="" transform="matrix(1, 0, 0, 1, -1.4210854715202004e-14, 0)"/>
  <path fill="#F6BCB0" opacity="1.000000" stroke="none" d="M 295.807 203.573 C 295.951 203.402 296.125 203.355 296.432 203.303 C 296.476 203.545 296.388 203.79 296.3 204.036 C 296.144 203.923 295.99 203.81 295.807 203.573 Z" style="" transform="matrix(1, 0, 0, 1, -1.4210854715202004e-14, 0)"/>
  <path fill="#AE4F4C" opacity="1.000000" stroke="none" d="M 277.144 213.101 C 277.1 213.04 277.049 212.982 276.999 212.925 C 277.033 212.949 277.067 212.971 277.115 213.056 C 277.13 213.12 277.139 213.107 277.144 213.101 Z" style="" transform="matrix(1, 0, 0, 1, -1.4210854715202004e-14, 0)"/>
  <path fill="#DBE0E2" opacity="1.000000" stroke="none" d="M 407.857 339.755 C 402.679 339.081 397.462 338.42 392.343 337.285 C 388.493 336.434 384.765 334.974 380.823 333.782 C 371.173 330.174 362.101 325.579 353.609 319.962 C 348.433 316.541 343.812 312.15 339.172 307.922 C 331.677 301.091 326.585 292.367 322.67 282.998 C 319.197 274.683 315.759 266.232 316.156 256.44 C 316.308 252.279 322.411 249.786 326.352 250.213 C 322.73 253.89 321.079 258.395 321.765 263.583 C 322.729 270.852 325.15 277.612 328.786 283.937 C 333.285 291.767 339.303 298.02 346.447 303.183 C 346.62 303.308 346.78 303.465 346.968 303.555 C 347.899 304.004 348.838 304.434 350.14 305.041 C 347.805 300.276 344.167 296.308 345.258 290.832 C 345.466 290.749 345.674 290.666 345.881 290.583 C 346.97 292.818 348.002 295.087 349.161 297.282 C 350.889 300.552 352.424 303.992 354.561 306.951 C 356.865 310.143 360.635 311.175 364.426 312.267 C 363.034 309.717 361.642 307.167 360.249 304.617 C 360.429 304.49 360.61 304.363 360.79 304.235 C 363.98 306.389 366.785 309.096 368.435 312.659 C 369.432 314.808 370.847 315.742 372.919 316.626 C 373.926 317.933 374.851 319.338 376.312 318.666 C 378.308 317.749 379.686 318.453 381.084 319.757 C 381.277 319.937 381.679 319.888 381.849 320.076 C 382.606 320.919 383.828 321.748 383.933 322.696 C 384.162 324.745 384.869 325.157 386.686 324.719 C 390.521 323.795 392.073 324.734 393.965 328.445 C 394.3 329.104 395.335 329.604 396.117 329.741 C 397.491 329.982 399.232 329.367 400.265 330.038 C 402.699 331.621 404.757 331.167 406.935 329.797 C 407.244 333.054 407.552 336.31 407.857 339.755 Z" style="" transform="matrix(1, 0, 0, 1, -1.4210854715202004e-14, 0)"/>
  <path fill="#B6C4CD" opacity="1.000000" stroke="none" d="M 326.497 250.185 C 322.411 249.786 316.308 252.279 316.146 256.233 C 314.795 256.184 312.9 257.32 312.528 254.659 C 312.48 254.317 311.193 254.089 310.455 253.946 C 309.702 253.799 308.916 253.768 308.147 253.779 C 304.446 253.831 304.479 253.836 303.834 249.998 C 303.725 249.351 303.193 248.778 302.718 248.096 C 303.652 243.437 305.66 239.358 308.749 235.72 C 314.604 239.197 320.889 241.116 327.41 242.264 C 330.918 242.881 334.458 243.305 338.009 244.057 C 335.838 245.392 333.643 246.488 331.447 247.582 C 329.845 248.442 328.243 249.3 326.497 250.185 Z" style="" transform="matrix(1, 0, 0, 1, -1.4210854715202004e-14, 0)"/>
  <path fill="#DFE2E2" opacity="1.000000" stroke="none" d="M 406.944 329.617 C 404.757 331.167 402.699 331.621 400.265 330.038 C 399.232 329.367 397.491 329.982 396.117 329.741 C 395.335 329.604 394.3 329.104 393.965 328.445 C 392.073 324.734 390.521 323.795 386.686 324.719 C 384.869 325.157 384.162 324.745 383.933 322.696 C 383.828 321.748 382.606 320.919 381.849 320.076 C 381.679 319.888 381.277 319.937 381.084 319.757 C 379.686 318.453 378.308 317.749 376.312 318.666 C 374.851 319.338 373.926 317.933 373.056 316.692 C 374.696 316.698 374.933 315.832 374.545 314.368 C 374.224 313.161 374.052 311.911 373.813 310.679 C 374.107 310.515 374.399 310.349 374.692 310.184 C 376.441 312.374 378.473 314.388 379.864 316.803 C 381.37 319.417 383.814 319.318 386.042 319.95 C 386.242 320.007 386.858 319.169 386.985 318.666 C 387.248 317.629 387.311 316.537 387.456 315.468 C 387.667 315.325 387.877 315.181 388.088 315.039 C 389.543 316.515 391.151 317.865 392.402 319.509 C 393.343 320.746 394.192 321.196 395.627 320.711 C 398.567 319.715 401.533 318.806 404.655 317.856 C 405.532 321.712 406.243 325.574 406.944 329.617 Z" style="" transform="matrix(1, 0, 0, 1, -1.4210854715202004e-14, 0)"/>
  <path fill="#A8B9C6" opacity="1.000000" stroke="none" d="M 403.642 289.413 C 403.116 289.948 402.617 290.312 402.017 290.783 C 401.983 289.425 402.049 287.958 402.26 286.238 C 402.293 285.712 402.181 285.44 402.068 285.168 C 402.375 280.877 402.68 276.585 402.992 272.294 C 403.034 271.71 403.118 271.131 403.193 270.365 C 403.901 270.547 404.599 270.913 405.31 271.452 C 405.059 273.496 404.712 275.362 404.549 277.246 C 404.205 281.24 403.958 285.243 403.642 289.413 Z" style="" transform="matrix(1, 0, 0, 1, -1.4210854715202004e-14, 0)"/>
  <path fill="#DBE0E2" opacity="1.000000" stroke="none" d="M 331.479 247.733 C 333.643 246.488 335.838 245.392 338.132 244.183 C 342.029 243.222 345.824 242.364 349.629 241.549 C 349.987 241.473 350.402 241.681 350.853 241.923 C 349.201 242.678 347.489 243.274 345.771 243.854 C 341.699 245.227 337.633 246.62 333.541 247.928 C 332.927 248.124 332.191 247.908 331.479 247.733 Z" style="" transform="matrix(1, 0, 0, 1, -1.4210854715202004e-14, 0)"/>
  <path fill="#9AAAB9" opacity="1.000000" stroke="none" d="M 362.82 238.252 C 363.218 238.202 363.617 238.153 364.242 238.231 C 364.495 238.52 364.522 238.683 364.547 238.846 C 361.387 239.575 358.227 240.302 354.955 240.946 C 355.106 240.597 355.369 240.334 355.725 239.956 C 356.481 239.606 357.142 239.371 357.967 239.108 C 359.694 238.803 361.257 238.527 362.82 238.252 Z" style="" transform="matrix(1, 0, 0, 1, -1.4210854715202004e-14, 0)"/>
  <path fill="#DBE0E2" opacity="1.000000" stroke="none" d="M 385.934 311.962 C 386.202 311.528 386.712 310.943 386.822 311.016 C 387.361 311.375 387.847 311.868 388.224 312.409 C 388.306 312.527 387.87 313.037 387.672 313.366 C 387.11 312.951 386.55 312.534 385.934 311.962 Z" style="" transform="matrix(1, 0, 0, 1, -1.4210854715202004e-14, 0)"/>
  <path fill="#DBE0E2" opacity="1.000000" stroke="none" d="M 355.631 240.071 C 355.369 240.334 355.106 240.597 354.78 240.993 C 353.754 241.379 352.79 241.633 351.663 241.893 C 351.567 241.58 351.636 241.26 351.946 240.797 C 353.335 240.459 354.482 240.266 355.631 240.071 Z" style="" transform="matrix(1, 0, 0, 1, -1.4210854715202004e-14, 0)"/>
  <path fill="#61627C" opacity="1.000000" stroke="none" d="M 364.696 238.821 C 364.522 238.683 364.495 238.52 364.443 238.235 C 364.83 238.078 365.245 238.042 365.74 238.15 C 365.495 238.462 365.171 238.628 364.696 238.821 Z" style="" transform="matrix(1, 0, 0, 1, -1.4210854715202004e-14, 0)"/>
  <path fill="#94A5B4" opacity="1.000000" stroke="none" d="M 402.083 285.341 C 402.181 285.44 402.293 285.712 402.311 286.093 C 402.177 285.972 402.137 285.743 402.083 285.341 Z" style="" transform="matrix(1, 0, 0, 1, -1.4210854715202004e-14, 0)"/>
  <path fill="#0F1726" opacity="1.000000" stroke="none" d="M 345.831 208.359 C 340.239 209.937 336.538 208.059 334.876 202.465 C 334.826 201.531 334.746 200.942 334.791 200.363 C 335.116 196.123 338.82 192.713 342.973 192.802 C 347.369 192.896 350.384 195.941 350.618 200.496 C 350.814 204.31 348.739 206.605 345.831 208.359 M 347.147 196.56 C 346.535 196.089 345.978 195.441 345.291 195.208 C 344.862 195.063 343.77 195.571 343.779 195.738 C 343.828 196.631 343.907 197.702 344.411 198.332 C 344.836 198.864 345.979 199.229 346.572 199.004 C 347.009 198.839 347.073 197.604 347.147 196.56 Z" style="" transform="matrix(1, 0, 0, 1, -1.4210854715202004e-14, 0)"/>
  <path fill="#DBE0E2" opacity="1.000000" stroke="none" d="M 345.852 208.535 C 348.739 206.605 350.814 204.31 350.618 200.496 C 350.384 195.941 347.369 192.896 342.973 192.802 C 338.82 192.713 335.116 196.123 334.791 200.363 C 334.746 200.942 334.826 201.531 334.829 202.31 C 333.966 202.793 333.124 203.313 332.277 203.324 C 330.038 203.354 329.332 202.208 330.195 200.072 C 332.15 195.231 337.364 189.473 344.476 190.056 C 350.458 190.547 355.028 197.978 352.536 203.671 C 351.49 206.062 350.165 208.163 347.704 209.106 C 347.207 209.296 346.489 208.859 345.852 208.535 Z" style="" transform="matrix(1, 0, 0, 1, -1.4210854715202004e-14, 0)"/>
  <path fill="#FCFCF4" opacity="1.000000" stroke="none" d="M 424.578 322.103 C 424.52 322.199 424.447 322.293 424.372 322.389 C 424.379 322.31 424.385 322.23 424.477 322.11 C 424.563 322.069 424.563 322.102 424.578 322.103 Z" style="" transform="matrix(1, 0, 0, 1, -1.4210854715202004e-14, 0)"/>
  <path fill="#61627C" opacity="1.000000" stroke="none" d="M 362.915 238.085 C 361.257 238.527 359.694 238.803 357.938 238.935 C 357.725 238.321 357.705 237.85 357.685 237.38 C 358.772 237.018 359.859 236.655 361.051 236.176 C 361.154 236.059 361.145 236.086 361.259 236.078 C 361.688 235.971 362.004 235.872 362.319 235.773 C 363.142 235.634 363.965 235.495 364.734 235.365 C 364.161 236.215 363.584 237.067 362.915 238.085 Z" style="" transform="matrix(1, 0, 0, 1, -1.4210854715202004e-14, 0)"/>
  <path fill="#9AAAB9" opacity="1.000000" stroke="none" d="M 362.181 235.724 C 362.004 235.872 361.688 235.971 361.246 236.074 C 361.427 235.943 361.735 235.809 362.181 235.724 Z" style="" transform="matrix(1, 0, 0, 1, -1.4210854715202004e-14, 0)"/>
  <path fill="#61627C" opacity="1.000000" stroke="none" d="M 311.792 369.484 C 311.557 369.574 311.262 369.559 310.821 369.51 C 311.027 369.444 311.379 369.412 311.792 369.484 Z" style="" transform="matrix(1, 0, 0, 1, -1.4210854715202004e-14, 0)"/>
  <path fill="#F6BCB0" opacity="1.000000" stroke="none" d="M 393.66 377.01 C 393.771 377.708 393.811 378.269 393.879 379.227 C 392.08 377.365 390.429 375.899 389.103 374.162 C 388.579 373.476 388.78 372.189 388.651 371.175 C 389.737 371.388 391.363 371.222 391.797 371.892 C 392.721 373.321 393.027 375.185 393.66 377.01 Z" style="" transform="matrix(1, 0, 0, 1, -1.4210854715202004e-14, 0)"/>
  <path fill="#F6BCB0" opacity="1.000000" stroke="none" d="M 375.779 376.978 C 376.259 375.615 376.885 374.252 377.602 372.771 C 378.594 372.535 379.498 372.321 380.396 372.346 C 380.772 372.356 381.358 372.818 381.439 373.175 C 381.51 373.496 381.111 374.118 380.764 374.324 C 379.181 375.262 377.543 376.102 375.779 376.978 Z" style="" transform="matrix(1, 0, 0, 1, -1.4210854715202004e-14, 0)"/>
  <path fill="#923C3C" opacity="1.000000" stroke="none" d="M 389.569 377.783 C 388.772 377.454 387.967 376.969 387.106 376.352 C 387.887 376.688 388.724 377.157 389.569 377.783 Z" style="" transform="matrix(1, 0, 0, 1, -1.4210854715202004e-14, 0)"/>
  <path fill="#923C3C" opacity="1.000000" stroke="none" d="M 386.897 376.067 C 385.99 376.2 384.973 376.205 383.762 376.19 C 384.641 376.094 385.715 376.017 386.897 376.067 Z" style="" transform="matrix(1, 0, 0, 1, -1.4210854715202004e-14, 0)"/>
  <path fill="#923C3C" opacity="1.000000" stroke="none" d="M 383.112 376.197 C 382.781 376.35 382.288 376.493 381.635 376.622 C 381.966 376.468 382.457 376.327 383.112 376.197 Z" style="" transform="matrix(1, 0, 0, 1, -1.4210854715202004e-14, 0)"/>
  <path fill="#0F1726" opacity="1.000000" stroke="none" d="M 372.275 373.048 C 372.192 373.08 372.016 373.011 371.791 372.803 C 371.887 372.758 372.035 372.853 372.275 373.048 Z" style="" transform="matrix(1, 0, 0, 1, -1.4210854715202004e-14, 0)"/>
  <path fill="#A1B2C1" opacity="1.000000" stroke="none" d="M 335.939 307.026 C 336.235 307.249 336.525 307.404 336.517 307.542 C 336.463 308.574 336.349 309.6 336.255 310.63 C 335.74 310.424 334.91 310.352 334.768 309.987 C 334.291 308.767 334.145 307.475 335.939 307.026 Z" style="" transform="matrix(1, 0, 0, 1, -1.4210854715202004e-14, 0)"/>
  <path fill="#B6C4CD" opacity="1.000000" stroke="none" d="M 398.83 353.181 C 398.822 353.493 398.704 353.694 398.49 354.026 C 398.394 354.154 398.386 354.281 398.386 354.281 C 398.386 354.281 398.481 354.103 398.481 354.103 C 399.335 354.092 400.19 354.079 401.255 354.093 C 401.465 354.118 401.521 354.185 401.521 354.185 C 399.903 355.325 398.283 356.464 396.517 357.628 C 395.333 356.472 394.197 355.366 393.296 354.082 C 392.745 353.297 392.571 352.283 393.925 351.841 C 394.228 351.741 394.409 351.238 394.652 350.754 C 397.199 349.889 397.336 349.973 398.83 353.181 Z" style="" transform="matrix(1, 0, 0, 1, -1.4210854715202004e-14, 0)"/>
  <path fill="#7F8FA4" opacity="1.000000" stroke="none" d="M 357.516 237.382 C 357.705 237.85 357.725 238.321 357.773 238.964 C 357.142 239.371 356.481 239.606 355.725 239.956 C 354.482 240.266 353.335 240.459 352.011 240.688 C 351.692 239.301 352.355 238.502 353.645 238.204 C 354.877 237.921 356.113 237.657 357.516 237.382 Z" style="" transform="matrix(1, 0, 0, 1, -1.4210854715202004e-14, 0)"/>
  <path fill="#A8B9C6" opacity="1.000000" stroke="none" d="M 305.136 292.783 C 305.403 292.906 305.614 292.998 305.609 293.075 C 305.549 294.053 305.457 295.028 305.373 296.006 C 304.842 295.799 304.037 295.751 303.829 295.359 C 303.159 294.094 303.682 293.184 305.136 292.783 Z" style="" transform="matrix(1, 0, 0, 1, -1.4210854715202004e-14, 0)"/>
  <path fill="#A1B2C1" opacity="1.000000" stroke="none" d="M 407.917 342.657 C 407.903 342.585 408.067 342.599 408.15 342.604 C 408.131 342.65 408.031 342.69 407.917 342.657 Z" style="" transform="matrix(1, 0, 0, 1, -1.4210854715202004e-14, 0)"/>
  <path fill="#B6C4CD" opacity="1.000000" stroke="none" d="M 401.438 354.083 C 401.614 354.006 401.818 353.962 402.021 353.92 C 401.919 353.992 401.816 354.065 401.617 354.162 C 401.521 354.185 401.465 354.118 401.438 354.083 Z" style="" transform="matrix(1, 0, 0, 1, -1.4210854715202004e-14, 0)"/>
  <path fill="#B6C4CD" opacity="1.000000" stroke="none" d="M 402.922 353.422 C 402.945 353.409 402.9 353.436 402.922 353.422 Z" style="" transform="matrix(1, 0, 0, 1, -1.4210854715202004e-14, 0)"/>
  <path fill="#DFE2E2" opacity="1.000000" stroke="none" d="M 347.225 196.703 C 347.073 197.604 347.009 198.839 346.572 199.004 C 345.979 199.229 344.836 198.864 344.411 198.332 C 343.907 197.702 343.828 196.631 343.779 195.738 C 343.77 195.571 344.862 195.063 345.291 195.208 C 345.978 195.441 346.535 196.089 347.225 196.703 Z" style="" transform="matrix(1, 0, 0, 1, -1.4210854715202004e-14, 0)"/>
  <path fill="#9AAAB9" opacity="1.000000" stroke="none" d="M 398.482 354.106 C 398.481 354.103 398.386 354.281 398.386 354.281 C 398.386 354.281 398.394 354.154 398.442 354.133 C 398.489 354.112 398.484 354.108 398.482 354.106 Z" style="" transform="matrix(1, 0, 0, 1, -1.4210854715202004e-14, 0)"/>
</svg>