<svg version="1.1" id="Layer_1" xmlns="http://www.w3.org/2000/svg" xmlns:xlink="http://www.w3.org/1999/xlink" x="0px" y="0px"
	 width="100%" viewBox="0 0 635 635" enable-background="new 0 0 635 635" xml:space="preserve">
<path fill="#FFFFFF" opacity="1.000000" stroke="none" 
	d="
M636.000000,226.000000 
	C636.000000,361.499969 635.981873,496.499969 636.094177,631.499878 
	C636.097290,635.249268 635.249451,636.095459 631.500000,636.093567 
	C422.833435,635.988281 214.166809,635.988220 5.500233,636.093506 
	C1.751406,636.095398 0.904527,635.249878 0.906420,631.500122 
	C1.011756,422.833557 1.011723,214.166931 0.906511,5.500347 
	C0.904621,1.751806 1.749722,0.904506 5.499746,0.906399 
	C214.166321,1.011751 422.832947,1.011729 631.499512,0.906532 
	C635.247742,0.904643 636.102295,1.748498 636.095703,5.499753 
	C635.966919,78.832993 636.000000,152.166534 636.000000,226.000000 
z"/>
<path fill="#060606" opacity="1.000000" stroke="none" 
	d="
M208.914597,390.008545 
	C208.914597,387.346893 208.914337,385.183929 208.914642,383.020935 
	C208.915451,377.219513 211.380203,375.482208 216.927750,376.957703 
	C219.462433,377.631866 217.546219,379.997742 218.935562,380.931732 
	C231.696075,369.420502 244.872833,380.001862 245.577759,392.330261 
	C245.799698,396.211609 245.569366,399.983490 244.649689,403.702972 
	C242.087952,414.063690 230.647400,421.138214 218.928802,411.414398 
	C218.928802,416.607330 218.701721,421.573486 218.993103,426.509094 
	C219.280563,431.377930 215.861099,429.642883 213.621185,429.794617 
	C211.298859,429.951965 208.721817,430.724518 208.819595,426.443878 
	C209.093124,414.470520 208.914673,402.486816 208.914597,390.008545 
z"/>
<path fill="#060606" opacity="1.000000" stroke="none" 
	d="
M362.969025,442.177307 
	C368.997131,430.861664 378.371063,428.863190 388.165466,437.205536 
	C388.165466,432.442047 388.510376,428.208893 388.071411,424.058624 
	C387.603577,419.635315 390.023621,419.705872 393.104584,419.817169 
	C395.900604,419.918121 398.394257,419.176697 398.274170,423.851807 
	C397.911163,437.982788 398.212891,452.129913 398.042023,466.268127 
	C398.023651,467.790222 399.823212,470.965546 396.375854,470.868500 
	C393.340485,470.783020 389.009521,473.247986 387.783783,467.781708 
	C376.469391,476.298187 364.202606,471.224976 361.868011,457.297089 
	C361.027161,452.280609 361.136658,447.373138 362.969025,442.177307 
z"/>
<path fill="#0A0A0A" opacity="1.000000" stroke="none" 
	d="
M247.290680,268.635864 
	C247.287399,253.341125 247.496368,238.509949 247.168182,223.690674 
	C247.060211,218.815659 249.902298,219.908264 252.542892,219.848541 
	C255.154556,219.789459 257.884827,219.153702 257.419708,223.596420 
	C256.989746,227.703262 257.328125,231.890533 257.328125,236.693924 
	C261.013031,234.032532 264.298737,231.960129 268.483826,232.009354 
	C275.912506,232.096741 281.141174,236.255112 281.556091,243.594131 
	C282.025543,251.897781 281.712738,260.244537 281.800629,268.571899 
	C281.817596,270.180695 281.383301,270.835541 279.614380,271.072601 
	C272.442291,272.033661 271.748322,271.519196 271.747284,264.348602 
	C271.746490,258.851135 271.805389,253.352692 271.720367,247.856506 
	C271.661133,244.027328 270.517181,240.832184 265.953674,240.582825 
	C261.511871,240.340118 258.483521,242.326157 257.765442,246.841278 
	C256.740295,253.287323 257.647369,259.813507 257.259705,266.287292 
	C257.165955,267.853180 258.536469,270.870148 256.007965,270.776947 
	C253.166824,270.672241 249.415405,273.318878 247.290680,268.635864 
z"/>
<path fill="#090909" opacity="1.000000" stroke="none" 
	d="
M371.110168,78.134918 
	C366.427643,76.719955 362.601593,75.857437 359.565460,80.922386 
	C357.777466,83.905098 353.458984,82.793587 350.898438,81.896118 
	C348.525818,81.064514 350.691101,78.137283 351.383423,76.382889 
	C352.744965,72.932655 355.580994,70.932983 359.165741,69.984184 
	C362.917389,68.991211 366.733093,68.740883 370.554443,69.226311 
	C379.434143,70.354301 382.702606,74.121666 382.727020,83.052155 
	C382.741577,88.377846 382.712158,93.703705 382.738739,99.029305 
	C382.753479,101.981247 382.351715,105.044914 386.111725,108.015663 
	C381.926453,108.015663 379.172974,108.019135 376.419495,108.012482 
	C375.922211,108.011276 375.073975,108.129181 374.978943,107.921539 
	C372.305939,102.080948 369.590668,107.133820 366.988129,107.920105 
	C361.820984,109.481201 356.804901,109.838829 352.275940,106.314575 
	C348.714478,103.543175 348.189026,99.642708 348.831573,95.483780 
	C349.609619,90.447868 353.158569,87.150581 359.061768,86.067039 
	C362.330505,85.467064 365.661591,85.202393 368.925385,84.580841 
	C372.795837,83.843765 374.211426,81.896278 371.110168,78.134918 
z"/>
<path fill="#070707" opacity="1.000000" stroke="none" 
	d="
M463.097107,96.825333 
	C463.195984,100.736374 462.482208,104.323692 465.131317,107.608955 
	C460.995850,106.811043 455.836182,111.107964 453.257996,104.223061 
	C449.692780,107.177498 445.768463,109.109390 441.035217,109.021606 
	C434.347565,108.897575 429.753601,105.247391 429.083405,99.369743 
	C428.366608,93.083130 431.804657,87.962578 438.189270,86.400482 
	C441.727875,85.534706 445.419830,85.314240 449.019379,84.672188 
	C451.152405,84.291725 453.516632,83.906219 453.183350,80.821716 
	C452.889526,78.102577 450.812012,77.342522 448.574799,77.126060 
	C445.157806,76.795448 441.879974,76.908974 440.155884,80.788086 
	C439.570038,82.106148 432.038330,83.176628 431.152405,82.002876 
	C429.796906,80.207001 431.053497,78.318375 431.780426,76.572250 
	C433.147125,73.289291 435.665344,71.178787 439.004517,70.172905 
	C443.035950,68.958504 447.201569,68.674294 451.365112,69.274033 
	C460.099640,70.532211 463.080475,74.041054 463.095398,82.865326 
	C463.102997,87.359673 463.096954,91.854034 463.097107,96.825333 
z"/>
<path fill="#090909" opacity="1.000000" stroke="none" 
	d="
M530.262390,463.912903 
	C532.357300,464.075409 534.373047,464.197968 535.401123,462.915283 
	C538.845398,458.618011 543.394226,460.150391 547.712341,459.994019 
	C546.189331,467.435333 540.169861,471.902466 531.695740,472.009155 
	C521.901794,472.132446 514.972961,467.215454 513.095459,458.719940 
	C512.110107,454.261444 512.165405,449.753143 513.257263,445.338226 
	C515.674255,435.564972 524.479370,430.305603 534.774963,432.339661 
	C543.781677,434.119080 549.870178,442.983643 548.933655,452.514496 
	C548.674133,455.155945 547.151611,454.822601 545.515686,454.824707 
	C539.352722,454.832672 533.189087,454.777618 527.027405,454.867188 
	C525.651245,454.887207 523.740417,454.018829 522.982666,455.632721 
	C522.248230,457.196930 523.269592,458.849670 524.127991,460.291565 
	C525.420044,462.461914 527.506287,463.395630 530.262390,463.912903 
z"/>
<path fill="#060606" opacity="1.000000" stroke="none" 
	d="
M547.818970,75.234833 
	C553.361572,83.182632 553.896179,93.813683 549.328857,100.854500 
	C545.256531,107.132225 537.265686,110.259193 529.174316,108.741394 
	C521.279114,107.260391 515.757202,101.789238 514.230469,93.934906 
	C512.483582,84.948120 515.497681,76.422379 521.917419,72.191383 
	C528.389709,67.925751 538.264465,67.967102 544.577271,72.346230 
	C545.661682,73.098457 546.585632,74.081955 547.818970,75.234833 
z"/>
<path fill="#0A0A0A" opacity="1.000000" stroke="none" 
	d="
M471.286926,453.997925 
	C471.287048,447.999359 471.322937,442.500000 471.269958,437.001495 
	C471.248230,434.746521 470.990662,432.316254 474.418579,433.041718 
	C477.016144,433.591461 481.782104,430.551483 480.984894,437.677002 
	C485.048645,433.568939 489.253479,431.360016 494.568176,432.146393 
	C500.880371,433.080444 505.157532,436.864746 505.507843,443.202545 
	C505.976196,451.675690 505.693329,460.189117 505.802460,468.684387 
	C505.824493,470.396179 505.161469,470.862915 503.499023,471.066376 
	C496.200378,471.959961 495.748322,471.624451 495.747253,464.231049 
	C495.746490,458.732056 495.816284,453.231720 495.716217,447.734528 
	C495.646179,443.886688 494.407257,440.733582 489.842712,440.568451 
	C485.419037,440.408325 482.122314,442.382690 481.788879,446.936981 
	C481.291412,453.731537 481.123260,460.589691 481.449860,467.390289 
	C481.646729,471.490509 479.446075,471.271057 476.898254,470.980896 
	C474.549866,470.713440 470.829376,472.724579 471.221313,467.490143 
	C471.543915,463.181763 471.287018,458.830017 471.286926,453.997925 
z"/>
<path fill="#070707" opacity="1.000000" stroke="none" 
	d="
M144.295898,238.203964 
	C143.106598,232.216553 146.941483,233.247330 150.181351,232.926514 
	C153.930405,232.555298 154.460922,234.152313 154.392700,237.421661 
	C154.188141,247.227081 154.340530,257.039612 154.301285,266.849152 
	C154.293457,268.807495 155.184479,271.680023 151.452164,270.971954 
	C148.828659,270.474243 144.231918,273.358215 144.776703,266.393494 
	C140.814835,270.347961 136.773880,272.512238 131.652985,271.972382 
	C126.061462,271.382904 122.013519,268.477692 120.959183,263.155853 
	C119.102867,253.785965 120.514488,244.259644 120.132317,234.810303 
	C120.064232,233.126968 121.185799,233.140091 122.421707,232.984482 
	C129.751129,232.061539 130.142822,232.382706 130.144485,239.799179 
	C130.145721,245.285934 130.143478,250.772720 130.154739,256.259460 
	C130.163467,260.506287 131.873123,263.355316 136.483276,263.545715 
	C140.627625,263.716797 143.835129,261.018707 144.075668,256.627838 
	C144.402634,250.659271 144.245438,244.664169 144.295898,238.203964 
z"/>
<path fill="#080808" opacity="1.000000" stroke="none" 
	d="
M198.396545,245.484604 
	C198.406296,253.261337 198.214630,260.597198 198.478119,267.916687 
	C198.643311,272.505371 195.483948,270.939484 193.428329,270.926025 
	C191.373276,270.912628 188.147736,272.533875 188.316101,267.939758 
	C188.553833,261.452423 188.436646,254.948990 188.353638,248.453949 
	C188.280685,242.745941 186.629227,240.675171 182.319580,240.517578 
	C177.810455,240.352692 174.467224,243.211105 174.219208,248.159668 
	C173.911072,254.307785 173.795700,260.501923 174.199661,266.636505 
	C174.466248,270.684875 172.911942,271.405731 169.436966,271.069763 
	C166.587708,270.794281 163.645752,271.989929 163.918106,266.817749 
	C164.434174,257.017487 164.024918,247.170395 164.105225,237.343613 
	C164.120316,235.497345 162.928345,232.441727 166.793930,233.049179 
	C169.619980,233.493271 174.304352,230.671982 174.038071,237.540054 
	C179.162201,231.856613 184.991959,230.674072 191.447708,233.378860 
	C196.515961,235.502319 198.396164,239.766769 198.396545,245.484604 
z"/>
<path fill="#050505" opacity="1.000000" stroke="none" 
	d="
M584.119507,88.142868 
	C584.077576,79.590363 582.513672,77.254387 577.326965,77.518448 
	C573.009338,77.738258 570.173523,80.578842 570.014282,85.384743 
	C569.816162,91.368134 569.626648,97.383614 570.032898,103.344376 
	C570.318359,107.531960 568.700745,108.268761 565.026489,108.104179 
	C561.816467,107.960388 559.562012,108.270950 559.781433,103.610123 
	C560.234680,93.981384 559.825195,84.314651 560.008606,74.668068 
	C560.039429,73.045990 558.212585,69.680031 562.276428,70.082275 
	C565.150879,70.366791 569.756897,67.723526 569.761169,74.436691 
	C574.408386,69.634888 579.538391,67.822067 585.664429,69.824318 
	C590.787781,71.498848 593.849304,75.013512 593.995972,80.387383 
	C594.222900,88.700394 594.068054,97.023277 594.152832,105.341179 
	C594.170776,107.097466 593.898376,107.908577 591.782654,108.083061 
	C584.206909,108.707848 584.119751,108.737999 584.119690,101.099815 
	C584.119629,96.940323 584.119568,92.780838 584.119507,88.142868 
z"/>
<path fill="#050505" opacity="1.000000" stroke="none" 
	d="
M453.821930,432.871948 
	C459.707611,435.077148 462.155029,439.170288 462.125946,444.959137 
	C462.087463,452.618622 461.913483,460.286591 462.211090,467.934845 
	C462.371002,472.043640 459.718872,471.189880 457.690826,470.916840 
	C455.612213,470.636963 451.960480,472.991241 452.080475,467.984070 
	C452.239990,461.327301 452.070618,454.663300 452.134216,448.003296 
	C452.174225,443.815430 450.950836,440.760681 446.148254,440.523163 
	C441.759644,440.306061 438.318970,443.019958 438.093445,447.574402 
	C437.772583,454.053406 437.595917,460.582550 438.045380,467.042419 
	C438.376953,471.808624 435.577789,470.949982 432.824799,471.036560 
	C429.859833,471.129761 427.583466,471.415924 427.785919,466.896057 
	C428.217590,457.257507 427.815399,447.584045 428.017334,437.930359 
	C428.051636,436.292633 426.153625,432.971252 430.022919,433.114929 
	C433.051147,433.227356 437.797180,430.671326 437.817047,437.556824 
	C442.364471,432.568451 447.418121,430.891296 453.821930,432.871948 
z"/>
<path fill="#0A0A0A" opacity="1.000000" stroke="none" 
	d="
M215.863495,254.693512 
	C216.127640,259.053314 217.261337,262.493469 221.562805,263.520477 
	C225.921585,264.561188 227.904694,261.894775 230.096024,258.456543 
	C232.090851,255.326645 236.330200,256.795715 239.129639,257.483002 
	C241.239487,258.000916 239.342743,260.951141 238.671097,262.540955 
	C235.745209,269.466614 228.672501,272.912842 220.029785,271.907288 
	C212.650330,271.048676 207.548035,266.345367 205.967697,259.063385 
	C204.956772,254.405228 205.153900,249.759552 206.198593,245.181641 
	C208.029694,237.157730 213.944122,232.430298 222.279755,232.062820 
	C230.626846,231.694809 237.053268,235.620422 239.435822,242.212738 
	C240.707825,245.732269 239.961365,247.106094 236.088272,246.758118 
	C233.078400,246.487732 230.354813,247.258041 228.546814,243.144669 
	C226.630936,238.785889 219.647675,239.881958 217.162674,244.484558 
	C215.500534,247.563095 215.715408,250.920151 215.863495,254.693512 
z"/>
<path fill="#080808" opacity="1.000000" stroke="none" 
	d="
M411.309143,108.694824 
	C403.142303,109.598122 395.796875,108.600113 392.101593,100.798622 
	C388.021576,92.184822 388.241943,83.203873 393.837341,75.199997 
	C397.878265,69.419716 404.282806,68.356972 410.851318,69.306213 
	C416.772064,70.161842 421.478607,73.065453 423.640106,79.052856 
	C424.710144,82.016907 424.842590,84.186600 420.466431,83.778946 
	C417.415436,83.494743 414.688293,84.185295 412.881897,80.222313 
	C410.975281,76.039505 404.145935,76.617973 401.783051,80.962059 
	C398.904327,86.254639 399.047211,91.993233 401.551544,97.302963 
	C403.846558,102.168983 410.452301,101.955353 413.347015,97.260162 
	C414.874176,94.783119 421.059845,92.912079 423.355835,94.212563 
	C424.822083,95.043060 424.093445,96.315811 423.798370,97.256531 
	C421.911926,103.270836 417.975830,107.190834 411.309143,108.694824 
z"/>
<path fill="#070707" opacity="1.000000" stroke="none" 
	d="
M334.391571,100.548767 
	C333.149841,105.492935 331.769897,109.089668 325.520752,108.227043 
	C322.215546,107.770790 320.766785,107.022385 319.700928,103.872139 
	C315.934998,92.741333 311.819611,81.728767 307.854492,70.720757 
	C308.368805,70.388397 308.608521,70.100815 308.860138,70.090012 
	C318.592896,69.672173 318.578552,69.679588 321.205444,79.028831 
	C322.731384,84.459732 324.311035,89.875557 325.872437,95.296463 
	C326.008392,95.768539 326.188202,96.228004 326.699646,97.720596 
	C328.972321,89.932304 331.345032,83.094978 332.887878,76.075256 
	C333.982269,71.096123 336.170563,68.923828 341.268555,69.973717 
	C342.375488,70.201691 343.569489,70.007034 345.369171,70.007034 
	C341.666992,80.346100 338.113831,90.269081 334.391571,100.548767 
z"/>
<path fill="#0B0B0B" opacity="1.000000" stroke="none" 
	d="
M473.512207,79.215942 
	C473.375244,77.494225 472.596405,76.991135 471.455933,77.149811 
	C468.632446,77.542656 468.133942,76.087349 468.228302,73.647514 
	C468.312073,71.482605 468.177307,69.705505 471.262817,69.948326 
	C474.864655,70.231796 473.405487,67.302902 473.467346,65.698586 
	C473.676849,60.268105 477.014099,57.948189 482.228180,59.915565 
	C484.689270,60.844196 483.349579,63.031662 483.496246,64.627441 
	C483.754730,67.439651 482.540375,70.961823 487.735443,70.072479 
	C490.491730,69.600632 489.791656,72.038208 489.774231,73.519890 
	C489.757019,74.983299 490.572998,77.424553 487.802338,77.050949 
	C483.452484,76.464378 483.411774,78.912804 483.512085,82.058662 
	C483.671265,87.050034 483.597961,92.050591 483.540527,97.046310 
	C483.513519,99.398239 484.200867,101.149956 486.874481,100.834312 
	C490.593536,100.395248 489.600006,102.935394 489.860260,104.944633 
	C490.217896,107.705711 488.896149,108.497162 486.481598,108.417442 
	C485.318085,108.379028 484.149170,108.465530 482.988037,108.400398 
	C475.412964,107.975456 473.632538,106.183907 473.545654,98.677948 
	C473.472443,92.350014 473.527069,86.020592 473.512207,79.215942 
z"/>
<path fill="#060606" opacity="1.000000" stroke="none" 
	d="
M148.193924,371.325745 
	C147.923660,374.928741 147.685959,377.720703 152.495911,377.117279 
	C155.643417,376.722351 154.134949,379.638916 154.416611,381.139038 
	C154.779205,383.070099 154.196289,384.511322 151.824127,384.101868 
	C148.472763,383.523407 148.028488,385.238556 148.136154,388.076019 
	C148.337906,393.393127 148.245041,398.723999 148.174133,404.047760 
	C148.142151,406.447845 148.953049,408.064331 151.545563,407.852112 
	C155.803329,407.503510 154.129288,410.618622 154.444336,412.563751 
	C154.904465,415.404663 152.881180,415.279633 151.021057,415.417389 
	C140.809479,416.173798 138.205368,413.761902 138.197784,403.485107 
	C138.194229,398.659546 138.211899,393.833954 138.191055,389.008484 
	C138.180099,386.474731 139.039566,383.455292 134.486862,383.997559 
	C132.430725,384.242462 133.055984,382.111908 133.136337,380.984619 
	C133.230331,379.666077 132.230133,377.118408 134.151031,377.233337 
	C139.674713,377.563690 138.235733,373.781158 138.121964,371.048157 
	C137.993668,367.966492 138.653442,366.240936 142.150803,366.846741 
	C144.777237,367.301636 149.104401,365.105774 148.193924,371.325745 
z"/>
<path fill="#0A0A0A" opacity="1.000000" stroke="none" 
	d="
M100.671173,237.002670 
	C100.671150,232.018036 100.926575,227.513931 100.599342,223.052551 
	C100.270966,218.575546 103.346222,219.853378 105.472786,219.917709 
	C107.692017,219.984818 110.879265,218.330444 110.800606,223.183990 
	C110.561058,237.965240 110.549896,252.755630 110.801743,267.536469 
	C110.890884,272.768280 107.405281,270.694153 105.085197,270.977264 
	C102.544815,271.287231 100.407043,271.476807 100.554070,267.400238 
	C100.913101,257.445679 100.671158,247.469437 100.671173,237.002670 
z"/>
<path fill="#060606" opacity="1.000000" stroke="none" 
	d="
M171.050751,413.787537 
	C168.401428,415.788086 165.552673,414.804260 162.817139,414.960876 
	C160.272614,415.106567 161.110138,412.984009 161.102737,411.698883 
	C161.045273,401.714142 161.047684,391.728821 161.088516,381.743896 
	C161.097794,379.476013 160.061600,376.455078 164.404037,376.965881 
	C167.560699,377.337219 172.080566,375.435852 170.597000,382.744629 
	C173.549820,379.448547 175.690979,376.727783 179.333862,376.152679 
	C181.951523,375.739380 183.347260,376.156342 183.190826,379.339874 
	C183.009705,383.026001 184.115845,386.696167 177.960068,386.572662 
	C173.263901,386.478455 171.205444,390.312653 171.133316,394.833954 
	C171.035141,400.989929 171.090729,407.148346 171.050751,413.787537 
z"/>
<path fill="#040404" opacity="1.000000" stroke="none" 
	d="
M566.307007,437.651672 
	C567.664307,436.448700 568.480591,435.115540 569.637512,434.224762 
	C571.930603,432.459137 575.298340,430.683929 577.289185,432.637726 
	C579.222961,434.535645 578.043457,438.351898 577.774292,441.284851 
	C577.632324,442.833099 575.855469,442.025635 574.823242,442.140106 
	C568.182007,442.876556 566.044800,445.084595 565.944153,451.702515 
	C565.863159,457.031128 565.791809,462.366638 565.980530,467.689728 
	C566.072388,470.280853 565.315979,471.059296 562.676086,471.079529 
	C555.919373,471.131226 555.920288,471.276398 555.920227,464.750488 
	C555.920105,455.589844 555.879517,446.428833 555.954224,437.268799 
	C555.969360,435.409424 554.829346,432.351807 558.682373,433.064972 
	C561.289612,433.547546 566.018921,430.604919 565.488281,436.856598 
	C565.465027,437.130768 565.768616,437.432648 566.307007,437.651672 
z"/>
<path fill="#0A0A0A" opacity="1.000000" stroke="none" 
	d="
M502.810059,108.018745 
	C497.375763,108.979774 495.898285,107.073578 496.151611,101.973778 
	C496.621460,92.515671 496.513153,83.010025 496.196991,73.539162 
	C496.023163,68.331451 499.522858,70.291756 501.879028,70.038147 
	C504.399933,69.766815 506.585785,69.489182 506.444733,73.602783 
	C506.091492,83.903801 506.279175,94.225471 506.366669,104.537865 
	C506.386261,106.845253 506.193787,108.539993 502.810059,108.018745 
z"/>
<path fill="#040404" opacity="1.000000" stroke="none" 
	d="
M408.076447,444.025452 
	C408.076477,441.700043 408.309540,439.834076 408.029694,438.048492 
	C407.375031,433.871674 408.963562,432.860565 413.104370,432.834015 
	C417.318512,432.807007 418.323944,433.953644 418.186066,438.057892 
	C417.856842,447.859283 417.829193,457.688354 418.188599,467.487610 
	C418.360779,472.182159 415.474335,470.972351 413.092163,470.974518 
	C410.692871,470.976685 407.741821,472.158539 407.974487,467.467438 
	C408.352966,459.835846 408.076508,452.171783 408.076447,444.025452 
z"/>
<path fill="#040404" opacity="1.000000" stroke="none" 
	d="
M196.895721,415.004822 
	C195.587646,415.006897 194.738602,414.898163 193.926697,415.025757 
	C190.168701,415.616302 188.830887,414.374939 188.967438,410.299500 
	C189.301575,400.327393 189.278870,390.330719 188.989944,380.355774 
	C188.849289,375.499817 192.079803,377.162659 194.302719,377.077759 
	C196.472015,376.994934 199.300644,375.792511 199.174271,380.259369 
	C198.877945,390.733429 199.109528,401.221802 199.040024,411.703796 
	C199.031799,412.944489 199.985809,414.961823 196.895721,415.004822 
z"/>
<path fill="#080808" opacity="1.000000" stroke="none" 
	d="
M347.889648,457.730225 
	C345.228912,462.678131 341.323395,464.758759 336.159851,463.837952 
	C332.064270,463.107605 329.236267,460.524628 328.261383,456.452942 
	C327.269440,452.309906 328.097504,448.430725 331.572479,445.633698 
	C334.964691,442.903381 338.924164,442.470917 342.830963,444.213196 
	C346.892426,446.024536 348.557281,449.575623 348.502197,453.924713 
	C348.487640,455.074646 348.172363,456.220795 347.889648,457.730225 
z"/>
<path fill="#070707" opacity="1.000000" stroke="none" 
	d="
M279.612244,99.460709 
	C274.892609,93.865990 274.782043,87.632301 279.043610,83.666191 
	C283.029022,79.957123 289.631775,79.999786 293.504822,83.759644 
	C296.880035,87.036201 297.410126,93.730827 294.593567,97.509590 
	C291.244873,102.002289 285.989288,102.787239 279.612244,99.460709 
z"/>
<path fill="#070707" opacity="1.000000" stroke="none" 
	d="
M84.547188,258.394196 
	C80.750435,263.928680 76.383186,265.758911 71.307396,263.895813 
	C66.957047,262.298981 64.824921,259.013245 64.809685,254.324890 
	C64.789246,248.039047 68.598534,244.087631 74.930992,243.943390 
	C81.119057,243.802444 85.153473,247.780670 85.154053,254.118530 
	C85.154175,255.430038 84.857010,256.741577 84.547188,258.394196 
z"/>
<path fill="#060606" opacity="1.000000" stroke="none" 
	d="
M121.594482,395.763214 
	C122.206680,402.501984 119.896309,406.621887 114.849327,408.424347 
	C110.517914,409.971252 105.729301,408.400604 102.977646,404.530518 
	C100.219383,400.651154 100.329453,395.783966 103.260002,392.046417 
	C108.517464,385.341187 117.652634,387.022827 121.594482,395.763214 
z"/>
<path fill="#1A1A1A" opacity="1.000000" stroke="none" 
	d="
M505.940796,65.112259 
	C504.372803,65.518723 503.061584,65.646080 501.749603,65.655075 
	C496.616669,65.690277 494.163422,62.305943 496.423157,57.605305 
	C497.985870,54.354488 501.444122,56.745941 503.984100,56.182934 
	C506.061859,55.722382 506.454132,57.159313 506.383209,58.858982 
	C506.300873,60.831402 506.257538,62.805447 505.940796,65.112259 
z"/>
<path fill="#161616" opacity="1.000000" stroke="none" 
	d="
M418.118500,425.789734 
	C416.590942,431.107483 412.685760,428.148987 409.953033,428.488251 
	C406.979370,428.857391 408.134064,425.974762 408.112732,424.458069 
	C408.088806,422.756256 407.071442,420.056244 408.909149,419.508514 
	C411.477936,418.742798 414.693085,418.562500 417.143738,419.461639 
	C419.278168,420.244751 417.759613,423.310608 418.118500,425.789734 
z"/>
<path fill="#161616" opacity="1.000000" stroke="none" 
	d="
M190.371658,363.221161 
	C191.816727,363.160858 192.804871,363.152954 193.792999,363.153290 
	C198.709381,363.154846 201.130402,366.655945 198.971771,371.267853 
	C197.642868,374.106995 194.603989,372.246338 192.366669,372.583496 
	C191.075195,372.778137 188.999741,373.202209 189.106430,370.854767 
	C189.221329,368.327209 188.157181,365.634552 190.371658,363.221161 
z"/>
<path fill="#F9F9F9" opacity="1.000000" stroke="none" 
	d="
M225.481781,407.655212 
	C217.980667,404.335846 215.797989,392.353485 221.434235,386.884216 
	C224.300156,384.103210 227.756577,384.068878 231.080002,385.908752 
	C234.897446,388.022095 236.595230,394.899078 234.817993,400.893494 
	C233.527405,405.246429 230.968826,408.245758 225.481781,407.655212 
z"/>
<path fill="#F9F9F9" opacity="1.000000" stroke="none" 
	d="
M371.738495,452.035004 
	C372.362732,444.273102 374.680511,441.124878 379.593353,440.825043 
	C383.612030,440.579742 386.391479,442.390076 387.629852,446.095490 
	C388.735718,449.404449 389.087952,452.846710 388.259644,456.381866 
	C387.230133,460.775940 384.765747,463.618774 380.174652,463.761688 
	C375.354614,463.911743 373.196167,460.588654 372.113586,456.428284 
	C371.784393,455.163208 371.847351,453.796112 371.738495,452.035004 
z"/>
<path fill="#F5F5F5" opacity="1.000000" stroke="none" 
	d="
M368.466797,100.731903 
	C366.677704,101.240936 365.246643,101.795425 363.796356,101.851128 
	C361.276093,101.947914 359.183929,101.022125 358.711273,98.218033 
	C358.236725,95.402443 359.327179,93.260452 362.158752,92.497704 
	C365.490570,91.600212 368.897186,90.980362 372.569214,90.174782 
	C373.591949,94.441727 372.965759,98.079704 368.466797,100.731903 
z"/>
<path fill="#F5F5F5" opacity="1.000000" stroke="none" 
	d="
M451.290649,99.102753 
	C448.992279,101.006485 446.704071,101.922455 444.124603,101.886734 
	C441.560120,101.851212 439.519775,100.842422 439.094238,98.061340 
	C438.693542,95.442833 439.773163,93.374512 442.375488,92.640984 
	C445.823364,91.669121 449.358734,91.007622 453.107147,90.155785 
	C453.460907,93.381905 453.766602,96.302612 451.290649,99.102753 
z"/>
<path fill="#F5F5F5" opacity="1.000000" stroke="none" 
	d="
M523.108765,447.432922 
	C523.679199,442.870331 526.138672,440.514282 530.292419,440.254852 
	C533.777466,440.037231 536.301575,441.757202 537.716553,444.952179 
	C538.661194,447.085175 538.359375,448.375366 535.540710,448.214325 
	C531.439270,447.979980 527.325500,447.961945 523.108765,447.432922 
z"/>
<path fill="#F8F8F8" opacity="1.000000" stroke="none" 
	d="
M542.081116,89.858429 
	C541.312561,97.148720 539.075562,100.097229 534.079041,100.477066 
	C529.607056,100.817047 526.356262,99.038918 524.945679,94.559830 
	C523.928040,91.328468 523.845642,88.076935 524.586853,84.753967 
	C525.634644,80.056694 528.474365,77.554436 533.278625,77.497986 
	C537.787720,77.445000 540.820129,80.126091 541.789734,84.973259 
	C542.079285,86.420601 542.004089,87.940895 542.081116,89.858429 
z"/>
</svg>