<svg version="1.1" id="Layer_1" xmlns="http://www.w3.org/2000/svg" xmlns:xlink="http://www.w3.org/1999/xlink" x="0px" y="0px"
	 width="100%" viewBox="0 0 624 624" enable-background="new 0 0 624 624" xml:space="preserve">
<path fill="#000000" opacity="1.000000" stroke="none" 
	d="
M271.215210,201.190582 
	C271.863525,221.820526 263.131561,236.935379 245.348022,245.881577 
	C228.365143,254.424973 211.311615,253.010025 195.927795,241.486649 
	C178.365845,228.331711 172.705414,205.536224 181.231827,185.000137 
	C189.105377,166.036484 209.473785,154.596756 230.689575,157.222641 
	C252.514725,159.923950 268.834808,177.448730 271.215210,201.190582 
z"/>
<path fill="#000000" opacity="1.000000" stroke="none" 
	d="
M448.805237,86.334785 
	C464.450043,113.662773 451.949768,147.419266 422.557678,155.914383 
	C396.573669,163.424469 371.435974,150.441772 363.709534,124.364990 
	C355.976471,98.265839 371.195404,71.208755 397.094696,65.301651 
	C416.936188,60.776215 435.220184,66.063988 448.805237,86.334785 
z"/>
<path fill="#000000" opacity="1.000000" stroke="none" 
	d="
M128.787674,385.039398 
	C100.315903,394.594940 72.632149,381.173218 65.721809,353.527771 
	C57.181202,319.360382 82.843544,295.441284 109.633896,294.430695 
	C132.466385,293.569427 152.989975,310.688721 157.020294,330.971527 
	C161.724045,354.643433 151.366150,374.291626 128.787674,385.039398 
z"/>
<path fill="#000000" opacity="1.000000" stroke="none" 
	d="
M233.206238,36.685547 
	C259.757629,34.315197 279.490356,54.442307 282.666229,73.973000 
	C285.762329,93.012886 281.103455,109.205513 264.311310,121.479988 
	C248.471039,133.058655 227.822342,133.445648 211.669815,123.289467 
	C195.675476,113.232704 187.265656,94.539284 190.404968,76.021805 
	C194.114899,54.138557 210.980362,38.467922 233.206238,36.685547 
z"/>
<path fill="#000000" opacity="1.000000" stroke="none" 
	d="
M64.999176,96.708115 
	C90.499634,96.835861 110.534607,117.504456 111.533936,142.494507 
	C112.434525,165.015503 94.940231,188.007034 69.665779,190.208038 
	C42.966106,192.533157 21.369116,175.152893 17.809433,149.130386 
	C14.064516,121.753777 35.905746,97.245796 64.999176,96.708115 
z"/>
<path fill="#000000" opacity="1.000000" stroke="none" 
	d="
M393.216187,498.291840 
	C364.791168,517.253906 327.189270,503.685791 319.581390,471.362335 
	C312.923004,443.072906 329.075439,419.833038 353.893799,413.440125 
	C379.471191,406.851685 405.865601,422.581543 411.625488,448.128632 
	C416.196075,468.400787 410.149261,485.278839 393.216187,498.291840 
M398.823669,443.783478 
	C390.564362,427.551392 373.717407,419.516357 356.768677,423.756256 
	C338.216949,428.397156 325.111023,445.298370 329.706696,467.819580 
	C333.843323,488.091431 354.167694,500.148041 374.371613,495.266449 
	C396.566010,489.903900 407.640869,467.196899 398.823669,443.783478 
z"/>
<path fill="#000000" opacity="1.000000" stroke="none" 
	d="
M251.543549,555.932251 
	C252.859497,577.089722 230.308426,600.190552 205.251495,600.792480 
	C171.872406,601.594421 143.824097,564.636108 163.187439,529.466797 
	C172.271179,512.968140 192.187012,503.322632 210.989273,506.303772 
	C231.459381,509.549347 247.455475,524.131042 250.940948,543.099365 
	C251.685135,547.149292 251.376129,551.392700 251.543549,555.932251 
M205.411423,589.912720 
	C229.264679,589.026978 245.578506,567.934570 240.273666,544.838745 
	C236.042145,526.415955 218.272095,513.953491 199.990524,516.587463 
	C179.372528,519.558105 166.750595,535.685730 167.997284,557.282288 
	C168.948212,573.755188 184.448273,590.727844 205.411423,589.912720 
z"/>
<path fill="#000000" opacity="1.000000" stroke="none" 
	d="
M484.449524,290.525177 
	C497.201660,274.196289 513.845581,268.113983 533.380371,272.311646 
	C551.572876,276.220917 563.619385,287.984161 568.631226,306.102631 
	C575.532288,331.051239 562.051453,356.672089 537.231262,363.890350 
	C501.163849,374.379639 475.344116,346.341309 475.566040,319.445038 
	C475.652924,308.916626 478.219269,299.412689 484.449524,290.525177 
M539.832031,351.437714 
	C552.767822,343.872559 560.152832,332.983643 559.692322,317.617706 
	C559.240051,302.523438 551.925781,291.477020 538.335999,285.385773 
	C524.070557,278.991638 510.201324,280.756073 498.271423,291.178314 
	C487.263855,300.794800 483.711060,313.440491 487.148285,327.394379 
	C492.898346,350.737488 516.218140,361.398163 539.832031,351.437714 
z"/>
<path fill="#000000" opacity="1.000000" stroke="none" 
	d="
M428.292847,548.874817 
	C440.865265,572.866394 433.691803,598.893066 412.962982,612.625366 
	C397.704956,622.733459 376.202057,622.544189 360.575348,612.180603 
	C345.540558,602.209717 336.818085,582.375916 340.111298,565.346252 
	C344.063690,544.908142 355.991425,531.410278 376.193268,526.326416 
	C396.662506,521.175415 416.446106,530.065247 428.292847,548.874817 
M353.224426,557.792786 
	C350.936371,562.717346 350.088959,567.877563 350.226715,573.312256 
	C350.617340,588.720825 358.156921,599.780273 371.734344,606.023193 
	C385.369598,612.292786 398.823303,610.521851 410.613708,600.898071 
	C422.326630,591.337524 426.027435,578.590271 422.959717,564.148376 
	C419.838013,549.452576 406.924500,537.894897 393.055847,536.309326 
	C375.234619,534.271912 361.511658,541.486877 353.224426,557.792786 
z"/>
<path fill="#000000" opacity="1.000000" stroke="none" 
	d="
M614.976929,568.673950 
	C608.025513,586.440674 595.592468,597.550415 577.048218,600.064636 
	C556.612610,602.835266 540.035828,595.595093 528.921631,577.638489 
	C519.637390,562.638489 520.470825,540.253357 530.676025,526.025879 
	C542.447021,509.615509 562.019043,502.289093 581.274536,507.085297 
	C599.622498,511.655457 613.449402,526.674133 616.486328,545.132446 
	C617.778809,552.988647 617.630188,560.700745 614.976929,568.673950 
M533.362427,547.091736 
	C533.117737,551.910767 532.658569,556.779053 533.719604,561.516785 
	C537.264160,577.343628 551.349976,589.276917 566.954163,589.883179 
	C585.382996,590.599182 599.578918,580.951172 605.094116,563.961975 
	C610.026062,548.769470 603.792664,531.446167 590.000244,522.465454 
	C568.536011,508.489380 539.138550,519.444824 533.362427,547.091736 
z"/>
</svg>