<svg xmlns="http://www.w3.org/2000/svg" width="100%" viewBox="0 0 635 635" height="150" xmlns:v="https://vecta.io/nano"><path fill="#fff" d="M636 226l.094 405.5c.003 3.749-.845 4.596-4.594 4.594H5.5c-3.749.002-4.596-.844-4.594-4.593V5.5C.905 1.752 1.75.905 5.5.906h626c3.748-.002 4.603.842 4.596 4.593L636 226z"/><path d="M208.915 390.009v-6.988c.001-5.801 2.466-7.539 8.013-6.063 2.535.674.618 3.04 2.008 3.974 12.761-11.511 25.937-.93 26.642 11.399.222 3.881-.008 7.653-.928 11.373-2.562 10.361-14.002 17.435-25.721 7.711 0 5.193-.227 10.159.064 15.095.287 4.869-3.132 3.134-5.372 3.286-2.322.157-4.899.93-4.802-3.351.274-11.973.095-23.957.095-36.435zm154.054 52.168c6.028-11.316 15.402-13.314 25.196-4.972 0-4.763.345-8.997-.094-13.147-.468-4.423 1.952-4.353 5.033-4.241 2.796.101 5.29-.64 5.17 4.035-.363 14.131-.061 28.278-.232 42.416-.018 1.522 1.781 4.697-1.666 4.6-3.035-.085-7.366 2.379-8.592-3.087-11.314 8.516-23.581 3.443-25.916-10.485-.841-5.016-.731-9.924 1.101-15.12z" fill="#060606"/><path fill="#0a0a0a" d="M247.291 268.636l-.122-44.945c-.108-4.875 2.734-3.782 5.375-3.842 2.612-.059 5.342-.695 4.877 3.748-.43 4.107-.092 8.294-.092 13.098 3.685-2.661 6.971-4.734 11.156-4.685 7.429.087 12.657 4.246 13.072 11.585.469 8.304.157 16.65.245 24.978.017 1.609-.417 2.264-2.186 2.501-7.172.961-7.866.447-7.867-6.724l-.027-16.492c-.059-3.829-1.203-7.024-5.767-7.274-4.442-.243-7.47 1.743-8.188 6.258-1.025 6.446-.118 12.972-.506 19.446-.094 1.566 1.277 4.583-1.252 4.49-2.841-.105-6.593 2.542-8.717-2.141z"/><path fill="#090909" d="M371.11 78.135c-4.683-1.415-8.509-2.277-11.545 2.787-1.788 2.983-6.106 1.871-8.667.974-2.373-.832-.207-3.759.485-5.513 1.362-3.45 4.198-5.45 7.782-6.399 3.752-.993 7.567-1.243 11.389-.758 8.88 1.128 12.148 4.895 12.173 13.826l.012 15.977c.015 2.952-.387 6.016 3.373 8.986-4.185 0-6.939.003-9.692-.003-.497-.001-1.346.117-1.441-.091-2.673-5.841-5.388-.788-7.991-.001-5.167 1.561-10.183 1.919-14.712-1.606-3.561-2.771-4.087-6.672-3.444-10.831.778-5.036 4.327-8.333 10.23-9.417 3.269-.6 6.6-.865 9.864-1.486 3.87-.737 5.286-2.685 2.185-6.446z"/><path fill="#070707" d="M463.097 96.825c.099 3.911-.615 7.498 2.034 10.784-4.135-.798-9.295 3.499-11.873-3.386-3.565 2.954-7.49 4.886-12.223 4.799-6.688-.124-11.282-3.774-11.952-9.652-.717-6.287 2.721-11.407 9.106-12.969 3.539-.866 7.231-1.086 10.83-1.728 2.133-.38 4.497-.766 4.164-3.85-.294-2.719-2.371-3.479-4.609-3.696-3.417-.331-6.695-.217-8.419 3.662-.586 1.318-8.118 2.389-9.003 1.215-1.355-1.796-.099-3.685.628-5.431 1.367-3.283 3.885-5.393 7.224-6.399 4.031-1.214 8.197-1.499 12.361-.899 8.735 1.258 11.715 4.767 11.73 13.591l.002 13.96z"/><path fill="#090909" d="M530.262 463.913c2.095.163 4.111.285 5.139-.998 3.444-4.297 7.993-2.765 12.311-2.921-1.523 7.441-7.542 11.908-16.017 12.015-9.794.123-16.723-4.794-18.6-13.289-.985-4.458-.93-8.967.162-13.382 2.417-9.773 11.222-15.033 21.518-12.999 9.007 1.779 15.095 10.644 14.159 20.175-.26 2.641-1.782 2.308-3.418 2.31-6.163.008-12.327-.047-18.488.042-1.376.02-3.287-.848-4.045.766-.734 1.564.287 3.217 1.145 4.659 1.292 2.17 3.378 3.104 6.134 3.621z"/><path fill="#060606" d="M547.819 75.235c5.543 7.948 6.077 18.579 1.51 25.62-4.072 6.278-12.063 9.405-20.155 7.887-7.895-1.481-13.417-6.952-14.944-14.806-1.747-8.987 1.267-17.513 7.687-21.744 6.472-4.266 16.347-4.224 22.66.155 1.084.752 2.008 1.736 3.242 2.889z"/><path fill="#0a0a0a" d="M471.287 453.998l-.017-16.996c-.022-2.255-.279-4.685 3.149-3.96 2.598.55 7.364-2.49 6.566 4.635 4.064-4.108 8.269-6.317 13.583-5.531 6.312.934 10.589 4.718 10.94 11.056.468 8.473.185 16.987.295 25.482.022 1.712-.641 2.179-2.303 2.382-7.299.894-7.751.558-7.752-6.835l-.031-16.497c-.07-3.848-1.309-7.001-5.874-7.166-4.424-.16-7.72 1.814-8.054 6.369-.497 6.795-.666 13.653-.339 20.453.197 4.1-2.004 3.881-4.552 3.591-2.348-.267-6.069 1.744-5.677-3.491.323-4.308.066-8.66.066-13.492z"/><path fill="#070707" d="M144.296 238.204c-1.189-5.987 2.646-4.957 5.885-5.277 3.749-.371 4.28 1.226 4.211 4.495-.205 9.805-.052 19.618-.091 29.427-.008 1.958.883 4.831-2.849 4.123-2.624-.498-7.22 2.386-6.675-4.578-3.962 3.954-8.003 6.119-13.124 5.579-5.592-.589-9.639-3.495-10.694-8.817-1.856-9.37-.445-18.896-.827-28.346-.068-1.683 1.053-1.67 2.289-1.826 7.329-.923 7.721-.602 7.723 6.815l.01 16.46c.009 4.247 1.718 7.096 6.329 7.286 4.144.171 7.352-2.527 7.592-6.918.327-5.969.17-11.964.22-18.424z"/><path fill="#080808" d="M198.397 245.485c.01 7.777-.182 15.113.082 22.432.165 4.589-2.994 3.023-5.05 3.009s-5.281 1.608-5.112-2.986c.238-6.487.121-12.991.038-19.486-.073-5.708-1.724-7.779-6.034-7.936-4.509-.165-7.852 2.694-8.1 7.642-.308 6.148-.424 12.342-.02 18.477.267 4.048-1.288 4.769-4.763 4.433-2.849-.275-5.791.92-5.519-4.252.516-9.8.107-19.647.187-29.474.015-1.846-1.177-4.902 2.689-4.294 2.826.444 7.51-2.377 7.244 4.491 5.124-5.683 10.954-6.866 17.41-4.161 5.068 2.123 6.948 6.388 6.949 12.106z"/><path d="M584.12 88.143c-.042-8.553-1.606-10.888-6.793-10.624-4.318.22-7.153 3.06-7.313 7.866-.198 5.983-.388 11.999.019 17.96.285 4.188-1.332 4.924-5.006 4.76-3.21-.144-5.464.167-5.245-4.494.453-9.629.044-19.295.227-28.942.031-1.622-1.796-4.988 2.268-4.586 2.874.285 7.48-2.359 7.485 4.354 4.647-4.802 9.777-6.615 15.903-4.612 5.123 1.675 8.185 5.189 8.332 10.563.227 8.313.072 16.636.157 24.954.018 1.756-.254 2.567-2.37 2.742-7.576.625-7.663.655-7.663-6.983V88.143zM453.822 432.872c5.886 2.205 8.333 6.298 8.304 12.087-.038 7.659-.212 15.327.085 22.976.16 4.109-2.492 3.255-4.52 2.982-2.079-.28-5.73 2.074-5.61-2.933.16-6.657-.01-13.321.054-19.981.04-4.188-1.183-7.243-5.986-7.48-4.389-.217-7.829 2.497-8.055 7.051-.321 6.479-.498 13.008-.048 19.468.332 4.766-2.468 3.908-5.221 3.994-2.965.093-5.241.379-5.039-4.141.432-9.639.029-19.312.231-28.966.034-1.638-1.864-4.959 2.006-4.815 3.028.112 7.774-2.444 7.794 4.442 4.547-4.988 9.601-6.666 16.005-4.685z" fill="#050505"/><path fill="#0a0a0a" d="M215.863 254.694c.264 4.36 1.398 7.8 5.699 8.827 4.359 1.041 6.342-1.626 8.533-5.064 1.995-3.13 6.234-1.661 9.034-.974 2.11.518.213 3.468-.459 5.058-2.926 6.926-9.999 10.372-18.641 9.366-7.379-.859-12.482-5.562-14.062-12.844-1.011-4.658-.814-9.304.231-13.882 1.831-8.024 7.746-12.751 16.081-13.119 8.347-.368 14.774 3.558 17.156 10.15 1.272 3.52.526 4.893-3.348 4.545-3.01-.27-5.733.5-7.541-3.613-1.916-4.359-8.899-3.263-11.384 1.34-1.662 3.079-1.447 6.436-1.299 10.209z"/><path fill="#080808" d="M411.309 108.695c-8.167.903-15.512-.095-19.208-7.896-4.08-8.614-3.86-17.595 1.736-25.599 4.041-5.78 10.445-6.843 17.014-5.894 5.921.856 10.627 3.759 12.789 9.747 1.07 2.964 1.202 5.134-3.174 4.726-3.051-.284-5.778.406-7.585-3.557-1.907-4.183-8.736-3.604-11.099.74-2.879 5.293-2.736 11.031-.232 16.341 2.295 4.866 8.901 4.652 11.795-.043 1.527-2.477 7.713-4.348 10.009-3.048 1.466.83.738 2.103.443 3.044-1.886 6.014-5.823 9.934-12.489 11.438z"/><path fill="#070707" d="M334.392 100.549c-1.242 4.944-2.622 8.541-8.871 7.678-3.305-.456-4.754-1.205-5.82-4.355-3.766-11.131-7.881-22.143-11.846-33.151.514-.332.754-.62 1.006-.631 9.733-.418 9.718-.41 12.345 8.939l4.667 16.268c.136.472.316.932.827 2.424 2.273-7.788 4.645-14.626 6.188-21.645 1.094-4.979 3.283-7.151 8.381-6.102 1.107.228 2.301.033 4.101.033l-10.978 30.542z"/><path fill="#0b0b0b" d="M473.512 79.216c-.137-1.722-.916-2.225-2.056-2.066-2.823.393-3.322-1.062-3.228-3.502.084-2.165-.051-3.942 3.035-3.699 3.602.283 2.143-2.645 2.205-4.25.21-5.43 3.547-7.75 8.761-5.783 2.461.929 1.121 3.116 1.268 4.712.258 2.812-.956 6.334 4.239 5.445 2.756-.472 2.056 1.966 2.039 3.447-.017 1.463.799 3.905-1.972 3.531-4.35-.587-4.391 1.862-4.29 5.008.159 4.991.086 9.992.028 14.988-.027 2.352.66 4.104 3.334 3.788 3.719-.439 2.726 2.101 2.986 4.11.358 2.761-.964 3.553-3.379 3.473-1.164-.038-2.332.048-3.494-.017-7.575-.425-9.355-2.216-9.442-9.722l-.033-19.462z"/><path fill="#060606" d="M148.194 371.326c-.27 3.603-.508 6.395 4.302 5.792 3.148-.395 1.639 2.522 1.921 4.022.363 1.931-.22 3.372-2.592 2.963-3.351-.578-3.796 1.137-3.688 3.974.202 5.317.109 10.648.038 15.972-.032 2.4.779 4.017 3.371 3.804 4.258-.349 2.584 2.767 2.899 4.712.46 2.841-1.563 2.716-3.423 2.854-10.212.756-12.816-1.655-12.823-11.932l-.007-14.477c-.011-2.534.849-5.553-3.704-5.011-2.056.245-1.431-1.886-1.351-3.013.094-1.319-.906-3.866 1.015-3.751 5.524.33 4.085-3.452 3.971-6.185-.128-3.082.531-4.807 4.029-4.201 2.626.455 6.954-1.741 6.043 4.479z"/><path fill="#0a0a0a" d="M100.671 237.003c0-4.985.255-9.489-.072-13.95-.328-4.477 2.747-3.199 4.873-3.135 2.219.067 5.406-1.587 5.328 3.266-.24 14.781-.251 29.572.001 44.352.089 5.232-3.396 3.158-5.717 3.441-2.54.31-4.678.5-4.531-3.577.359-9.955.117-19.931.117-30.398z"/><path fill="#060606" d="M171.051 413.788c-2.649 2.001-5.498 1.017-8.234 1.173-2.545.146-1.707-1.977-1.714-3.262l-.014-29.955c.009-2.268-1.027-5.289 3.316-4.778 3.157.371 7.677-1.53 6.193 5.779 2.953-3.296 5.094-6.017 8.737-6.592 2.618-.413 4.013.004 3.857 3.187-.181 3.686.925 7.356-5.231 7.233-4.696-.094-6.755 3.74-6.827 8.261l-.083 18.954z"/><path fill="#040404" d="M566.307 437.652c1.357-1.203 2.174-2.536 3.331-3.427 2.293-1.766 5.661-3.541 7.652-1.587 1.934 1.898.754 5.714.485 8.647-.142 1.548-1.919.741-2.951.855-6.641.736-8.778 2.944-8.879 9.562-.081 5.329-.152 10.664.036 15.987.092 2.591-.665 3.37-3.304 3.39-6.757.052-6.756.197-6.756-6.329l.034-27.482c.015-1.859-1.125-4.917 2.728-4.204 2.607.483 7.337-2.46 6.806 3.792-.023.274.28.576.819.795z"/><path fill="#0a0a0a" d="M502.81 108.019c-5.434.961-6.912-.945-6.658-6.045.47-9.458.362-18.964.045-28.435-.174-5.208 3.326-3.247 5.682-3.501 2.521-.271 4.707-.549 4.566 3.565-.353 10.301-.166 20.623-.078 30.935.02 2.307-.173 4.002-3.557 3.481z"/><path d="M408.076 444.025c0-2.325.233-4.191-.047-5.977-.655-4.177.934-5.188 5.075-5.214 4.214-.027 5.22 1.12 5.082 5.224-.329 9.801-.357 19.63.003 29.43.172 4.695-2.714 3.485-5.096 3.487-2.399.002-5.35 1.184-5.118-3.507.378-7.632.102-15.296.102-23.442zm-211.18-29.02c-1.308.002-2.157-.107-2.969.021-3.758.591-5.096-.651-4.959-4.726.334-9.972.311-19.969.023-29.944-.141-4.856 3.09-3.193 5.313-3.278 2.169-.083 4.998-1.285 4.872 3.182-.296 10.474-.065 20.962-.134 31.444-.008 1.241.946 3.258-2.144 3.301z" fill="#040404"/><path fill="#080808" d="M347.89 457.73c-2.661 4.948-6.566 7.029-11.73 6.108-4.096-.73-6.924-3.313-7.898-7.385-.992-4.143-.164-8.022 3.311-10.819 3.392-2.73 7.352-3.163 11.258-1.421 4.061 1.811 5.726 5.362 5.671 9.712-.015 1.15-.33 2.296-.613 3.806z"/><path d="M279.612 99.461c-4.72-5.595-4.83-11.828-.569-15.795 3.985-3.709 10.588-3.666 14.461.093 3.375 3.277 3.905 9.971 1.089 13.75-3.349 4.493-8.604 5.278-14.981 1.951zM84.547 258.394c-3.797 5.534-8.164 7.365-13.24 5.502-4.35-1.597-6.482-4.883-6.498-9.571-.02-6.286 3.789-10.237 10.121-10.382 6.188-.141 10.222 3.837 10.223 10.175 0 1.312-.297 2.623-.607 4.276z" fill="#070707"/><path fill="#060606" d="M121.594 395.763c.612 6.739-1.698 10.859-6.745 12.661-4.331 1.547-9.12-.024-11.872-3.894-2.758-3.879-2.648-8.747.282-12.484 5.257-6.705 14.393-5.024 18.334 3.717z"/><path fill="#1a1a1a" d="M505.941 65.112c-1.568.406-2.879.534-4.191.543-5.133.035-7.586-3.349-5.326-8.05 1.563-3.251 5.021-.859 7.561-1.422 2.078-.461 2.47.976 2.399 2.676l-.442 6.253z"/><path d="M418.119 425.79c-1.528 5.318-5.433 2.359-8.165 2.699-2.974.369-1.819-2.513-1.84-4.03-.024-1.702-1.041-4.402.796-4.95 2.569-.766 5.784-.946 8.235-.047 2.134.783.616 3.849.975 6.328zm-227.747-62.569l3.421-.068c4.916.002 7.337 3.503 5.179 8.115-1.329 2.839-4.368.978-6.605 1.316-1.291.195-3.367.619-3.26-1.729.115-2.528-.949-5.22 1.265-7.634z" fill="#161616"/><path d="M225.482 407.655c-7.501-3.319-9.684-15.302-4.048-20.771 2.866-2.781 6.322-2.815 9.646-.975 3.817 2.113 5.515 8.99 3.738 14.985-1.291 4.353-3.849 7.352-9.336 6.762zm146.256 44.38c.624-7.762 2.942-10.91 7.855-11.21 4.019-.245 6.798 1.565 8.036 5.27 1.106 3.309 1.458 6.751.63 10.286-1.03 4.394-3.494 7.237-8.085 7.38-4.82.15-6.978-3.173-8.061-7.333-.329-1.265-.266-2.632-.375-4.393z" fill="#f9f9f9"/><path d="M368.467 100.732c-1.789.509-3.22 1.064-4.67 1.119-2.52.097-4.612-.829-5.085-3.633-.475-2.816.616-4.958 3.447-5.72 3.332-.897 6.738-1.517 10.41-2.323 1.023 4.267.397 7.905-4.102 10.557zm82.824-1.629c-2.298 1.904-4.587 2.82-7.166 2.784-2.564-.036-4.605-1.044-5.03-3.825-.401-2.619.679-4.687 3.281-5.42 3.448-.972 6.983-1.633 10.732-2.485.354 3.226.659 6.147-1.816 8.947zm71.818 348.33c.57-4.563 3.03-6.919 7.184-7.178 3.485-.218 6.009 1.502 7.424 4.697.945 2.133.643 3.423-2.176 3.262-4.101-.234-8.215-.252-12.432-.781z" fill="#f5f5f5"/><path fill="#f8f8f8" d="M542.081 89.858c-.769 7.29-3.006 10.239-8.002 10.619-4.472.34-7.723-1.438-9.133-5.917-1.018-3.231-1.1-6.483-.359-9.806 1.048-4.697 3.888-7.2 8.692-7.256 4.509-.053 7.542 2.628 8.511 7.475.29 1.447.214 2.968.291 4.885z"/></svg>