<svg xmlns="http://www.w3.org/2000/svg" width="100%" viewBox="0 0 635 635" height="150" xmlns:v="https://vecta.io/nano"><path fill="#fff" d="M373 636c-122.833 0-245.167-.02-367.5.094-3.749.003-4.596-.845-4.594-4.594V5.5C.905 1.751 1.75.905 5.5.906h626c3.749-.002 4.596.843 4.594 4.593v626c.002 3.748-.842 4.601-4.593 4.596L373 636z"/><path d="M375.506 78.509c14.39-15.268 38.241-16.822 52.866-9.76 17.838 8.613 28.087 26.621 26.61 47.381-1.234 17.357-15.219 34.086-32.924 39.386-20.151 6.032-41.888-2.244-52.971-20.17-11.076-17.914-8.574-40.852 6.418-56.838zM80.019 375.996c-13.936-13.065-18.183-28.948-13.721-46.693 4.262-16.949 15.635-27.9 32.499-32.65 25.102-7.069 50.842 7.983 57.216 33.21 6.39 25.292-8.951 51.115-34.294 56.668-15.245 3.34-29.394.244-41.7-10.535zm111.308-139.323c-18.303-19.498-17.848-48.081.803-66.232 18.096-17.611 47.166-17.168 65.246.994 17.675 17.756 17.935 46.755.578 64.449-18.632 18.993-46.927 19.437-66.627.788zm72.793-190.83c21.92 16.588 24.06 46.277 10.387 64.794-12.346 16.722-34.113 23.591-53.771 16.407-19.611-7.167-31.819-26.108-30.15-46.779 2.962-36.677 42.661-55.44 73.534-34.422z" fill="#020202"/><path fill="#010101" d="M31.732 110.732c19.671-18.717 47.979-18.099 66.724 1.202 17.24 17.751 16.65 46.783-1.315 64.667-17.792 17.711-46.808 17.945-64.731.521-18.85-18.324-19.252-46.892-.678-66.389z"/><path d="M164.08 592.016c-12.988-10.221-20.388-22.802-20.143-39.504.304-20.712 15.905-40.06 36.315-44.395 25.102-5.331 49.051 9.721 55.154 34.595 6.77 27.598-12.304 52.821-37.801 56.528-12.216 1.776-22.998-.651-33.526-7.225zm198.022-174.298c17.427 10.167 25.266 25.192 24.917 44.827-.375 21.102-21.606 42.016-42.69 42.578-12.086.322-22.858-2.184-32.643-9.619-19.365-14.714-23.374-44.709-8.488-64.239 11.983-15.722 34.791-24.685 58.905-13.547zm166.255-148.11c21.714 15.916 26.056 44.303 10.354 65.929-13.911 19.158-43.92 24.046-62.995 10.683-22.188-15.545-26.082-44.573-12.956-64.331 14.478-21.795 45.52-27.739 65.598-12.28zm75.871 239.239c7.771 10.156 11.128 21.269 10.828 33.727-.506 21.048-21.695 41.94-42.725 42.544-15.435.443-28.166-4.312-38.692-15.797-12.772-13.935-14.969-35.984-5.957-52.368 6.384-11.606 15.973-19.752 28.852-22.74 18.306-4.247 34.585-.144 47.694 14.635zM395.796 617.415c-17.006-5.513-28.238-16.49-32.158-33.477-6.178-26.774 9.51-51.731 36.433-56.584 28.748-5.182 49.845 13.998 54.284 38.191 4.465 24.337-12.921 48.669-37.421 53.142-6.813 1.244-13.917.733-21.139-1.272z" fill="#d9d9d9"/></svg>