<svg xmlns="http://www.w3.org/2000/svg" width="100%" viewBox="0 0 635 635" height="150" xmlns:v="https://vecta.io/nano"><path fill="#aeffda" d="M296 636c-97.333 0-194.167-.023-291 .096C1.576 636.1.904 635.424.906 632V5C.904 1.577 1.576.904 5 .906h627c3.423-.002 4.096.67 4.095 4.094v627c.002 3.423-.669 4.099-4.094 4.096L296 636z"/><path fill="#a5a5a5" d="M308.543 442.196c-1.732-.268-3.39 1.237-4.617-1.229-9.521-3.018-16.987-8.846-24.062-15.165-13.958-12.467-24.326-27.56-32.006-44.577-1.444-3.201-2.182-6.61-3.534-10.254-1.281-3.618-.705-6.964-.841-10.269-.537-12.975.371-25.922 1.204-38.832.702-10.88 1.541-21.782 2.862-32.627.406-3.331 1.858-4.739 5.318-4.003a832.77 832.77 0 0 0 35.584 6.766c10.442 1.751 21.001 3.454 31.538 3.301 14.113-.205 27.837-3.708 41.404-7.573 6.391-1.82 12.684-3.926 19.006-5.956 5.261-1.69 7.682-.17 7.966 5.298l1.016 16.867c1.254 16.697 3.009 33.309 6.656 49.667.768 3.445 1.264 6.83.782 10.739-6.334 30.199-22.294 53.634-47.147 70.868-12.284 8.518-26.106 11.031-41.129 6.979z"/><path fill="#1b1a1c" d="M382.659 195.733a14.71 14.71 0 0 1 3.111.239c5.827 1.292 11.599 1.295 17.242 2.442 6.101 1.24 11.693 3.691 17.268 6.262 1.311.604 3.009 1.223 2.649 3.126-.315 1.665-1.869 2.231-3.332 2.658-7.626 2.225-14.331 5.999-19.777 11.732 2.404-.775 4.908-1.597 7.585-1.367.998.086 2.053.316 2.493 1.353.501 1.181-.513 1.754-1.195 2.451-5.528 5.653-5.287 5.558-2.325 12.79 5.157 12.592 10.7 25.091 11.891 38.922.767 8.907-.8 17.596-2.7 26.165-3.78 17.047-9.147 33.64-15.422 49.937-.538 1.397-.749 3.352-2.42 3.404-2.224.069-2.114-2.328-2.427-3.739-3.535-15.906-5.014-32.093-6.274-48.299-.476-6.127-1.04-12.244-1.219-18.404-.146-5.049-1.083-5.44-5.886-3.87-13.128 4.291-26.381 8.059-39.86 11.16-16.049 3.693-31.97 2.73-47.987.321-13.941-2.097-27.749-4.907-41.535-7.808-3.402-.716-4.305.233-4.612 3.586-2.183 23.833-4.45 47.655-3.95 71.635.027 1.294.31 2.961-1.196 3.511-1.533.56-2.31-.768-3.001-1.985-7.725-13.603-15.301-27.263-21.61-41.622-9.982-22.72-8.804-45.589-1.923-68.723 2.169-7.292 5.283-13.991 10.568-19.576 1.265-1.337 2.027-2.995 2.63-4.766.639-1.876.726-4.61 4.204-2.468 1.966 1.211 2.152-1.272 2.754-2.5.578-1.178.923-2.724 2.598-2.639 1.752.088 1.895 1.564 2.009 2.934.07.837.172 1.772 1.099 2.036 1.218.347 1.744-.666 2.276-1.5.358-.561.605-1.188.95-1.758.781-1.291 1.617-2.858 3.376-2.315 1.543.477 1.195 2.184 1.293 3.479.076 1.006.089 2.022 1.566 2.384 1.07-.57 1.78-1 2.798-1.488 2.764-.058 4.648-1.197 6.416-3.271 1.56-1.061 2.894-1.864 4.563-2.72 6.165-1.429 11.067-4.822 16.401-7.762.206-.636.435-.826.983-.876.411.46.701.526.974.004-.108-.274.004-.296-.041-.26 8.246-1.643 15.729-5.827 24.024-7.572 10.626-2.235 21.339-3.723 32.078-5.271 9.12-1.314 18.15-.31 27.206-.975 4.997-.367 10.126 1.186 15.686 1.002z"/><path fill="#111413" d="M251.661 224.488c.237 1.253.585 2.525-.62 2.851-1.231.334-1.774-.767-1.886-1.786-.199-1.803-.219-3.625-.347-6.076-3.176 2.698-4.117 6.374-6.537 9.123-2.726-2.055-1.811-5.229-2.787-8.012-1.977.72-1.822 2.583-2.476 3.896-.711 1.429-.414 3.761-2.295 4.11-2.277.423-1.459-2.664-3.332-3.557-.761 3.73-2.694 6.761-5.124 9.656-8.966 10.681-10.908 23.979-13.207 37.064-3.413 19.423.717 37.616 9.34 55.042 6.104 12.335 12.382 24.569 20.599 36.251 0-1.711.052-3.424-.008-5.133-.741-21.304 1.723-42.453 3.088-63.654.074-1.146.533-2.262.727-3.406 1.362-8.047 1.342-7.987 9.573-6.256 18.505 3.892 37.056 7.746 55.918 9.222 18.706 1.463 36.562-3.66 54.29-8.871 5.902-1.735 11.853-3.411 17.557-5.679 3.608-1.434 4.855-.059 4.762 2.98-.196 6.347.64 12.605 1.147 18.887 1.452 17.995 2.657 36.033 7.27 54.176 2.274-2.63 2.599-5.636 3.595-8.257 5.854-15.414 10.327-31.239 14.11-47.289 4.26-18.074 1.547-35.267-5.664-52.039-1.313-3.054-2.459-6.179-3.699-9.265-3.676-9.144-3.679-9.143 3.576-16.184-5.398-.196-9.866 2.181-15.153 4.115 3.005-6.256 5.21-7.673 28.527-18.978-8.31-4.391-16.452-7.536-25.438-8.462-3.693-.381-7.552-.18-11.066-2.525 9.525-1.102 18.725.868 27.627 4.365 5.065 1.99 10.133 4.033 15.928 7.666-8.989 2.994-17.728 4.36-25.651 11.123h16.74c-2.314 3.497-5.516 3.467-8.049 4.461-8.107 3.184-8.942 5.135-5.608 12.961 5.268 12.368 10.749 24.756 11.915 38.331 1.363 15.868-3.132 30.957-7.393 45.971-3.669 12.929-8.136 25.611-13.126 38.097-.873 2.185-1.512 4.391-1.604 7.134-.65.523-1.07.344-1.308-.536 1.312-7.544-1.585-14.169-2.775-20.989-3.324-19.058-4.634-38.303-5.869-57.561-.414-6.449-.3-6.452-6.508-4.399-16.758 5.542-33.66 10.533-51.242 12.721-15.261 1.899-30.225-.846-45.155-3.367-10.338-1.745-20.586-4.032-30.875-6.07-1.891-.375-3.839-1.43-4.172 2.045-2.537 26.518-4.844 53.041-3.807 79.727.039.994.216 1.982.423 3.435-.167.573-.428.683-1.072.608-4.718-8.015-9.173-15.781-13.364-23.686-7.69-14.503-15.914-28.844-19.368-45.112-4.461-21.011-.793-41.237 6.908-60.936a14.65 14.65 0 0 1 1.375-2.648c4.45-6.819 10.794-12.702 9.79-22.355 3.562 1.644 2.527 5.072 4.801 6.574 1.996-3.773 1.94-8.288 4.634-12.479 2.101 4.126 1.652 8.34 3.209 12.222 3.335-2.971 3.809-7.699 7.497-10.686 2.01 3.612.521 7.462 1.663 11.436z"/><path d="M395.397 365.954c.461-.022.706.28 1.168.775-2.674 20.765-13.774 37.133-26.893 52.332-9.457 10.955-20.565 19.789-34.754 24.03-7.802 2.332-15.696 2.446-23.646.929-1.076-.205-2.428-.014-2.947-1.774 6.005-.304 11.982 1.422 18.193.577 13.44-1.829 24.536-8.211 34.132-17.319 15.813-15.009 27.998-32.383 33.513-53.846.453-1.764.684-3.585 1.234-5.704zm-151.28 6.406c.275-.39.533-.391 1.178-.371 9.494 26.309 25.046 47.679 48.56 62.912 3.037 1.968 6.357 3.5 9.739 5.469-1.924 1.043-3.671.001-5.455-.886-16.052-7.984-27.98-20.548-38.075-34.941-6.851-9.768-12.893-20.068-15.947-32.183z" fill="#303b36"/><path d="M382.834 195.246c-2.954 3.058-6.816 2.036-10.166 1.515-12.118-1.883-24.169-.624-36.158.52-9.674.923-19.237 3.071-28.823 4.823-6.063 1.108-11.784 3.381-17.422 5.81-1.891.814-3.741 1.328-6.214.784 7.716-4.537 16.37-7.543 25.765-9.328.711-.123 1.116-.243 1.853-.328.877-.192 1.436-.371 2.285-.474 1.146.334 1.716-.442 2.769-.552 1.37-.287 2.448-.55 3.946-.785.837-.082 1.261-.163 2.013-.238 1.175-.202 2.026-.383 3.201-.495 1.455.318 2.353-.72 3.808-.518 1.742-.268 3.154-.522 4.996-.709 1.166-.204 1.93-.271 2.996-.215l8.038-.764c3.086-.629 5.815-.163 8.888-.258l8.94-.193c2.516.249 4.605.008 7.009.418 4.251-.224 8.147-.031 12.274.987zm-101.398 14.156c.265.586.362 1.598-.005 1.81-4.867 2.815-9.293 6.678-15.553 6.475 4.929-2.941 10.052-5.586 15.558-8.286zm-20.766 10.551c.076 3.818-2.27 4.642-5.798 3.725 1.689-1.426 3.574-2.553 5.798-3.725z" fill="#111413"/><path d="M354.614 193.978c-2.235 1.811-5.065.922-8.156.587 2.331-1.185 5.086-.474 8.156-.587zm15.97.223c-1.799 1.167-3.926 1.059-6.33.014 1.831-.228 3.926-.2 6.33-.014zm-40.885 1.688c-.5 1.185-1.628 1.147-3.151.794.715-.368 1.772-.619 3.151-.794zm8.038-.897c-.407.94-1.224 1.114-2.405.522.581-.319 1.375-.461 2.405-.522zm-14.919 1.885c-.17.716-.628 1.085-1.553.547.338-.324.851-.483 1.553-.547zm-6.091 1.051c-.259.794-.997 1.027-2.179.805.427-.348 1.158-.608 2.179-.805zm-4.928 1.027c-.137.678-.578 1.025-1.482.601.311-.32.802-.497 1.482-.601zm-61.424 13.929c.204.141-.021.185-.134.171.106-.243.338-.462.528-.713.023-.03-.178-.231-.275-.352-.108.251-.215.502-.119.895z" fill="#1b1a1c"/><path fill="#111413" d="M283.402 208.533c.142.257.469.79-.333.44-.109-.137.137-.443.333-.44z"/><path fill="#1b1a1c" d="M344.658 393.119l2.216-.836c1.176-.3 2.683-1.493 3.297.542.447 1.482-.991 1.88-2.053 2.33-18.186 7.701-36.253 7.415-54.195-.823-1.176-.54-2.88-1.013-2.044-2.761.875-1.829 2.351-.542 3.428-.056 12.338 5.562 25.123 7.556 38.461 4.74 3.566-.753 7.031-1.988 10.89-3.136z"/><path fill="#9a9a9a" d="M321.063 213.715c-18.723 4.343-36.764 9.587-55.145 15.096 7.949-6.806 51.091-22.928 65.041-24.051 23.095-1.86 46.183-.882 70.439.672-27.449 2.731-53.939 2.959-80.336 8.283z"/></svg>