<svg version="1.1" id="Layer_1" xmlns="http://www.w3.org/2000/svg" xmlns:xlink="http://www.w3.org/1999/xlink" x="0px" y="0px"
	 width="100%" viewBox="0 0 635 635" enable-background="new 0 0 635 635" xml:space="preserve">
<path fill="#EB8755" opacity="1.000000" stroke="none" 
	d="
M355.000000,636.000000 
	C236.666687,636.000000 118.833374,636.000000 1.000047,636.000000 
	C1.000032,424.333405 1.000032,212.666779 1.000016,1.000133 
	C212.666565,1.000088 424.333130,1.000088 635.999756,1.000044 
	C635.999878,212.666519 635.999878,424.333038 635.999939,635.999756 
	C542.500000,636.000000 449.000000,636.000000 355.000000,636.000000 
M485.785553,226.241226 
	C487.169250,220.857193 489.407532,215.522522 489.722229,210.076706 
	C490.123596,203.130844 487.371735,196.871078 480.602081,193.563080 
	C474.187897,190.428787 468.363556,191.980652 463.334869,197.053268 
	C462.105469,192.462784 460.159698,191.895752 453.444092,193.767120 
	C453.444092,211.052048 453.444092,228.291870 453.444092,245.572296 
	C456.749847,245.572296 459.676117,245.572296 463.151825,245.572296 
	C463.151825,239.457092 463.151825,233.595963 463.151825,227.344315 
	C471.731750,233.820465 478.663666,233.513168 485.785553,226.241226 
M165.100342,502.755768 
	C164.313889,508.254089 162.423721,513.859680 162.945816,519.230835 
	C164.579300,536.036011 179.674271,538.707642 188.725647,531.047607 
	C190.890228,536.529602 195.275604,533.060303 198.893265,534.011169 
	C198.893265,516.794312 198.893265,500.070374 198.893265,483.222107 
	C195.600739,483.222107 192.567673,483.222107 189.166519,483.222107 
	C189.166519,486.219238 189.166534,488.855286 189.166534,491.491302 
	C189.166534,494.089874 189.166519,496.688477 189.166519,499.601074 
	C178.902191,492.796082 172.182709,493.620605 165.100342,502.755768 
M268.506439,402.044586 
	C264.972534,403.120483 261.438660,404.196411 257.442139,405.413147 
	C257.442139,400.671539 257.442139,395.472260 257.442139,390.143005 
	C253.750519,390.143005 250.672363,390.143005 247.594421,390.143005 
	C247.594421,407.179291 247.594421,423.918640 247.594421,440.664398 
	C250.958786,440.664398 254.000961,440.664398 257.340240,440.664398 
	C257.340240,433.503906 257.215454,426.691528 257.376923,419.885925 
	C257.525116,413.640411 260.408203,410.456390 265.386505,410.549500 
	C270.011780,410.636047 271.708344,413.069336 271.739441,419.812561 
	C271.771515,426.771179 271.746552,433.730042 271.746552,440.669983 
	C275.289124,440.669983 278.357483,440.669983 281.777985,440.669983 
	C281.777985,432.198425 281.877686,424.070129 281.750885,415.945343 
	C281.614807,407.225189 278.084259,403.390259 268.506439,402.044586 
M460.342987,102.064720 
	C452.767609,97.891159 444.951019,97.769485 437.381897,101.615013 
	C433.517090,103.578568 431.661499,107.377022 432.090485,112.135132 
	C436.209930,111.949448 440.427460,113.842804 443.116241,108.703087 
	C443.798096,107.399643 447.444153,106.881569 449.480011,107.277763 
	C451.330475,107.637871 452.843628,109.731461 454.505463,111.060875 
	C453.002441,112.287827 451.674469,114.131081 449.961212,114.617714 
	C445.985138,115.747063 441.700714,115.829414 437.766144,117.056923 
	C432.451355,118.714996 429.665741,123.756622 430.316620,129.218704 
	C430.975037,134.744202 434.842590,138.952118 440.670410,138.750580 
	C445.410431,138.586685 450.093048,136.762207 454.975739,135.633789 
	C456.999573,141.071640 462.290375,136.748154 465.570435,137.817581 
	C465.141266,134.229843 464.504089,130.861832 464.386017,127.475716 
	C464.188690,121.815765 464.675415,116.112350 464.166382,110.491333 
	C463.918579,107.755379 462.071472,105.164268 460.342987,102.064720 
M383.941223,119.508705 
	C383.941162,117.677681 383.942169,115.846664 383.940857,114.015640 
	C383.933411,103.398880 380.020050,99.359642 369.254211,99.104797 
	C366.783325,99.046303 364.254608,99.271820 361.831665,99.759674 
	C355.022919,101.130615 352.338684,104.315018 351.375946,112.034416 
	C355.367065,111.852119 359.606903,114.189484 362.522125,108.803017 
	C363.276794,107.408630 367.090240,107.007828 369.345978,107.305931 
	C371.023773,107.527657 372.455170,109.613960 373.996307,110.869812 
	C372.571808,112.147209 371.339447,114.092941 369.684448,114.568810 
	C365.718811,115.709061 361.436432,115.772461 357.498291,116.977676 
	C351.724213,118.744759 349.101471,123.722565 349.978455,129.952866 
	C350.688354,134.996155 354.733917,139.024734 360.402435,138.776566 
	C365.001099,138.575241 369.531647,136.818588 374.453003,135.667389 
	C376.549561,141.074646 381.742340,136.706924 384.644012,137.776825 
	C384.403534,131.864258 384.172394,126.181091 383.941223,119.508705 
M329.765106,495.090027 
	C318.412384,496.942505 312.875092,503.920471 313.133759,516.048462 
	C313.365479,526.915527 319.207611,533.754395 329.227875,534.888672 
	C338.992737,535.994019 346.259796,531.622437 348.555389,523.088196 
	C344.200714,523.108521 340.053802,521.930664 336.055054,525.677917 
	C334.495667,527.139221 329.848572,526.585327 327.365051,525.383972 
	C325.303375,524.386658 324.352081,521.094116 322.131104,517.591919 
	C332.442505,517.591919 340.835266,517.591919 349.153137,517.591919 
	C350.394714,503.179596 343.758728,495.324738 329.765106,495.090027 
M547.713745,134.242294 
	C554.569031,127.201180 555.137695,118.905785 552.028625,110.196793 
	C549.519836,103.169579 542.834839,99.068588 534.728638,99.069572 
	C526.787903,99.070541 520.441406,102.057648 516.961792,109.561447 
	C512.989258,118.128136 515.210327,129.437561 521.719238,134.775909 
	C528.652100,140.461975 538.946533,140.442352 547.713745,134.242294 
M120.127930,409.628540 
	C120.162231,416.289551 119.844505,422.975372 120.311302,429.605927 
	C121.057251,440.201691 131.350922,445.517029 140.214462,440.143524 
	C141.591782,439.308533 142.791092,438.179901 144.530975,436.832031 
	C144.794952,438.425964 144.990524,439.606781 145.195557,440.844849 
	C148.221100,440.844849 151.023239,440.844849 154.072601,440.844849 
	C154.072601,428.245300 154.072601,415.813263 154.072601,403.346069 
	C150.806519,403.346069 147.741531,403.346069 144.275711,403.346069 
	C144.275711,410.651367 144.370041,417.621399 144.246780,424.587585 
	C144.142365,430.487610 141.288742,433.634521 136.483917,433.535400 
	C132.028168,433.443420 130.186172,430.922699 130.154556,424.709442 
	C130.118393,417.604919 130.146179,410.500061 130.146179,403.372070 
	C126.515808,403.372070 123.473488,403.372070 120.127960,403.372070 
	C120.127960,405.381073 120.127960,407.024323 120.127930,409.628540 
M257.509827,534.010254 
	C259.255341,534.010254 261.000885,534.010254 262.965759,534.010254 
	C262.965759,525.126648 262.916748,516.987183 262.982605,508.848633 
	C263.028168,503.216309 261.245758,498.539062 255.773422,496.325012 
	C249.923492,493.958160 244.354599,494.463104 239.792328,499.450958 
	C239.500931,499.769531 239.008392,499.904175 238.413116,500.232697 
	C238.206772,498.762573 238.031113,497.510986 237.866318,496.336975 
	C234.793518,496.336975 231.893295,496.336975 229.062805,496.336975 
	C229.062805,509.040466 229.062805,521.410217 229.062805,533.733398 
	C232.376358,533.733398 235.304657,533.733398 238.846176,533.733398 
	C238.846176,525.845398 238.628510,518.218811 238.926437,510.612457 
	C239.110046,505.924622 242.420013,503.334167 246.893387,503.549042 
	C251.691437,503.779449 252.953491,506.891052 252.952438,511.024323 
	C252.950775,517.514160 253.091919,524.008118 252.894119,530.491943 
	C252.805847,533.385620 253.820541,534.428650 257.509827,534.010254 
M566.512756,138.014771 
	C567.945862,137.922943 569.378967,137.831116 571.101074,137.720779 
	C571.101074,130.409119 570.993835,123.442802 571.134399,116.481491 
	C571.250793,110.713364 574.190796,107.537476 579.007202,107.539604 
	C583.639404,107.541649 585.311157,109.742561 585.359924,116.159714 
	C585.414062,123.279358 585.372314,130.399734 585.372314,137.729004 
	C588.928284,137.729004 591.975220,137.729004 595.228577,137.729004 
	C595.228577,128.318802 595.391724,119.187454 595.167297,110.065643 
	C595.032715,104.595787 591.737854,101.321899 586.591003,99.720612 
	C580.589233,97.853310 575.629089,99.836067 571.492859,103.812744 
	C569.650146,97.324623 564.893066,101.054176 561.368530,100.032372 
	C561.368530,112.897148 561.368530,125.271103 561.368530,138.014755 
	C562.961670,138.014755 564.265076,138.014755 566.512756,138.014771 
M296.732666,495.461548 
	C291.060242,494.054077 286.367065,496.013916 282.266418,500.102814 
	C280.956146,492.755035 275.842743,497.358307 272.349426,495.886871 
	C272.349426,508.841522 272.349426,521.222900 272.349426,533.690552 
	C275.691040,533.690552 278.744598,533.690552 282.101471,533.690552 
	C282.101471,526.399780 281.992371,519.427368 282.135376,512.460144 
	C282.253723,506.693146 285.211426,503.519867 290.037933,503.539734 
	C294.657440,503.558746 296.313080,505.760559 296.360413,512.199097 
	C296.412781,519.322021 296.372375,526.445557 296.372375,533.701416 
	C299.958771,533.701416 303.005554,533.701416 306.350281,533.701416 
	C306.350281,524.753784 306.404602,516.114868 306.331726,507.477112 
	C306.280853,501.445770 303.423370,497.396637 296.732666,495.461548 
M173.943909,440.210876 
	C173.994553,433.392639 173.972336,426.572845 174.117584,419.756622 
	C174.246750,413.694977 177.233459,410.405823 182.230621,410.540100 
	C186.763443,410.661926 188.322357,412.852478 188.362885,419.382874 
	C188.407028,426.493408 188.372910,433.604431 188.372910,440.847900 
	C191.962708,440.847900 194.927200,440.847900 197.990158,440.847900 
	C198.140564,440.063721 198.368484,439.425964 198.369263,438.787903 
	C198.379059,430.636658 198.591797,422.476440 198.281250,414.336456 
	C197.907913,404.551575 187.992722,398.961304 179.174484,403.392822 
	C177.457657,404.255585 176.012177,405.658325 174.402069,406.841034 
	C173.147018,402.415527 171.814011,402.013458 164.067505,403.763428 
	C164.067505,409.818848 164.067505,415.951019 164.067505,422.083160 
	C164.067505,428.333832 164.067505,434.584503 164.067505,440.883026 
	C167.633057,440.883026 170.453461,440.883026 173.943909,440.210876 
M219.242798,402.430267 
	C212.555222,403.775604 207.925949,407.708221 206.600433,414.331512 
	C205.673904,418.961029 205.505463,423.931885 206.061462,428.624329 
	C206.910660,435.791534 211.709442,440.479523 218.646942,441.637939 
	C225.961380,442.859344 232.740021,441.729523 237.219299,435.036285 
	C238.670456,432.867889 239.294724,430.146088 240.476440,427.236115 
	C236.469269,427.236115 233.496582,427.236115 230.523911,427.236115 
	C230.761108,427.643280 230.998322,428.050476 231.235535,428.457642 
	C228.560074,430.233337 226.071655,432.753082 223.135376,433.491211 
	C221.508652,433.900146 217.551483,431.518005 217.378555,430.067902 
	C216.751770,424.811951 216.358658,419.180603 217.654007,414.148193 
	C218.776718,409.786438 226.392288,408.924408 228.277100,412.749817 
	C231.260834,418.805725 235.620895,416.320740 240.119934,416.352539 
	C239.982239,415.058838 240.000305,414.225159 239.794617,413.450897 
	C237.644577,405.358673 230.927292,401.557831 219.242798,402.430267 
M402.836487,127.485428 
	C402.626801,122.465309 401.512848,117.268295 402.450958,112.472702 
	C403.476196,107.231773 411.564392,105.406136 413.735504,109.695862 
	C416.805298,115.761284 421.131531,113.275047 427.191833,113.442345 
	C424.532410,109.160271 423.165466,105.471367 420.588898,103.092651 
	C413.184662,96.257004 394.768188,96.881119 391.855316,112.371628 
	C391.015045,116.840149 390.913574,121.689522 391.670013,126.161903 
	C392.931946,133.622986 397.949799,137.987137 405.168945,138.822845 
	C412.562317,139.678741 419.191589,138.168381 423.270966,131.190781 
	C424.425751,129.215591 424.881226,126.831589 426.036072,123.563400 
	C421.578033,125.216827 417.607178,121.832840 415.021820,126.286247 
	C411.862244,131.728745 408.579498,132.205688 402.836487,127.485428 
M341.857208,113.474152 
	C343.353485,109.150658 344.849792,104.827164 346.463623,100.164047 
	C342.656708,100.164047 339.518768,100.164047 336.078094,100.164047 
	C333.514801,108.809975 330.948303,117.466644 328.381836,126.123314 
	C328.039856,126.104568 327.697906,126.085831 327.355957,126.067093 
	C324.880493,117.414894 322.405029,108.762695 319.989044,100.318344 
	C316.136597,100.318344 312.749176,100.318344 308.967194,100.318344 
	C313.582886,113.159729 318.050964,125.590469 322.515839,138.012329 
	C324.369720,138.012329 325.727600,137.823578 327.014252,138.046371 
	C331.566498,138.834625 333.832855,137.091568 335.088928,132.522644 
	C336.801483,126.293068 339.369263,120.298607 341.857208,113.474152 
M392.551056,186.924316 
	C392.175903,182.339661 390.029724,181.626495 382.369873,183.754486 
	C382.369873,186.605621 382.369873,189.557205 382.369873,192.524033 
	C380.501953,192.918137 378.960632,193.243332 377.583374,193.533920 
	C377.583374,195.819107 377.583374,197.757156 377.583374,199.756958 
	C379.275482,200.042404 380.688873,200.280823 382.534241,200.592117 
	C382.534241,207.414368 382.506500,214.043228 382.541077,220.671799 
	C382.587006,229.476883 384.571442,231.430603 393.489227,231.441299 
	C395.124878,231.443268 396.760803,231.206863 398.592651,231.065338 
	C398.592651,228.649384 398.592651,226.545486 398.592651,225.349564 
	C396.267914,223.750519 392.985474,222.614349 392.876221,221.228058 
	C392.334106,214.350616 392.628998,207.407196 392.628998,200.500778 
	C395.048157,200.181717 396.786682,199.952408 398.427155,199.736038 
	C398.427155,197.318741 398.427155,195.269867 398.427155,193.267944 
	C396.278503,193.025177 394.521271,192.826630 392.551666,192.604095 
	C392.551666,190.786331 392.551666,189.295975 392.551056,186.924316 
M484.839783,94.570457 
	C484.750000,93.124084 484.660217,91.677719 484.571533,90.248947 
	C481.140717,90.248947 478.088013,90.248947 474.739136,90.248947 
	C474.739136,93.601997 474.739136,96.567642 474.739136,99.685135 
	C472.925781,99.947212 471.388306,100.169418 469.894653,100.385292 
	C469.894653,102.775444 469.894653,104.740463 469.894653,106.828590 
	C471.517578,107.037781 472.955383,107.223106 474.873718,107.470375 
	C474.873718,115.247353 474.883301,122.878059 474.869415,130.508713 
	C474.863037,134.006119 475.984283,137.044724 479.672760,137.706512 
	C483.291718,138.355835 487.057190,138.188644 490.709106,138.377258 
	C490.709106,135.333054 490.709106,133.229370 490.709106,131.125687 
	C490.388580,131.400009 490.068054,131.674316 489.747528,131.948639 
	C488.117981,130.592361 485.191223,129.333282 485.081024,127.863113 
	C484.575897,121.122627 484.858887,114.323082 484.858887,107.326004 
	C487.151367,107.162643 488.904999,107.037674 490.696106,106.910042 
	C490.696106,104.481316 490.696106,102.412102 490.696106,100.232895 
	C488.664673,100.061478 486.912079,99.913582 484.840027,99.738731 
	C484.840027,98.115135 484.840027,96.810768 484.839783,94.570457 
M104.663101,441.018280 
	C106.570946,441.018280 108.478790,441.018280 110.376678,441.018280 
	C110.376678,423.575409 110.376678,406.890961 110.376678,390.218475 
	C106.969162,390.218475 103.909477,390.218475 100.675323,390.218475 
	C100.675323,406.375000 100.711411,422.162018 100.636253,437.948456 
	C100.625038,440.304504 101.372284,441.367767 104.663101,441.018280 
M368.535675,499.033051 
	C368.012909,499.586426 367.490173,500.139832 366.504333,501.183441 
	C366.190430,499.068451 365.968414,497.572845 365.778168,496.290955 
	C362.541138,496.290955 359.783661,496.290955 357.019470,496.290955 
	C357.019470,508.972839 357.019470,521.363220 357.019470,533.771667 
	C360.307556,533.771667 363.246246,533.771667 366.760559,533.771667 
	C366.760559,526.917480 366.621674,520.294067 366.803619,513.679565 
	C366.954803,508.183167 369.203033,505.954102 374.656708,505.233582 
	C375.935638,505.064575 377.221802,504.950409 378.358582,504.826904 
	C378.358582,501.460510 378.358582,498.397247 378.358582,493.696442 
	C374.593262,495.619995 371.803589,497.045105 368.535675,499.033051 
M418.456177,203.729950 
	C421.255859,202.970535 424.055542,202.211136 426.742371,201.482346 
	C426.742371,198.374680 426.742371,195.308182 426.742371,190.591843 
	C422.170471,193.034897 418.582245,194.952332 415.021912,196.854858 
	C414.857605,196.058472 414.552551,194.579727 414.277496,193.246277 
	C411.114075,193.246277 408.338409,193.246277 405.356140,193.246277 
	C405.356140,205.862595 405.356140,218.237045 405.356140,230.684570 
	C408.699615,230.684570 411.751434,230.684570 415.086670,230.684570 
	C415.086670,224.392044 414.808014,218.405212 415.208923,212.464218 
	C415.397888,209.664230 416.891632,206.952316 418.456177,203.729950 
M433.283783,216.491913 
	C433.283783,221.250427 433.283783,226.008957 433.283783,230.835541 
	C436.969147,230.835541 439.928558,230.835541 443.108337,230.835541 
	C443.108337,218.231552 443.108337,205.811142 443.108337,193.322311 
	C439.821320,193.322311 436.760162,193.322311 433.283813,193.322311 
	C433.283813,200.925812 433.283813,208.210037 433.283783,216.491913 
M497.669678,107.651299 
	C497.669678,117.700989 497.669678,127.750679 497.669678,137.744827 
	C501.381653,137.744827 504.308594,137.744827 507.391876,137.744827 
	C507.391876,125.089088 507.391876,112.709213 507.391876,100.164932 
	C504.108948,100.164932 501.150360,100.164932 497.669708,100.164932 
	C497.669708,102.449028 497.669708,104.573738 497.669678,107.651299 
M208.919693,527.416870 
	C208.919693,529.514465 208.919693,531.612122 208.919693,533.625732 
	C212.603363,533.625732 215.648590,533.625732 218.679077,533.625732 
	C218.679077,520.995605 218.679077,508.749298 218.679077,496.300232 
	C215.383545,496.300232 212.336945,496.300232 208.919693,496.300232 
	C208.919693,506.535217 208.919693,516.483826 208.919693,527.416870 
M146.854691,509.655029 
	C142.121567,505.720215 136.991684,505.187500 132.825058,508.198029 
	C129.029312,510.940643 127.592911,516.730591 129.598785,521.202881 
	C131.404236,525.228333 136.136490,527.648682 140.746262,526.904358 
	C148.441406,525.661804 151.382751,518.184692 146.854691,509.655029 
M281.611206,130.033447 
	C285.952087,132.400085 290.258270,132.498322 294.181000,129.312042 
	C297.407501,126.691277 298.705139,123.115089 297.644958,119.021034 
	C296.507080,114.626968 293.730560,111.595840 289.090820,111.046097 
	C284.390411,110.489197 280.570709,112.276131 278.225830,116.553513 
	C275.852814,120.882233 276.768860,124.989014 281.611206,130.033447 
M345.466125,215.183136 
	C347.470428,224.009842 356.545410,227.516129 362.704926,221.843643 
	C366.168427,218.653976 367.078705,213.348984 364.896729,209.070236 
	C362.853271,205.063065 358.481140,203.129028 353.510254,204.033310 
	C348.662903,204.915100 346.195190,208.071442 345.466125,215.183136 
M84.421600,428.432159 
	C84.669205,426.965973 85.106934,425.502991 85.131401,424.033081 
	C85.235451,417.780426 81.461784,413.833771 75.480019,413.785828 
	C68.692963,413.731384 64.796387,417.562134 64.820137,424.131531 
	C64.836433,428.638763 66.873466,431.804199 70.981583,433.490417 
	C75.730133,435.439545 80.125389,433.892731 84.421600,428.432159 
M434.962677,179.197052 
	C434.198914,182.047272 433.435181,184.897491 432.514404,188.333633 
	C436.790161,188.333633 439.796295,188.333633 443.040009,188.333633 
	C443.040009,185.192978 443.040009,182.325760 443.040009,179.151520 
	C440.413239,179.151520 438.124756,179.151520 434.962677,179.197052 
M506.782318,95.374321 
	C507.173859,92.466003 507.565399,89.557686 507.997803,86.345825 
	C504.097504,86.345825 501.182007,86.345825 498.102478,86.345825 
	C498.102478,89.459763 498.102478,92.432671 498.102478,95.596558 
	C501.037872,95.596558 503.495239,95.596558 506.782318,95.374321 
M208.929626,490.119354 
	C212.122894,490.763947 215.316162,491.408539 218.639847,492.079468 
	C218.639847,488.025726 218.639847,485.297272 218.639847,482.489258 
	C215.264252,482.489258 212.232422,482.489258 208.881927,482.489258 
	C208.881927,484.964508 208.881927,487.092773 208.929626,490.119354 
z"/>
<path fill="#070402" opacity="1.000000" stroke="none" 
	d="
M485.554810,226.524292 
	C478.663666,233.513168 471.731750,233.820465 463.151825,227.344315 
	C463.151825,233.595963 463.151825,239.457092 463.151825,245.572296 
	C459.676117,245.572296 456.749847,245.572296 453.444092,245.572296 
	C453.444092,228.291870 453.444092,211.052048 453.444092,193.767120 
	C460.159698,191.895752 462.105469,192.462784 463.334869,197.053268 
	C468.363556,191.980652 474.187897,190.428787 480.602081,193.563080 
	C487.371735,196.871078 490.123596,203.130844 489.722229,210.076706 
	C489.407532,215.522522 487.169250,220.857193 485.554810,226.524292 
M477.731354,220.034927 
	C478.101196,215.532150 479.112244,210.961258 478.643341,206.547577 
	C478.249481,202.840546 475.112213,200.781387 471.038727,200.818222 
	C467.191589,200.853027 464.535767,202.708755 463.756317,206.320572 
	C463.070862,209.496948 462.371063,213.107483 463.250519,216.057297 
	C464.076019,218.825882 466.542145,222.134979 469.068573,223.052689 
	C471.229797,223.837723 474.499603,221.570801 477.731354,220.034927 
z"/>
<path fill="#060302" opacity="1.000000" stroke="none" 
	d="
M165.296509,502.439514 
	C172.182709,493.620605 178.902191,492.796082 189.166519,499.601074 
	C189.166519,496.688477 189.166534,494.089874 189.166534,491.491302 
	C189.166534,488.855286 189.166519,486.219238 189.166519,483.222107 
	C192.567673,483.222107 195.600739,483.222107 198.893265,483.222107 
	C198.893265,500.070374 198.893265,516.794312 198.893265,534.011169 
	C195.275604,533.060303 190.890228,536.529602 188.725677,531.047485 
	C179.674271,538.707642 164.579300,536.036011 162.945816,519.230835 
	C162.423721,513.859680 164.313889,508.254089 165.296509,502.439514 
M183.614197,526.297729 
	C190.210327,522.614258 192.059296,511.458069 186.773071,506.150085 
	C185.603180,504.975403 183.673660,504.161285 181.999237,503.956940 
	C176.256180,503.256012 172.897507,507.294983 172.750061,514.699036 
	C172.582901,523.093323 175.817490,526.875061 183.614197,526.297729 
z"/>
<path fill="#090503" opacity="1.000000" stroke="none" 
	d="
M268.925201,402.056641 
	C278.084259,403.390259 281.614807,407.225189 281.750885,415.945343 
	C281.877686,424.070129 281.777985,432.198425 281.777985,440.669983 
	C278.357483,440.669983 275.289124,440.669983 271.746552,440.669983 
	C271.746552,433.730042 271.771515,426.771179 271.739441,419.812561 
	C271.708344,413.069336 270.011780,410.636047 265.386505,410.549500 
	C260.408203,410.456390 257.525116,413.640411 257.376923,419.885925 
	C257.215454,426.691528 257.340240,433.503906 257.340240,440.664398 
	C254.000961,440.664398 250.958786,440.664398 247.594421,440.664398 
	C247.594421,423.918640 247.594421,407.179291 247.594421,390.143005 
	C250.672363,390.143005 253.750519,390.143005 257.442139,390.143005 
	C257.442139,395.472260 257.442139,400.671539 257.442139,405.413147 
	C261.438660,404.196411 264.972534,403.120483 268.925201,402.056641 
z"/>
<path fill="#060402" opacity="1.000000" stroke="none" 
	d="
M460.645691,102.286148 
	C462.071472,105.164268 463.918579,107.755379 464.166382,110.491333 
	C464.675415,116.112350 464.188690,121.815765 464.386017,127.475716 
	C464.504089,130.861832 465.141266,134.229843 465.570435,137.817581 
	C462.290375,136.748154 456.999573,141.071640 454.975739,135.633789 
	C450.093048,136.762207 445.410431,138.586685 440.670410,138.750580 
	C434.842590,138.952118 430.975037,134.744202 430.316620,129.218704 
	C429.665741,123.756622 432.451355,118.714996 437.766144,117.056923 
	C441.700714,115.829414 445.985138,115.747063 449.961212,114.617714 
	C451.674469,114.131081 453.002441,112.287827 454.505463,111.060883 
	C452.843628,109.731461 451.330475,107.637871 449.480011,107.277763 
	C447.444153,106.881569 443.798096,107.399643 443.116241,108.703087 
	C440.427460,113.842804 436.209930,111.949448 432.090485,112.135132 
	C431.661499,107.377022 433.517090,103.578568 437.381897,101.615013 
	C444.951019,97.769485 452.767609,97.891159 460.645691,102.286148 
M440.714050,125.235893 
	C441.349854,127.231163 441.803986,130.833084 442.654480,130.929245 
	C445.543701,131.255875 448.934601,131.044617 451.462952,129.739288 
	C455.149078,127.836189 455.193085,124.038414 454.107605,119.466827 
	C449.472443,121.263931 445.248749,122.901497 440.714050,125.235893 
z"/>
<path fill="#060402" opacity="1.000000" stroke="none" 
	d="
M383.941223,120.003311 
	C384.172394,126.181091 384.403534,131.864258 384.644012,137.776825 
	C381.742340,136.706924 376.549561,141.074646 374.453003,135.667389 
	C369.531647,136.818588 365.001099,138.575241 360.402435,138.776566 
	C354.733917,139.024734 350.688354,134.996155 349.978455,129.952866 
	C349.101471,123.722565 351.724213,118.744759 357.498291,116.977676 
	C361.436432,115.772461 365.718811,115.709061 369.684448,114.568810 
	C371.339447,114.092941 372.571808,112.147209 373.996307,110.869804 
	C372.455170,109.613960 371.023773,107.527657 369.345978,107.305931 
	C367.090240,107.007828 363.276794,107.408630 362.522125,108.803017 
	C359.606903,114.189484 355.367065,111.852119 351.375946,112.034416 
	C352.338684,104.315018 355.022919,101.130615 361.831665,99.759674 
	C364.254608,99.271820 366.783325,99.046303 369.254211,99.104797 
	C380.020050,99.359642 383.933411,103.398880 383.940857,114.015640 
	C383.942169,115.846664 383.941162,117.677681 383.941223,120.003311 
M371.250275,129.767502 
	C372.490845,126.806885 373.731415,123.846275 375.399139,119.866249 
	C370.273865,120.967918 366.675659,121.182884 363.647583,122.608749 
	C361.923706,123.420479 359.969818,126.414421 360.256989,128.050598 
	C360.526520,129.586487 363.466278,131.177933 365.500305,131.703934 
	C366.964661,132.082626 368.871155,130.751480 371.250275,129.767502 
z"/>
<path fill="#080503" opacity="1.000000" stroke="none" 
	d="
M330.200348,495.073853 
	C343.758728,495.324738 350.394714,503.179596 349.153137,517.591919 
	C340.835266,517.591919 332.442505,517.591919 322.131104,517.591919 
	C324.352081,521.094116 325.303375,524.386658 327.365051,525.383972 
	C329.848572,526.585327 334.495667,527.139221 336.055054,525.677917 
	C340.053802,521.930664 344.200714,523.108521 348.555389,523.088196 
	C346.259796,531.622437 338.992737,535.994019 329.227875,534.888672 
	C319.207611,533.754395 313.365479,526.915527 313.133759,516.048462 
	C312.875092,503.920471 318.412384,496.942505 330.200348,495.073853 
M338.695984,510.795258 
	C338.185425,505.857330 335.677734,503.225037 331.466553,503.206604 
	C327.105286,503.187561 324.660767,505.664459 324.077118,511.110474 
	C328.708252,511.110474 333.297211,511.110474 338.695984,510.795258 
z"/>
<path fill="#080403" opacity="1.000000" stroke="none" 
	d="
M547.445801,134.484848 
	C538.946533,140.442352 528.652100,140.461975 521.719238,134.775909 
	C515.210327,129.437561 512.989258,118.128136 516.961792,109.561447 
	C520.441406,102.057648 526.787903,99.070541 534.728638,99.069572 
	C542.834839,99.068588 549.519836,103.169579 552.028625,110.196793 
	C555.137695,118.905785 554.569031,127.201180 547.445801,134.484848 
M531.183472,108.037476 
	C525.061707,111.871895 523.298462,122.275955 527.854919,127.677559 
	C530.560852,130.885422 536.257935,131.489777 539.652954,128.929138 
	C543.139587,126.299408 544.535278,118.509811 542.463013,113.113647 
	C540.576172,108.200394 536.839722,106.922966 531.183472,108.037476 
z"/>
<path fill="#060402" opacity="1.000000" stroke="none" 
	d="
M120.127945,409.148071 
	C120.127960,407.024323 120.127960,405.381073 120.127960,403.372070 
	C123.473488,403.372070 126.515808,403.372070 130.146179,403.372070 
	C130.146179,410.500061 130.118393,417.604919 130.154556,424.709442 
	C130.186172,430.922699 132.028168,433.443420 136.483917,433.535400 
	C141.288742,433.634521 144.142365,430.487610 144.246780,424.587585 
	C144.370041,417.621399 144.275711,410.651367 144.275711,403.346069 
	C147.741531,403.346069 150.806519,403.346069 154.072601,403.346069 
	C154.072601,415.813263 154.072601,428.245300 154.072601,440.844849 
	C151.023239,440.844849 148.221100,440.844849 145.195557,440.844849 
	C144.990524,439.606781 144.794952,438.425964 144.530975,436.832031 
	C142.791092,438.179901 141.591782,439.308533 140.214462,440.143524 
	C131.350922,445.517029 121.057251,440.201691 120.311302,429.605927 
	C119.844505,422.975372 120.162231,416.289551 120.127945,409.148071 
z"/>
<path fill="#050302" opacity="1.000000" stroke="none" 
	d="
M257.041260,534.010132 
	C253.820541,534.428650 252.805847,533.385620 252.894119,530.491943 
	C253.091919,524.008118 252.950775,517.514160 252.952438,511.024323 
	C252.953491,506.891052 251.691437,503.779449 246.893387,503.549042 
	C242.420013,503.334167 239.110046,505.924622 238.926437,510.612457 
	C238.628510,518.218811 238.846176,525.845398 238.846176,533.733398 
	C235.304657,533.733398 232.376358,533.733398 229.062805,533.733398 
	C229.062805,521.410217 229.062805,509.040466 229.062805,496.336975 
	C231.893295,496.336975 234.793518,496.336975 237.866318,496.336975 
	C238.031113,497.510986 238.206772,498.762573 238.413116,500.232697 
	C239.008392,499.904175 239.500931,499.769531 239.792328,499.450958 
	C244.354599,494.463104 249.923492,493.958160 255.773422,496.325012 
	C261.245758,498.539062 263.028168,503.216309 262.982605,508.848633 
	C262.916748,516.987183 262.965759,525.126648 262.965759,534.010254 
	C261.000885,534.010254 259.255341,534.010254 257.041260,534.010132 
z"/>
<path fill="#070403" opacity="1.000000" stroke="none" 
	d="
M566.040649,138.014771 
	C564.265076,138.014755 562.961670,138.014755 561.368530,138.014755 
	C561.368530,125.271103 561.368530,112.897148 561.368530,100.032372 
	C564.893066,101.054176 569.650146,97.324623 571.492859,103.812744 
	C575.629089,99.836067 580.589233,97.853310 586.591003,99.720612 
	C591.737854,101.321899 595.032715,104.595787 595.167297,110.065643 
	C595.391724,119.187454 595.228577,128.318802 595.228577,137.729004 
	C591.975220,137.729004 588.928284,137.729004 585.372314,137.729004 
	C585.372314,130.399734 585.414062,123.279358 585.359924,116.159714 
	C585.311157,109.742561 583.639404,107.541649 579.007202,107.539604 
	C574.190796,107.537476 571.250793,110.713364 571.134399,116.481491 
	C570.993835,123.442802 571.101074,130.409119 571.101074,137.720779 
	C569.378967,137.831116 567.945862,137.922943 566.040649,138.014771 
z"/>
<path fill="#070403" opacity="1.000000" stroke="none" 
	d="
M297.115784,495.587280 
	C303.423370,497.396637 306.280853,501.445770 306.331726,507.477112 
	C306.404602,516.114868 306.350281,524.753784 306.350281,533.701416 
	C303.005554,533.701416 299.958771,533.701416 296.372375,533.701416 
	C296.372375,526.445557 296.412781,519.322021 296.360413,512.199097 
	C296.313080,505.760559 294.657440,503.558746 290.037933,503.539734 
	C285.211426,503.519867 282.253723,506.693146 282.135376,512.460144 
	C281.992371,519.427368 282.101471,526.399780 282.101471,533.690552 
	C278.744598,533.690552 275.691040,533.690552 272.349426,533.690552 
	C272.349426,521.222900 272.349426,508.841522 272.349426,495.886871 
	C275.842743,497.358307 280.956146,492.755035 282.266418,500.102814 
	C286.367065,496.013916 291.060242,494.054077 297.115784,495.587280 
z"/>
<path fill="#070403" opacity="1.000000" stroke="none" 
	d="
M173.608887,440.546936 
	C170.453461,440.883026 167.633057,440.883026 164.067505,440.883026 
	C164.067505,434.584503 164.067505,428.333832 164.067505,422.083160 
	C164.067505,415.951019 164.067505,409.818848 164.067505,403.763428 
	C171.814011,402.013458 173.147018,402.415527 174.402069,406.841034 
	C176.012177,405.658325 177.457657,404.255585 179.174484,403.392822 
	C187.992722,398.961304 197.907913,404.551575 198.281250,414.336456 
	C198.591797,422.476440 198.379059,430.636658 198.369263,438.787903 
	C198.368484,439.425964 198.140564,440.063721 197.990158,440.847900 
	C194.927200,440.847900 191.962708,440.847900 188.372910,440.847900 
	C188.372910,433.604431 188.407028,426.493408 188.362885,419.382874 
	C188.322357,412.852478 186.763443,410.661926 182.230621,410.540100 
	C177.233459,410.405823 174.246750,413.694977 174.117584,419.756622 
	C173.972336,426.572845 173.994553,433.392639 173.608887,440.546936 
z"/>
<path fill="#090503" opacity="1.000000" stroke="none" 
	d="
M219.655914,402.341156 
	C230.927292,401.557831 237.644577,405.358673 239.794617,413.450897 
	C240.000305,414.225159 239.982239,415.058838 240.119934,416.352539 
	C235.620895,416.320740 231.260834,418.805725 228.277100,412.749817 
	C226.392288,408.924408 218.776718,409.786438 217.654007,414.148193 
	C216.358658,419.180603 216.751770,424.811951 217.378555,430.067902 
	C217.551483,431.518005 221.508652,433.900146 223.135376,433.491211 
	C226.071655,432.753082 228.560074,430.233337 231.235535,428.457642 
	C230.998322,428.050476 230.761108,427.643280 230.523911,427.236115 
	C233.496582,427.236115 236.469269,427.236115 240.476440,427.236115 
	C239.294724,430.146088 238.670456,432.867889 237.219299,435.036285 
	C232.740021,441.729523 225.961380,442.859344 218.646942,441.637939 
	C211.709442,440.479523 206.910660,435.791534 206.061462,428.624329 
	C205.505463,423.931885 205.673904,418.961029 206.600433,414.331512 
	C207.925949,407.708221 212.555222,403.775604 219.655914,402.341156 
z"/>
<path fill="#080403" opacity="1.000000" stroke="none" 
	d="
M403.067841,127.837044 
	C408.579498,132.205688 411.862244,131.728745 415.021820,126.286247 
	C417.607178,121.832840 421.578033,125.216827 426.036072,123.563400 
	C424.881226,126.831589 424.425751,129.215591 423.270966,131.190781 
	C419.191589,138.168381 412.562317,139.678741 405.168945,138.822845 
	C397.949799,137.987137 392.931946,133.622986 391.670013,126.161903 
	C390.913574,121.689522 391.015045,116.840149 391.855316,112.371628 
	C394.768188,96.881119 413.184662,96.257004 420.588898,103.092651 
	C423.165466,105.471367 424.532410,109.160271 427.191833,113.442345 
	C421.131531,113.275047 416.805298,115.761284 413.735504,109.695862 
	C411.564392,105.406136 403.476196,107.231773 402.450958,112.472702 
	C401.512848,117.268295 402.626801,122.465309 403.067841,127.837044 
z"/>
<path fill="#060402" opacity="1.000000" stroke="none" 
	d="
M341.713806,113.838745 
	C339.369263,120.298607 336.801483,126.293068 335.088928,132.522644 
	C333.832855,137.091568 331.566498,138.834625 327.014252,138.046371 
	C325.727600,137.823578 324.369720,138.012329 322.515839,138.012329 
	C318.050964,125.590469 313.582886,113.159729 308.967194,100.318344 
	C312.749176,100.318344 316.136597,100.318344 319.989044,100.318344 
	C322.405029,108.762695 324.880493,117.414894 327.355957,126.067093 
	C327.697906,126.085831 328.039856,126.104568 328.381836,126.123314 
	C330.948303,117.466644 333.514801,108.809975 336.078094,100.164047 
	C339.518768,100.164047 342.656708,100.164047 346.463623,100.164047 
	C344.849792,104.827164 343.353485,109.150658 341.713806,113.838745 
z"/>
<path fill="#090503" opacity="1.000000" stroke="none" 
	d="
M392.551361,187.364960 
	C392.551666,189.295975 392.551666,190.786331 392.551666,192.604095 
	C394.521271,192.826630 396.278503,193.025177 398.427155,193.267944 
	C398.427155,195.269867 398.427155,197.318741 398.427155,199.736038 
	C396.786682,199.952408 395.048157,200.181717 392.628998,200.500778 
	C392.628998,207.407196 392.334106,214.350616 392.876221,221.228058 
	C392.985474,222.614349 396.267914,223.750519 398.592651,225.349564 
	C398.592651,226.545486 398.592651,228.649384 398.592651,231.065338 
	C396.760803,231.206863 395.124878,231.443268 393.489227,231.441299 
	C384.571442,231.430603 382.587006,229.476883 382.541077,220.671799 
	C382.506500,214.043228 382.534241,207.414368 382.534241,200.592117 
	C380.688873,200.280823 379.275482,200.042404 377.583374,199.756958 
	C377.583374,197.757156 377.583374,195.819107 377.583374,193.533920 
	C378.960632,193.243332 380.501953,192.918137 382.369873,192.524033 
	C382.369873,189.557205 382.369873,186.605621 382.369873,183.754486 
	C390.029724,181.626495 392.175903,182.339661 392.551361,187.364960 
z"/>
<path fill="#040201" opacity="1.000000" stroke="none" 
	d="
M484.839905,95.038437 
	C484.840027,96.810768 484.840027,98.115135 484.840027,99.738731 
	C486.912079,99.913582 488.664673,100.061478 490.696106,100.232895 
	C490.696106,102.412102 490.696106,104.481316 490.696106,106.910042 
	C488.904999,107.037674 487.151367,107.162643 484.858887,107.326004 
	C484.858887,114.323082 484.575897,121.122627 485.081024,127.863113 
	C485.191223,129.333282 488.117981,130.592361 489.747528,131.948639 
	C490.068054,131.674316 490.388580,131.400009 490.709106,131.125687 
	C490.709106,133.229370 490.709106,135.333054 490.709106,138.377258 
	C487.057190,138.188644 483.291718,138.355835 479.672760,137.706512 
	C475.984283,137.044724 474.863037,134.006119 474.869415,130.508713 
	C474.883301,122.878059 474.873718,115.247353 474.873718,107.470375 
	C472.955383,107.223106 471.517578,107.037781 469.894653,106.828590 
	C469.894653,104.740463 469.894653,102.775444 469.894653,100.385292 
	C471.388306,100.169418 472.925781,99.947212 474.739136,99.685135 
	C474.739136,96.567642 474.739136,93.601997 474.739136,90.248947 
	C478.088013,90.248947 481.140717,90.248947 484.571533,90.248947 
	C484.660217,91.677719 484.750000,93.124084 484.839905,95.038437 
z"/>
<path fill="#090503" opacity="1.000000" stroke="none" 
	d="
M104.214584,441.017792 
	C101.372284,441.367767 100.625038,440.304504 100.636253,437.948456 
	C100.711411,422.162018 100.675323,406.375000 100.675323,390.218475 
	C103.909477,390.218475 106.969162,390.218475 110.376678,390.218475 
	C110.376678,406.890961 110.376678,423.575409 110.376678,441.018280 
	C108.478790,441.018280 106.570946,441.018280 104.214584,441.017792 
z"/>
<path fill="#070403" opacity="1.000000" stroke="none" 
	d="
M368.774780,498.751648 
	C371.803589,497.045105 374.593262,495.619995 378.358582,493.696442 
	C378.358582,498.397247 378.358582,501.460510 378.358582,504.826904 
	C377.221802,504.950409 375.935638,505.064575 374.656708,505.233582 
	C369.203033,505.954102 366.954803,508.183167 366.803619,513.679565 
	C366.621674,520.294067 366.760559,526.917480 366.760559,533.771667 
	C363.246246,533.771667 360.307556,533.771667 357.019470,533.771667 
	C357.019470,521.363220 357.019470,508.972839 357.019470,496.290955 
	C359.783661,496.290955 362.541138,496.290955 365.778168,496.290955 
	C365.968414,497.572845 366.190430,499.068451 366.504333,501.183441 
	C367.490173,500.139832 368.012909,499.586426 368.774780,498.751648 
z"/>
<path fill="#060302" opacity="1.000000" stroke="none" 
	d="
M418.125153,203.965225 
	C416.891632,206.952316 415.397888,209.664230 415.208923,212.464218 
	C414.808014,218.405212 415.086670,224.392044 415.086670,230.684570 
	C411.751434,230.684570 408.699615,230.684570 405.356140,230.684570 
	C405.356140,218.237045 405.356140,205.862595 405.356140,193.246277 
	C408.338409,193.246277 411.114075,193.246277 414.277496,193.246277 
	C414.552551,194.579727 414.857605,196.058472 415.021912,196.854858 
	C418.582245,194.952332 422.170471,193.034897 426.742371,190.591843 
	C426.742371,195.308182 426.742371,198.374680 426.742371,201.482346 
	C424.055542,202.211136 421.255859,202.970535 418.125153,203.965225 
z"/>
<path fill="#090503" opacity="1.000000" stroke="none" 
	d="
M433.283813,215.993103 
	C433.283813,208.210037 433.283813,200.925812 433.283813,193.322311 
	C436.760162,193.322311 439.821320,193.322311 443.108337,193.322311 
	C443.108337,205.811142 443.108337,218.231552 443.108337,230.835541 
	C439.928558,230.835541 436.969147,230.835541 433.283783,230.835541 
	C433.283783,226.008957 433.283783,221.250427 433.283813,215.993103 
z"/>
<path fill="#090503" opacity="1.000000" stroke="none" 
	d="
M497.669678,107.174866 
	C497.669708,104.573738 497.669708,102.449028 497.669708,100.164932 
	C501.150360,100.164932 504.108948,100.164932 507.391876,100.164932 
	C507.391876,112.709213 507.391876,125.089088 507.391876,137.744827 
	C504.308594,137.744827 501.381653,137.744827 497.669678,137.744827 
	C497.669678,127.750679 497.669678,117.700989 497.669678,107.174866 
z"/>
<path fill="#040201" opacity="1.000000" stroke="none" 
	d="
M208.919693,526.924683 
	C208.919693,516.483826 208.919693,506.535217 208.919693,496.300232 
	C212.336945,496.300232 215.383545,496.300232 218.679077,496.300232 
	C218.679077,508.749298 218.679077,520.995605 218.679077,533.625732 
	C215.648590,533.625732 212.603363,533.625732 208.919693,533.625732 
	C208.919693,531.612122 208.919693,529.514465 208.919693,526.924683 
z"/>
<path fill="#070403" opacity="1.000000" stroke="none" 
	d="
M147.076447,509.951874 
	C151.382751,518.184692 148.441406,525.661804 140.746262,526.904358 
	C136.136490,527.648682 131.404236,525.228333 129.598785,521.202881 
	C127.592911,516.730591 129.029312,510.940643 132.825058,508.198029 
	C136.991684,505.187500 142.121567,505.720215 147.076447,509.951874 
z"/>
<path fill="#060302" opacity="1.000000" stroke="none" 
	d="
M281.299133,129.818756 
	C276.768860,124.989014 275.852814,120.882233 278.225830,116.553513 
	C280.570709,112.276131 284.390411,110.489197 289.090820,111.046097 
	C293.730560,111.595840 296.507080,114.626968 297.644958,119.021034 
	C298.705139,123.115089 297.407501,126.691277 294.181000,129.312042 
	C290.258270,132.498322 285.952087,132.400085 281.299133,129.818756 
z"/>
<path fill="#070402" opacity="1.000000" stroke="none" 
	d="
M345.431519,214.796860 
	C346.195190,208.071442 348.662903,204.915100 353.510254,204.033310 
	C358.481140,203.129028 362.853271,205.063065 364.896729,209.070236 
	C367.078705,213.348984 366.168427,218.653976 362.704926,221.843643 
	C356.545410,227.516129 347.470428,224.009842 345.431519,214.796860 
z"/>
<path fill="#060302" opacity="1.000000" stroke="none" 
	d="
M84.234390,428.786163 
	C80.125389,433.892731 75.730133,435.439545 70.981583,433.490417 
	C66.873466,431.804199 64.836433,428.638763 64.820137,424.131531 
	C64.796387,417.562134 68.692963,413.731384 75.480019,413.785828 
	C81.461784,413.833771 85.235451,417.780426 85.131401,424.033081 
	C85.106934,425.502991 84.669205,426.965973 84.234390,428.786163 
z"/>
<path fill="#180E09" opacity="1.000000" stroke="none" 
	d="
M435.399475,179.174286 
	C438.124756,179.151520 440.413239,179.151520 443.040009,179.151520 
	C443.040009,182.325760 443.040009,185.192978 443.040009,188.333633 
	C439.796295,188.333633 436.790161,188.333633 432.514404,188.333633 
	C433.435181,184.897491 434.198914,182.047272 435.399475,179.174286 
z"/>
<path fill="#180E09" opacity="1.000000" stroke="none" 
	d="
M506.367462,95.485443 
	C503.495239,95.596558 501.037872,95.596558 498.102478,95.596558 
	C498.102478,92.432671 498.102478,89.459763 498.102478,86.345825 
	C501.182007,86.345825 504.097504,86.345825 507.997803,86.345825 
	C507.565399,89.557686 507.173859,92.466003 506.367462,95.485443 
z"/>
<path fill="#180E09" opacity="1.000000" stroke="none" 
	d="
M208.905777,489.670197 
	C208.881927,487.092773 208.881927,484.964508 208.881927,482.489258 
	C212.232422,482.489258 215.264252,482.489258 218.639847,482.489258 
	C218.639847,485.297272 218.639847,488.025726 218.639847,492.079468 
	C215.316162,491.408539 212.122894,490.763947 208.905777,489.670197 
z"/>
<path fill="#E58353" opacity="1.000000" stroke="none" 
	d="
M477.505219,220.344345 
	C474.499603,221.570801 471.229797,223.837723 469.068573,223.052689 
	C466.542145,222.134979 464.076019,218.825882 463.250519,216.057297 
	C462.371063,213.107483 463.070862,209.496948 463.756317,206.320572 
	C464.535767,202.708755 467.191589,200.853027 471.038727,200.818222 
	C475.112213,200.781387 478.249481,202.840546 478.643341,206.547577 
	C479.112244,210.961258 478.101196,215.532150 477.505219,220.344345 
z"/>
<path fill="#E68453" opacity="1.000000" stroke="none" 
	d="
M183.252747,526.426758 
	C175.817490,526.875061 172.582901,523.093323 172.750061,514.699036 
	C172.897507,507.294983 176.256180,503.256012 181.999237,503.956940 
	C183.673660,504.161285 185.603180,504.975403 186.773071,506.150085 
	C192.059296,511.458069 190.210327,522.614258 183.252747,526.426758 
z"/>
<path fill="#DD7F50" opacity="1.000000" stroke="none" 
	d="
M440.869568,124.887482 
	C445.248749,122.901497 449.472443,121.263931 454.107605,119.466827 
	C455.193085,124.038414 455.149078,127.836189 451.462952,129.739288 
	C448.934601,131.044617 445.543701,131.255875 442.654480,130.929245 
	C441.803986,130.833084 441.349854,127.231163 440.869568,124.887482 
z"/>
<path fill="#E18252" opacity="1.000000" stroke="none" 
	d="
M370.915344,129.975250 
	C368.871155,130.751480 366.964661,132.082626 365.500305,131.703934 
	C363.466278,131.177933 360.526520,129.586487 360.256989,128.050598 
	C359.969818,126.414421 361.923706,123.420479 363.647583,122.608749 
	C366.675659,121.182884 370.273865,120.967918 375.399139,119.866249 
	C373.731415,123.846275 372.490845,126.806885 370.915344,129.975250 
z"/>
<path fill="#E18252" opacity="1.000000" stroke="none" 
	d="
M338.291077,510.952881 
	C333.297211,511.110474 328.708252,511.110474 324.077118,511.110474 
	C324.660767,505.664459 327.105286,503.187561 331.466553,503.206604 
	C335.677734,503.225037 338.185425,505.857330 338.291077,510.952881 
z"/>
<path fill="#E68453" opacity="1.000000" stroke="none" 
	d="
M531.593384,107.945160 
	C536.839722,106.922966 540.576172,108.200394 542.463013,113.113647 
	C544.535278,118.509811 543.139587,126.299408 539.652954,128.929138 
	C536.257935,131.489777 530.560852,130.885422 527.854919,127.677559 
	C523.298462,122.275955 525.061707,111.871895 531.593384,107.945160 
z"/>
</svg>