<svg xmlns="http://www.w3.org/2000/svg" width="100%" viewBox="0 0 635 635" height="150" xmlns:v="https://vecta.io/nano"><path fill="#fff" d="M353 636c-116.333 0-232.167-.019-348 .095-3.424.003-4.096-.672-4.095-4.095V5C.904 1.577 1.576.904 5 .906h627c3.423-.002 4.096.67 4.095 4.094v627c.002 3.423-.669 4.101-4.094 4.096L353 636z"/><path fill="#1c1b1d" d="M231.98 341.923c-7.08-8.72-10.389-18.53-11.956-29.058-.296-1.988.376-4.768-3.503-2.542-2.831 1.625-5.069-.527-6.491-3.005-2.128-3.709-2.812-7.864-2.683-12.034.802-25.958 8.109-49.493 26.712-68.446 15.357-15.646 34.747-23.067 56.034-26.053 15.739-2.208 31.508-2.321 47.266.171 6.733 1.064 13.59.745 20.366 1.779 52.448 8.008 69.738 51.915 66.231 86.25-.425 4.162-1.41 8.21-3.237 11.983-2.154 4.449-5.515 7.031-11.179 6.294-7.419-.503-9.438-6.444-12.805-11.46-1.353 1.04-1.789 2.689-2.692 3.943-5.269 7.316-13.826 7.448-19.177.076-4.315-5.944-4.746-13.065-5.083-20.03-.266-5.48-.193-10.962-1.103-16.407-1.102-6.596-2.865-7.403-8.022-3.244-1.943 1.567-3.339 1.374-5.238-.111-3.878-3.033-5.426-2.559-7.183 2.109-2.421 6.431-3.558 13.13-3.976 19.993-.375 6.164-1.109 12.229-5.375 17.291-6.779 8.042-18.521 5.596-21.146-3.503-.246.62.079-.419-.057-.065-3.193 8.28-9.527 11.49-17.994 11.337-1-.018-2.291.015-2.871-.656-4.597-5.316-8.206-2.169-12.843.467-4.954 2.817-10.667 1.911-15.849-1.846-3.09-1.856-2.712-5.586-5.342-7.822-2.49 3.996-3.709 9.758-9.701 9.352-5.561-.377-6.121-5.791-8.058-10.166-3.388 3.212-4.447 8.815-10.206 8.604-5.251-.192-7.729-3.747-9.688-8.638-1.807 3.078-2.367 5.853-3.428 8.678 1.743-4.05 3.962-4.364 7.297-1.797 3.791 2.918 7.881 3.374 11.724-.295 2.803-2.676 4.849-1.355 7.068 1.119 3.511 3.915 6.499 4.236 9.972 1.598 5.548-4.215 5.548-4.215 10.88.511 1.614 10.334.494 20.204-1.34 30.02-.492 2.632-1.732 5.024-3.532 7.061-1.698 1.921-3.699 2.896-6.174 1.525-7.502-4.155-15.276-5.355-23.493-2.357-.629.229-1.313.021-2.125-.627z"/><path fill="#a6a6a6" d="M267.516 304.207c3.414.784 6.212 3.048 9.922 3.013 6.131-.057 10.418-2.862 13.438-8.895 3.049 6.158 7.452 9.34 14.113 7.442 5.944-1.693 10.006-5.626 12.561-11.674 3.029 5.862 6.869 10.363 13.797 8.652 7.343-1.814 9.907-7.741 10.86-14.587.938-6.738.822-13.615 2.674-20.231.492-1.758.904-3.549 1.548-5.251 1.052-2.781 1.856-6.197 5.195-6.798 3.452-.621 4.187 3.184 6.09 5.082 1.565.1 1.732-1.339 2.399-2.162 1.475-1.822 2.864-3.983 5.598-3.386 2.692.588 3.384 3.15 3.863 5.372 1.053 4.885 1.306 9.88 1.326 14.877.023 5.844.66 11.619 2.099 17.285.658 2.593 1.714 5.039 3.478 7.11 4.94 5.799 12.047 5.469 16.379-.898 1.463-2.15 2.484-4.6 3.988-7.444 2.379 6.577 5.268 12.3 12.024 15.29.127 7.769-1.006 15.15-2.605 22.473-1.159 5.306 1.55 10.083 2.142 15.167 2.828 24.29-6.061 52.181-38.387 60.27-13.694 3.427-27.549 4.731-41.579 4.03-4.359-.218-6.153.884-5.553 5.424.347 2.621-.315 5.39.137 7.978 1.139 6.53-2.247 9.743-7.716 11.995-13.489 5.554-26.912 5.039-40.391.034-4.481-1.664-6.289-4.411-5.975-9.493.886-14.352.185-28.618-4.853-42.342-2.51-6.838-2.501-6.862-8.945-3.595-16.623 8.427-30.131 2.032-33.569-16.026-1.224-6.428 1.695-11.645 5.684-16.357 1.287-1.521 2.746-2.897 4.329-4.677 9.594-3.588 18.705-3.791 27.276 2.105 2.063 1.419 3.087-.372 4.056-1.575 2.83-3.512 3.48-7.802 4.048-12.113 1.026-7.783.685-15.611.779-23.888-.315-.906-.421-1.376-.229-2.206z"/><path fill="#030203" d="M267.45 303.635c.26.703.288 1.164.268 1.968-3.806-3.411-6.408-1.84-9.69 1.547-3.388 3.496-8.16 2.179-11.773-2.816-1.634-2.259-2.528-2.368-4.574-.576-4.935 4.323-8.627 4.643-13.713.409-3.207-2.67-3.955-1.489-4.769 1.54-.326 1.214-.486 3.231-2.144 2.716-1.681-.522-1.164-2.512-.715-3.875.933-2.834 2.016-5.621 3.117-8.396.287-.723.596-1.681 1.609-1.682 1.224-.002 1.721.932 1.838 1.964.235 2.064.989 3.866 2.459 5.321 3.403 3.368 8.426 2.945 11.141-1.007.935-1.361 1.576-2.925 2.34-4.402.539-1.042 1.039-2.29 2.494-1.946 1.335.316 1.659 1.546 1.627 2.765-.047 1.753.689 3.234 1.465 4.706 2.58 4.892 6.951 5.239 10.155.816.194-.267.263-.655.502-.855 2.097-1.761.668-6.875 3.954-6.312 2.956.507 2.994 5.043 4.41 8.115z"/><path d="M375.182 369.969c1.402-.157 2.547-.259 2.812 1.007.362 1.733-1.065 2.255-2.277 2.759-11.17 4.64-22.742 7.364-34.903 6.909-10.914-.408-21.34-2.993-31.226-7.648-1.504-.708-4.301-.992-3.254-3.425 1.075-2.5 3.229-.586 4.69.076 21.205 9.615 42.446 9.523 64.159.322zm-129.533-11.743c-4.211-2.556-7.94-2.11-11.556.38-.97.668-2.067 1.5-2.938.038-.763-1.281.229-2.122 1.137-2.927 3.33-2.952 9.222-3.55 13.648-1.335 4.186 2.095 6.916 5.632 9.337 9.47.641 1.016 1.304 2.192.159 3.123-1.278 1.039-2.005-.175-2.812-1.035-1.222-1.302-1.646-4.484-4.101-3.169-2.287 1.225-1.794 4.057-1.261 6.385.347 1.514 1.922 3.629-.28 4.269-2.413.702-2.411-2.11-3.025-3.661-1.64-4.142 1.116-7.552 1.693-11.538z" fill="#131313"/></svg>