<svg version="1.1" id="Layer_1" xmlns="http://www.w3.org/2000/svg" xmlns:xlink="http://www.w3.org/1999/xlink" x="0px" y="0px"
	 width="100%" viewBox="0 0 635 635" enable-background="new 0 0 635 635" xml:space="preserve">
<path fill="#706BE4" opacity="1.000000" stroke="none" 
	d="
M1.298190,531.181152 
	C1.000000,355.893463 1.020001,180.786926 0.879901,5.680512 
	C0.876542,1.482251 1.905185,0.896350 5.816378,0.898504 
	C214.244736,1.013294 422.673157,1.019840 631.101440,0.867971 
	C635.601013,0.864692 636.114746,2.131138 636.095581,6.098603 
	C635.929504,40.419315 636.000000,74.741165 636.000000,109.531342 
	C634.490051,111.308586 634.046875,113.351990 632.369751,114.665405 
	C627.398132,118.558777 627.349121,118.798004 630.821716,123.777046 
	C632.742310,126.530869 633.848694,129.654343 635.758789,132.752274 
	C636.000000,299.107086 635.978882,465.214233 636.120422,631.321167 
	C636.124023,635.522949 635.089783,636.103394 631.182068,636.101257 
	C422.590240,635.986755 213.998352,635.985840 5.406559,636.107056 
	C1.451212,636.109314 0.888769,634.989929 0.911634,631.409180 
	C1.076524,605.586060 1.000000,579.761475 1.000000,553.468628 
	C3.298988,548.879211 7.335115,546.739075 11.114826,544.414551 
	C21.016853,538.324707 30.525829,531.647217 40.210243,525.233398 
	C45.086803,522.003601 45.142151,521.052429 41.513924,515.616333 
	C38.068172,510.453613 37.225136,510.198792 32.498852,513.284973 
	C24.577579,518.457397 16.789555,523.832825 8.837134,528.956665 
	C6.677711,530.347961 4.583514,532.304016 1.298190,531.181152 
z"/>
<path fill="#010103" opacity="1.000000" stroke="none" 
	d="
M1.000002,531.468567 
	C12.266832,523.623962 23.606535,516.355347 34.750938,508.798737 
	C37.656860,506.828369 39.198803,506.936859 40.819084,510.070984 
	C43.011425,514.311646 48.700500,518.180908 47.600796,522.184998 
	C46.657055,525.621216 40.613529,527.719299 36.737423,530.276001 
	C25.080942,537.964722 13.381549,545.588379 1.349447,553.118713 
	C1.000000,545.979065 1.000000,538.958069 1.000002,531.468567 
z"/>
<path fill="#040408" opacity="1.000000" stroke="none" 
	d="
M636.000000,132.531372 
	C631.695374,131.942673 630.983215,127.675537 628.894104,124.750740 
	C623.808899,117.631477 623.963867,117.517105 631.149048,112.733765 
	C632.522400,111.819458 633.914612,110.933372 635.649048,110.017136 
	C636.000000,117.354248 636.000000,124.708496 636.000000,132.531372 
z"/>
<path fill="#010102" opacity="1.000000" stroke="none" 
	d="
M64.841858,342.923950 
	C64.465370,323.458405 72.812820,309.121979 89.337082,300.425476 
	C105.571999,291.881195 122.134682,292.555328 137.513062,303.218445 
	C156.160278,316.148071 161.292725,338.220062 154.737915,357.216888 
	C147.860001,377.150085 128.087372,389.328064 106.977806,387.442871 
	C83.231125,385.322174 66.033173,367.344543 64.841858,342.923950 
z"/>
<path fill="#010102" opacity="1.000000" stroke="none" 
	d="
M388.317383,69.257202 
	C414.272736,57.567600 443.203125,69.380844 452.254730,95.075569 
	C461.500702,121.321991 447.006500,149.050064 420.437561,155.943298 
	C397.683716,161.846725 373.890747,149.779541 365.358673,128.008713 
	C356.568115,105.578316 365.885742,81.429840 388.317383,69.257202 
z"/>
<path fill="#010102" opacity="1.000000" stroke="none" 
	d="
M186.218872,177.278778 
	C198.388428,160.821701 214.832199,154.967316 233.960846,158.558212 
	C251.535690,161.857437 263.195068,173.303772 268.667908,190.326569 
	C275.238251,210.763138 266.813019,232.376251 248.459091,243.619949 
	C230.478195,254.635132 206.762527,251.896011 191.749542,237.070129 
	C176.617996,222.127167 173.486694,198.842056 184.154312,180.535767 
	C184.740677,179.529541 185.387466,178.558502 186.218872,177.278778 
z"/>
<path fill="#010101" opacity="1.000000" stroke="none" 
	d="
M97.259209,110.739777 
	C116.069832,130.118301 115.674812,158.433411 96.588501,177.148758 
	C78.832649,194.559479 49.574192,194.267120 31.740389,176.500732 
	C13.683670,158.512283 13.428848,129.412384 31.169664,111.324699 
	C49.487896,92.648315 78.195442,92.283432 97.259209,110.739777 
z"/>
<path fill="#010101" opacity="1.000000" stroke="none" 
	d="
M265.723999,119.769966 
	C237.476578,140.185806 199.870163,127.626984 191.858215,94.998093 
	C187.375778,76.743271 191.997345,60.415802 206.660095,48.172512 
	C221.118378,36.099941 237.802872,33.149384 255.196320,40.872009 
	C272.658081,48.624954 281.983521,62.652901 283.008514,81.893166 
	C283.832062,97.351242 277.516907,109.634628 265.723999,119.769966 
z"/>
<path fill="#040409" opacity="1.000000" stroke="none" 
	d="
M577.089355,506.977722 
	C602.254639,510.995880 618.978394,533.392639 616.412231,559.106140 
	C614.004639,583.230225 592.552307,600.952637 566.928711,599.985718 
	C543.006897,599.083008 523.880188,579.131653 522.879883,554.886536 
	C521.789307,528.449890 544.608337,502.427582 577.089355,506.977722 
z"/>
<path fill="#040409" opacity="1.000000" stroke="none" 
	d="
M167.408051,524.391663 
	C180.036148,508.997955 196.256592,503.553772 214.919495,507.592957 
	C233.159805,511.540741 245.016418,523.484375 249.865814,541.591675 
	C256.604675,566.754089 241.159134,592.630554 216.131638,598.794800 
	C190.493210,605.109619 164.702362,589.880859 158.898987,564.361267 
	C155.662384,550.128601 157.946625,536.547791 167.408051,524.391663 
z"/>
<path fill="#050409" opacity="1.000000" stroke="none" 
	d="
M393.954041,496.959717 
	C365.688110,516.818970 328.024841,503.411865 319.915955,470.917297 
	C313.610260,445.648743 329.069763,420.040253 354.333984,413.904083 
	C379.659698,407.752930 405.508301,423.229706 411.082733,448.612274 
	C415.299133,467.811157 409.841827,484.197174 393.954041,496.959717 
z"/>
<path fill="#040408" opacity="1.000000" stroke="none" 
	d="
M412.322510,612.328613 
	C383.370758,628.658203 349.356659,615.149170 341.636108,584.157898 
	C337.067108,565.817566 342.004364,549.654785 356.352142,537.246399 
	C371.049469,524.535706 388.165100,522.202271 405.848328,529.752136 
	C423.265686,537.188477 432.610565,551.214111 433.883881,570.128845 
	C435.099426,588.185425 427.151245,601.891418 412.322510,612.328613 
z"/>
<path fill="#040408" opacity="1.000000" stroke="none" 
	d="
M476.653870,310.751495 
	C480.704346,287.340668 500.541534,271.308716 524.298584,271.869537 
	C547.519531,272.417725 566.507690,289.601593 569.364014,312.652679 
	C572.891113,341.118347 552.028320,364.472321 523.416504,365.390717 
	C495.826416,366.276306 471.714386,340.947296 476.653870,310.751495 
z"/>
<path fill="#020204" opacity="1.000000" stroke="none" 
	d="
M168.030487,426.858490 
	C170.435272,430.836060 175.115921,434.449921 174.408478,438.039429 
	C173.697372,441.647400 167.981064,443.168335 164.437561,445.560455 
	C153.429108,452.991974 142.286484,460.225250 131.304718,467.695404 
	C128.806931,469.394501 127.411499,469.353088 125.890465,466.597534 
	C123.499298,462.265656 118.065834,458.257629 118.671219,454.044952 
	C119.240776,450.081604 125.797974,448.357697 129.735840,445.685944 
	C140.039810,438.694855 150.576309,432.041534 160.778290,424.907745 
	C164.280441,422.458862 166.204987,422.887207 168.030487,426.858490 
z"/>
<path fill="#010103" opacity="1.000000" stroke="none" 
	d="
M374.167786,290.899841 
	C370.625885,287.208008 371.226868,285.128540 375.401733,282.477844 
	C388.718506,274.022675 401.745270,265.105957 414.778168,256.212372 
	C417.397217,254.425171 418.904266,254.323395 420.488556,257.339722 
	C422.774323,261.691528 428.344513,265.679260 427.470093,269.896301 
	C426.660736,273.799530 420.239868,275.569641 416.272217,278.244141 
	C405.942871,285.206879 395.408539,291.872192 385.210297,299.019073 
	C381.786743,301.418274 380.200165,300.697144 378.474701,297.435699 
	C377.315918,295.245300 375.748474,293.271149 374.167786,290.899841 
z"/>
<path fill="#020204" opacity="1.000000" stroke="none" 
	d="
M443.360352,257.705994 
	C441.697113,255.182755 440.263275,252.941681 438.806549,250.715622 
	C434.071198,243.479568 434.063416,243.474854 441.059875,238.832779 
	C453.252533,230.743057 465.512604,222.752487 477.602966,214.512787 
	C480.482697,212.550232 482.169891,212.072372 484.029907,215.623642 
	C485.872711,219.141968 488.219147,222.415298 490.537445,225.658264 
	C491.814941,227.445282 491.559998,228.388855 489.756836,229.574081 
	C475.444702,238.981705 461.190155,248.476852 446.909241,257.932098 
	C445.844116,258.637329 444.720978,259.777527 443.360352,257.705994 
z"/>
<path fill="#020204" opacity="1.000000" stroke="none" 
	d="
M102.819031,465.963623 
	C105.575012,470.158173 108.036888,474.104309 110.709282,477.902313 
	C111.968216,479.691498 111.716133,480.642303 109.922050,481.822479 
	C95.639671,491.217621 81.395866,500.671814 67.184418,510.173981 
	C65.461655,511.325897 64.338478,511.399780 63.151703,509.522278 
	C60.758144,505.735718 58.325245,501.965759 55.714931,498.327911 
	C54.383240,496.471985 54.856762,495.493195 56.563599,494.359985 
	C70.943771,484.812286 85.294121,475.219666 99.639488,465.619690 
	C100.692108,464.915314 101.633347,464.354889 102.819031,465.963623 
z"/>
<path fill="#020205" opacity="1.000000" stroke="none" 
	d="
M353.769806,319.756104 
	C342.799744,327.028320 332.042450,333.973419 321.509033,341.242920 
	C318.515564,343.308838 317.058014,342.914612 315.475708,339.881958 
	C313.271362,335.657104 307.597382,331.787170 308.676758,327.812134 
	C309.606049,324.389893 315.678162,322.322815 319.535400,319.744904 
	C330.178223,312.631805 340.908234,305.647247 351.474365,298.422638 
	C354.142792,296.598083 355.840576,296.467712 357.187897,299.611450 
	C357.315887,299.910126 357.579315,300.147919 357.756195,300.428925 
	C360.130341,304.200928 364.654541,308.205414 364.283081,311.686768 
	C363.888580,315.383728 357.576447,316.823425 353.769806,319.756104 
z"/>
<path fill="#020204" opacity="1.000000" stroke="none" 
	d="
M583.892151,166.839417 
	C579.539612,169.619644 575.066772,174.729202 571.555115,174.137161 
	C567.473816,173.449112 565.855896,166.597122 562.764160,162.726196 
	C560.887695,160.376678 561.020691,159.114639 563.705811,157.374161 
	C577.665283,148.325851 591.509644,139.098175 605.314392,129.814514 
	C607.432861,128.389893 608.615845,128.310760 610.002686,130.649094 
	C612.036560,134.078278 614.192627,137.471512 616.652466,140.600311 
	C618.711853,143.219849 617.804749,144.426727 615.406921,145.985718 
	C604.947266,152.786407 594.590759,159.745895 583.892151,166.839417 
z"/>
<path fill="#020204" opacity="1.000000" stroke="none" 
	d="
M227.942383,380.897400 
	C231.345306,385.225708 234.327927,389.607849 237.428024,393.905182 
	C238.624084,395.563110 238.128708,396.498871 236.607147,397.502991 
	C222.185455,407.020355 207.770798,416.548767 193.407028,426.153137 
	C191.685852,427.304016 190.735046,426.920837 189.850342,425.326141 
	C189.689880,425.036926 189.463699,424.785004 189.286011,424.504364 
	C186.634125,420.315887 181.701309,415.953613 181.999878,411.985413 
	C182.279480,408.269135 189.080658,406.341003 193.041092,403.685150 
	C204.490875,396.007141 216.051743,388.494781 227.942383,380.897400 
z"/>
<path fill="#020205" opacity="1.000000" stroke="none" 
	d="
M502.996155,209.993103 
	C497.292999,201.513657 497.290497,201.509888 505.515656,196.049377 
	C517.439697,188.133194 529.438110,180.325745 541.244568,172.237961 
	C544.181274,170.226257 545.628113,170.517410 547.285217,173.551376 
	C548.953796,176.606384 550.885376,179.579361 553.102356,182.256516 
	C555.502808,185.155212 554.507751,186.424484 551.716309,188.230881 
	C538.582825,196.729721 525.458923,205.260834 512.655579,214.242310 
	C508.522736,217.141479 506.452820,216.661850 504.570587,212.373077 
	C504.241943,211.624237 503.647003,210.992264 502.996155,209.993103 
z"/>
<path fill="#010103" opacity="1.000000" stroke="none" 
	d="
M281.779785,344.768494 
	C291.606873,338.236023 291.606415,338.236328 298.079742,347.948517 
	C298.632751,348.778198 299.109344,349.680176 299.773041,350.410828 
	C302.097076,352.969330 301.633575,354.503326 298.635956,356.433441 
	C284.943970,365.249695 271.391296,374.285217 257.892365,383.395721 
	C255.451523,385.043091 254.086884,385.298065 252.496735,382.441132 
	C250.643860,379.112244 248.477875,375.921783 246.141296,372.908936 
	C244.155182,370.347992 244.902176,369.103729 247.371201,367.503326 
	C258.805237,360.091827 270.121826,352.499146 281.779785,344.768494 
z"/>
<path fill="#6F6AE2" opacity="1.000000" stroke="none" 
	d="
M605.549927,541.759033 
	C609.920410,559.403625 604.628601,574.724915 591.209534,584.065247 
	C578.583130,592.853821 561.600159,593.038818 548.921570,584.525696 
	C535.600891,575.581482 529.401611,559.309143 533.428284,543.857727 
	C537.337402,528.857483 550.316467,517.499451 565.228943,516.028809 
	C581.891174,514.385559 596.727295,522.548340 603.706787,537.225952 
	C604.348267,538.574951 604.845642,539.992432 605.549927,541.759033 
z"/>
<path fill="#6F6AE2" opacity="1.000000" stroke="none" 
	d="
M235.264008,531.868103 
	C244.259277,546.276001 244.483948,560.522034 235.371658,574.432434 
	C226.983002,587.238159 211.535553,593.397461 196.535858,589.897766 
	C181.008926,586.275146 171.144119,576.396484 167.706223,560.769531 
	C163.957108,543.727905 172.916824,526.481323 188.842346,519.116516 
	C205.163025,511.568970 223.135101,516.411682 235.264008,531.868103 
z"/>
<path fill="#6F6AE1" opacity="1.000000" stroke="none" 
	d="
M339.955322,487.071838 
	C324.816437,471.463715 324.031281,449.266144 337.832214,434.142151 
	C350.931274,419.787323 373.216553,417.939636 388.548828,429.937164 
	C404.756317,442.619537 407.827576,465.882446 395.443695,482.161896 
	C382.838989,498.731659 359.598969,501.991272 342.927002,489.519470 
	C341.995209,488.822388 341.117676,488.052765 339.955322,487.071838 
z"/>
<path fill="#6F6AE2" opacity="1.000000" stroke="none" 
	d="
M403.069275,538.682922 
	C419.486328,547.422180 427.419617,563.604126 423.809143,580.443909 
	C420.344330,596.604309 406.320618,608.985291 390.265503,610.058289 
	C372.770660,611.227600 357.204803,601.414978 351.740997,585.109558 
	C346.748688,570.211304 349.653442,556.556396 361.094177,545.693298 
	C373.126648,534.268433 387.344147,532.191284 403.069275,538.682922 
z"/>
<path fill="#6F6AE2" opacity="1.000000" stroke="none" 
	d="
M488.035278,332.664856 
	C480.450439,310.857819 491.044006,289.027588 511.965851,282.729095 
	C532.759399,276.469269 554.243896,288.836731 559.455017,310.066101 
	C563.817322,327.837097 553.979858,346.683380 536.747864,353.568054 
	C519.370667,360.510651 499.331543,353.421112 490.153412,337.065247 
	C489.421387,335.760773 488.817657,334.384308 488.035278,332.664856 
z"/>
</svg>