<svg xmlns="http://www.w3.org/2000/svg" width="100%" viewBox="0 0 635 635" height="150" xmlns:v="https://vecta.io/nano"><path fill="#706be4" d="M1.301 531.181L.88 5.681C.877 1.482 1.905.896 5.816.899L631.101.868c4.5-.003 5.013 1.263 4.994 5.231L636 109.531c-1.51 1.778-1.954 3.821-3.632 5.134-4.975 3.894-5.023 4.129-1.549 9.111 1.921 2.754 3.029 5.877 4.939 8.976l.362 498.569c.004 4.202-1.031 4.782-4.938 4.78-208.592-.115-417.184-.115-625.776.006-3.955.002-4.518-1.117-4.495-4.698L1 553.469c2.142-3.267 4.885-5.333 7.81-7.272l31.899-21.271c4.552-3.067 4.653-3.939 1.467-8.807-3.772-5.765-4.699-6.172-9.234-3.131L7.487 529.548c-1.777 1.136-3.453 2.744-6.186 1.633z"/><path fill="#010103" d="M1 531.469c11.27-7.847 22.614-15.116 33.76-22.677 2.923-1.983 4.452-1.832 6.067 1.291 2.191 4.237 7.881 8.099 6.783 12.098-.942 3.433-6.984 5.529-10.857 8.085L1.353 553.117C1 545.979 1 538.958 1 531.469z"/><path fill="#040307" d="M636 132.531c-4.303-.59-5.016-4.856-7.105-7.781-5.084-7.119-4.93-7.233 2.255-12.016 1.373-.914 2.765-1.801 4.499-2.717.351 7.337.351 14.691.351 22.514z"/><path d="M365.537 93.621c8.125-17.48 21.118-27.46 40.311-28.719 19.51-1.279 34.149 7.039 43.342 23.766 9.062 16.488 8.373 33.322-2.508 49.058-13.118 18.972-38.394 25.098-59.197 14.653-20.21-10.147-30.064-34.237-22.927-56.05.259-.79.538-1.574.978-2.708zM85.078 379.96c-16.672-12.082-23.109-28.364-19.417-47.878 3.489-18.442 15.245-30.419 33.352-35.483 24.975-6.985 50.542 8.053 56.96 33.119 6.481 25.313-8.89 51.199-34.226 56.809-12.796 2.834-25.181 1.094-36.669-6.567zm185.233-180.363c3.201 26.092-17.082 47.153-38.508 50.113-25.64 3.542-48.66-12.452-53.024-36.713-4.501-25.025 10.351-48.403 34.411-54.165 27.736-6.643 54.389 12.18 57.12 40.765z" fill="#010102"/><path fill="#d8d8d9" d="M386.774 465.466c-3.734 19.224-14.317 32.517-32.742 37.831-18.58 5.359-35.587 1.218-48.504-13.82-12.487-14.538-15.238-31.427-7.461-48.984 7.737-17.467 21.652-27.054 41.072-27.591 29.157-.807 49.267 21.262 47.635 52.564z"/><path d="M246.656 128.887c-25.693 5.332-49.745-10.91-54.943-34.271-4.078-18.327.479-34.559 15.238-46.692 14.389-11.828 30.926-14.683 48.12-7.112 17.477 7.695 27.034 21.694 27.884 40.921 1.003 22.719-12.647 40.339-36.3 47.154zM33.265 109.253c20.707-17.496 47.58-16.073 65.722 3.218 16.162 17.185 16.006 45.632-.344 62.624-18.518 19.246-48.028 19.993-66.611 1.687-19.063-18.779-18.64-47.844 1.232-67.529z" fill="#010101"/><path d="M614.903 544.62c-4.005 23.373-21.528 39.584-43.266 40.439-23.234.914-42.515-12.614-47.827-34.179-4.582-18.599.2-34.882 14.857-47.302 14.495-12.284 31.464-14.554 48.67-7.066 17.72 7.711 26.793 22.235 27.648 41.666.088 1.992-.022 3.993-.081 6.442zM451.13 591.998c-10.13 19.906-27.803 29.394-49.413 26.795-17.732-2.132-33.63-16.506-38.089-34.438-7.266-29.218 13.971-56.201 43.933-57.735 32.191-1.648 57.606 33.021 43.569 65.377zm-253.818-84.552c23.43 4.699 37.858 21.351 39.328 44.979 1.222 19.633-11.862 38.802-31.362 45.018-18.672 5.952-35.402 2.067-48.884-12.308-13.077-13.943-15.972-30.662-9.256-48.256 6.914-18.112 20.948-27.842 40.279-29.65 3.123-.292 6.308.072 9.895.217zm336.565-233.321c14.552 14.776 18.319 35.587 9.846 53.26-8.368 17.454-27.131 28.207-46.099 26.419-19.7-1.858-35.867-15.478-40.901-34.456-5.323-20.069 3.273-41.172 21.08-51.754 18.383-10.924 40.149-8.475 56.074 6.532z" fill="#d8d8d9"/><path fill="#020204" d="M119.784 457.233c-2.32-2.564-1.788-3.952.825-5.647l41.102-27.244c2.456-1.657 3.832-1.812 5.403 1.011 2.407 4.324 7.577 8.711 7.143 12.573-.454 4.035-7.303 5.883-11.371 8.65L132.272 467.1c-3.527 2.475-5.288 1.846-7.161-1.614-1.497-2.765-3.404-5.307-5.327-8.254z"/><path fill="#010103" d="M406.071 262.105c3.488-2.304 6.739-4.324 9.821-6.575 1.809-1.321 2.826-.981 3.942.814 2.368 3.807 4.791 7.587 7.373 11.25 1.269 1.8 1.015 2.825-.767 3.998l-42.767 28.373c-2.222 1.495-3.127.65-4.255-1.129-2.133-3.365-4.199-6.801-6.648-9.929-1.954-2.496-1.474-3.658 1.08-5.318l32.22-21.484z"/><path d="M484.009 215.756c2.282 3.523 4.286 6.787 6.517 9.888 1.268 1.762 1.073 2.722-.751 3.92l-42.815 28.391c-1.755 1.174-2.957 1.261-3.939-.75a4.68 4.68 0 0 0-.246-.434c-2.739-4.354-7.839-8.884-7.531-13.01.288-3.858 7.339-5.851 11.434-8.623l31.518-21.054c2.811-1.932 4.301-1.411 5.812 1.672zM76.836 480.85l21.794-14.645c2.231-1.546 3.574-1.613 5.045.934 2.072 3.587 4.343 7.085 6.815 10.408 1.656 2.226 1.018 3.239-1.053 4.597l-41.904 27.823c-2.155 1.449-3.347 1.32-4.707-.94-2.136-3.552-4.415-7.041-6.904-10.352-1.714-2.281-.892-3.334 1.133-4.648l19.78-13.177z" fill="#020204"/><path fill="#020103" d="M283.554 343.584c8.049-5.357 8.049-5.357 13.23 2.414 5.326 7.987 5.33 7.993-2.489 13.184l-36.103 24.057c-2.98 2.042-4.462 1.696-6.042-1.362-2.185-4.228-7.881-8.074-6.752-12.08.97-3.441 7.001-5.497 10.856-8.074l27.3-18.14z"/><path fill="#020203" d="M600.225 133.25c7.919-5.26 7.919-5.26 12.881 2.171 5.548 8.308 5.556 8.319-2.894 13.937l-35.307 23.515c-2.675 1.821-4.256 2.388-6.08-.984-2.282-4.219-7.484-8.456-7.017-12.124.483-3.8 7.13-5.676 11.1-8.358l27.318-18.157z"/><path d="M192.794 403.796l32.251-21.479c2.479-1.685 3.865-1.667 5.436 1.076 2.386 4.165 7.401 8.276 7.131 12.117-.291 4.134-6.99 5.776-10.907 8.452l-32.34 21.592c-2.28 1.547-3.758 1.695-5.013-.935-.213-.446-.551-.83-.8-1.261-2.294-3.97-7.583-7.817-6.55-11.601.9-3.297 6.799-5.229 10.791-7.962zm126.664-61.306c-4.048.259-4.228-3.339-5.665-5.399-6.469-9.273-6.357-9.344 3.044-15.578l34.438-22.964c2.91-1.997 4.415-1.806 6.104 1.255 1.679 3.045 3.6 6.017 5.81 8.695 2.407 2.916 1.349 4.217-1.411 6.009l-42.32 27.983z" fill="#020204"/><path fill="#020205" d="M507.643 194.665l33.952-22.628c2.471-1.682 3.798-1.722 5.37 1.007 2.072 3.597 4.477 7.016 6.903 10.392 1.288 1.792.972 2.707-.834 3.894l-42.837 28.453c-1.818 1.219-2.79 1.019-3.932-.812-2.288-3.671-4.706-7.266-7.205-10.797-1.314-1.857-1.406-3.113.774-4.374 2.588-1.496 5.013-3.275 7.807-5.136z"/></svg>