<svg version="1.1" id="Layer_1" xmlns="http://www.w3.org/2000/svg" xmlns:xlink="http://www.w3.org/1999/xlink" x="0px" y="0px"
	 width="100%" viewBox="0 0 1280 1024" enable-background="new 0 0 1280 1024" xml:space="preserve">
<path fill="#B2BBF0" opacity="1.000000" stroke="none" 
	d="
M1281.000000,128.000000 
	C1281.000000,426.973053 1281.000000,725.946106 1281.000000,1024.959595 
	C854.398743,1024.959595 427.797455,1024.959595 1.098098,1024.959595 
	C1.098098,683.762878 1.098098,342.525665 1.098098,1.144241 
	C427.666626,1.144241 854.333313,1.144241 1281.000000,1.144241 
	C1281.000000,31.093443 1281.000000,61.090771 1280.779297,91.182610 
	C1270.433472,97.863258 1260.308228,104.449394 1249.953125,111.185089 
	C1255.856567,120.033066 1261.502197,128.494812 1267.099487,136.884048 
	C1272.077881,133.702271 1276.538940,130.851135 1281.000000,128.000000 
M229.872681,224.312088 
	C234.442169,196.730286 227.930862,172.450699 206.810837,153.560577 
	C183.772446,132.954620 156.808121,128.057007 128.346191,139.693954 
	C99.912994,151.319183 84.067352,173.434952 81.882568,204.479523 
	C78.833878,247.799789 113.367805,282.644409 154.572647,283.956421 
	C189.673737,285.074066 220.605133,261.069489 229.872681,224.312088 
M636.372742,84.175850 
	C627.313599,49.577572 592.332214,20.639042 547.059753,30.511963 
	C512.059692,38.144699 488.205353,69.039993 489.109924,105.531761 
	C490.431885,158.863632 545.544250,194.305527 595.483704,171.251617 
	C629.133667,155.717545 644.478882,122.266808 636.372742,84.175850 
M563.885437,331.332336 
	C565.380188,291.058563 535.471008,257.080292 495.579681,253.733841 
	C447.015656,249.659805 408.121826,290.866272 414.804474,339.121277 
	C419.707886,374.528351 451.941284,405.691925 494.917297,403.009033 
	C531.144653,400.747467 562.106079,369.433167 563.885437,331.332336 
M292.643799,526.877930 
	C278.712616,508.034821 260.291809,497.401520 236.744675,495.384155 
	C195.976639,491.891418 159.079865,524.581909 156.668091,565.360291 
	C153.727005,615.087952 198.562210,653.580383 246.588455,643.427246 
	C299.471588,632.247253 323.241150,572.559814 292.643799,526.877930 
M900.036499,71.494652 
	C870.272095,89.089287 856.439880,119.573448 863.047241,153.012985 
	C869.009033,183.184845 894.432617,206.538010 926.479553,211.279419 
	C977.310425,218.799957 1021.129395,171.171585 1009.526306,121.012939 
	C998.164368,71.896385 946.234131,48.093834 900.036499,71.494652 
M722.501465,794.054138 
	C756.910217,789.628967 787.446838,757.897705 786.272583,717.884827 
	C784.931702,672.193420 742.247498,636.985352 697.510742,646.424622 
	C668.153870,652.618896 648.010376,670.200012 639.769958,699.052673 
	C631.707825,727.281250 638.127625,753.012512 659.432983,773.779541 
	C676.621460,790.533691 697.617737,797.357178 722.501465,794.054138 
M399.056702,967.539001 
	C412.359863,949.140137 417.203888,928.726074 412.216553,906.570740 
	C403.415680,867.474670 368.073822,843.387634 328.275330,848.787231 
	C282.652802,854.976990 253.517899,901.429626 267.486176,945.193237 
	C277.070038,975.219971 306.774994,998.088745 339.063019,997.379578 
	C363.881012,996.834473 383.334808,987.152893 399.056702,967.539001 
M718.791016,955.632080 
	C734.322815,986.042297 764.777161,1002.388489 797.460022,997.114258 
	C827.591187,992.251831 848.429382,975.101807 857.586975,946.073547 
	C866.632751,917.399780 860.190979,891.179077 838.817200,869.751770 
	C823.283569,854.179199 804.101868,847.316101 781.738342,848.681458 
	C762.796021,849.837952 746.859253,857.047485 733.657776,870.104919 
	C710.937439,892.577393 705.357361,925.114807 718.791016,955.632080 
M980.183777,788.239014 
	C985.492188,794.376831 990.262390,801.101929 996.205322,806.547180 
	C1017.888000,826.413513 1055.464478,829.959656 1080.661865,814.909424 
	C1108.127441,798.504395 1121.110596,774.210449 1118.841797,742.332642 
	C1117.528931,723.886841 1109.615112,708.202881 1096.162109,695.348450 
	C1080.487549,680.371399 1061.968994,674.019775 1040.281494,674.790161 
	C1013.642944,675.736328 986.157104,693.828857 976.015808,718.499023 
	C966.305969,742.119629 967.200806,765.194214 980.183777,788.239014 
M1178.818726,390.712402 
	C1160.398804,367.538208 1136.055542,358.062164 1107.263428,362.446899 
	C1069.491821,368.199036 1037.975464,402.541504 1045.576050,449.389557 
	C1052.133301,489.806702 1090.095459,516.266846 1130.461060,510.208588 
	C1186.522949,501.794586 1213.387085,436.274139 1178.818726,390.712402 
M304.844269,776.298035 
	C307.041321,774.842468 309.238403,773.386841 311.715363,771.745850 
	C305.867065,762.898438 300.242828,754.389954 294.538666,745.760620 
	C268.476013,763.093994 242.870422,780.123352 217.095093,797.265686 
	C222.974792,806.146912 228.608566,814.656677 234.282776,823.227478 
	C257.976685,807.488159 281.121338,792.113647 304.844269,776.298035 
M1188.545288,152.062195 
	C1174.707031,161.227783 1160.868896,170.393372 1146.724609,179.761642 
	C1152.532715,188.547592 1158.153198,197.049789 1163.896240,205.737320 
	C1190.031250,188.358093 1215.581787,171.367584 1241.333008,154.243668 
	C1235.446655,145.420227 1229.869263,137.059875 1224.160400,128.502502 
	C1212.149292,136.463074 1200.657715,144.079361 1188.545288,152.062195 
M1020.105591,269.329041 
	C1019.265625,268.144806 1018.425659,266.960541 1017.454895,265.591858 
	C991.603699,282.781647 966.027344,299.788635 940.135376,317.005554 
	C946.016479,325.906219 951.638550,334.414856 957.311401,343.000275 
	C983.310242,325.708832 1008.897217,308.691315 1034.731445,291.509338 
	C1029.831299,284.068665 1025.174561,276.997650 1020.105591,269.329041 
M43.230305,912.783325 
	C32.446041,919.942810 21.661777,927.102295 10.519622,934.499390 
	C16.320992,943.201050 21.961123,951.660889 27.688431,960.251404 
	C53.797909,942.971924 79.388725,926.035706 105.152710,908.984924 
	C99.245728,900.075439 93.608177,891.572388 87.949341,883.037231 
	C72.876289,893.047241 58.343342,902.698608 43.230305,912.783325 
M182.684525,820.168213 
	C159.754715,835.437378 136.824905,850.706543 113.813866,866.029785 
	C119.734138,874.879700 125.326561,883.239502 131.009384,891.734497 
	C157.131088,874.360474 182.675720,857.370239 208.423187,840.245117 
	C202.526733,831.398865 196.956467,823.041992 191.259262,814.494629 
	C188.264236,816.502014 185.789856,818.160461 182.684525,820.168213 
M761.451233,472.932251 
	C783.668030,458.210602 805.884827,443.488953 828.174072,428.719299 
	C822.248596,419.769623 816.679626,411.358398 810.986572,402.759766 
	C784.961121,420.071655 759.317749,437.129425 733.555847,454.266022 
	C739.441040,463.092773 744.960205,471.370575 750.706604,479.989166 
	C754.215637,477.660797 757.517517,475.469910 761.451233,472.932251 
M1122.151123,198.901230 
	C1120.294067,195.755264 1118.722168,198.489792 1117.426147,199.345901 
	C1093.860352,214.912277 1070.351807,230.565384 1046.841431,246.215500 
	C1045.774536,246.925674 1044.803711,247.780396 1043.583252,248.726669 
	C1049.296753,257.304138 1054.875122,265.678680 1060.586670,274.253021 
	C1086.618286,256.942352 1112.299194,239.864868 1138.023315,222.758698 
	C1132.715576,214.750580 1127.667847,207.134720 1122.151123,198.901230 
M465.679016,632.170471 
	C451.740784,641.418945 437.802521,650.667419 423.695923,660.027649 
	C429.531372,668.860657 435.082489,677.263306 440.850800,685.994690 
	C466.832794,668.719910 492.482452,651.666077 518.307068,634.495972 
	C512.445312,625.713074 506.856262,617.338623 501.127838,608.755432 
	C489.258453,616.618469 477.783875,624.219971 465.679016,632.170471 
M639.398010,516.952209 
	C636.423645,518.966492 633.449280,520.980835 630.318237,523.101318 
	C636.193237,531.906372 641.762634,540.253357 647.431519,548.749512 
	C673.510742,531.406067 699.048523,514.422607 724.867371,497.252289 
	C718.964355,488.388184 713.389954,480.017578 707.717957,471.500519 
	C684.825745,486.728149 662.411743,501.637695 639.398010,516.952209 
M527.890747,590.992126 
	C527.799133,591.404907 527.486511,591.961792 527.648010,592.209656 
	C533.079224,600.543518 538.555542,608.847961 544.103638,617.275513 
	C570.122681,599.971252 595.716919,582.949524 621.583374,565.746765 
	C615.745117,556.986816 610.161499,548.608948 604.427124,540.004822 
	C578.909424,556.976440 553.705688,573.739136 527.890747,590.992126 
M922.256348,346.203430 
	C919.687439,342.350922 917.118530,338.498383 914.295288,334.264374 
	C888.359009,351.507874 862.688110,368.574982 836.834778,385.763306 
	C842.741699,394.610687 848.329346,402.979858 854.017761,411.499908 
	C880.077454,394.168304 905.643494,377.165039 931.419434,360.022156 
	C928.333435,355.334686 925.516357,351.055695 922.256348,346.203430 
M364.148315,699.663391 
	C349.662933,709.298218 335.177551,718.932983 320.406342,728.757935 
	C326.260345,737.549744 331.833405,745.919617 337.549866,754.504883 
	C363.548767,737.217712 389.118896,720.215637 415.005768,703.002991 
	C409.180756,694.263489 403.608795,685.903625 397.864624,677.285461 
	C386.566620,684.765808 375.646179,691.996216 364.148315,699.663391 
z"/>
<path fill="#020202" opacity="1.000000" stroke="none" 
	d="
M1281.000000,127.531349 
	C1276.538940,130.851135 1272.077881,133.702271 1267.099487,136.884048 
	C1261.502197,128.494812 1255.856567,120.033066 1249.953125,111.185089 
	C1260.308228,104.449394 1270.433472,97.863258 1280.779297,91.638565 
	C1281.000000,103.687561 1281.000000,115.375122 1281.000000,127.531349 
z"/>
<path fill="#010101" opacity="1.000000" stroke="none" 
	d="
M229.782349,224.724777 
	C220.605133,261.069489 189.673737,285.074066 154.572647,283.956421 
	C113.367805,282.644409 78.833878,247.799789 81.882568,204.479523 
	C84.067352,173.434952 99.912994,151.319183 128.346191,139.693954 
	C156.808121,128.057007 183.772446,132.954620 206.810837,153.560577 
	C227.930862,172.450699 234.442169,196.730286 229.782349,224.724777 
z"/>
<path fill="#010101" opacity="1.000000" stroke="none" 
	d="
M636.519165,84.561211 
	C644.478882,122.266808 629.133667,155.717545 595.483704,171.251617 
	C545.544250,194.305527 490.431885,158.863632 489.109924,105.531761 
	C488.205353,69.039993 512.059692,38.144699 547.059753,30.511963 
	C592.332214,20.639042 627.313599,49.577572 636.519165,84.561211 
z"/>
<path fill="#010101" opacity="1.000000" stroke="none" 
	d="
M563.867798,331.804321 
	C562.106079,369.433167 531.144653,400.747467 494.917297,403.009033 
	C451.941284,405.691925 419.707886,374.528351 414.804474,339.121277 
	C408.121826,290.866272 447.015656,249.659805 495.579681,253.733841 
	C535.471008,257.080292 565.380188,291.058563 563.867798,331.804321 
z"/>
<path fill="#010101" opacity="1.000000" stroke="none" 
	d="
M292.856506,527.167053 
	C323.241150,572.559814 299.471588,632.247253 246.588455,643.427246 
	C198.562210,653.580383 153.727005,615.087952 156.668091,565.360291 
	C159.079865,524.581909 195.976639,491.891418 236.744675,495.384155 
	C260.291809,497.401520 278.712616,508.034821 292.856506,527.167053 
z"/>
<path fill="#010101" opacity="1.000000" stroke="none" 
	d="
M900.358276,71.308617 
	C946.234131,48.093834 998.164368,71.896385 1009.526306,121.012939 
	C1021.129395,171.171585 977.310425,218.799957 926.479553,211.279419 
	C894.432617,206.538010 869.009033,183.184845 863.047241,153.012985 
	C856.439880,119.573448 870.272095,89.089287 900.358276,71.308617 
z"/>
<path fill="#FFFFFF" opacity="1.000000" stroke="none" 
	d="
M722.062134,794.101929 
	C697.617737,797.357178 676.621460,790.533691 659.432983,773.779541 
	C638.127625,753.012512 631.707825,727.281250 639.769958,699.052673 
	C648.010376,670.200012 668.153870,652.618896 697.510742,646.424622 
	C742.247498,636.985352 784.931702,672.193420 786.272583,717.884827 
	C787.446838,757.897705 756.910217,789.628967 722.062134,794.101929 
z"/>
<path fill="#FFFFFF" opacity="1.000000" stroke="none" 
	d="
M398.839722,967.822266 
	C383.334808,987.152893 363.881012,996.834473 339.063019,997.379578 
	C306.774994,998.088745 277.070038,975.219971 267.486176,945.193237 
	C253.517899,901.429626 282.652802,854.976990 328.275330,848.787231 
	C368.073822,843.387634 403.415680,867.474670 412.216553,906.570740 
	C417.203888,928.726074 412.359863,949.140137 398.839722,967.822266 
z"/>
<path fill="#FFFFFF" opacity="1.000000" stroke="none" 
	d="
M718.623718,955.295166 
	C705.357361,925.114807 710.937439,892.577393 733.657776,870.104919 
	C746.859253,857.047485 762.796021,849.837952 781.738342,848.681458 
	C804.101868,847.316101 823.283569,854.179199 838.817200,869.751770 
	C860.190979,891.179077 866.632751,917.399780 857.586975,946.073547 
	C848.429382,975.101807 827.591187,992.251831 797.460022,997.114258 
	C764.777161,1002.388489 734.322815,986.042297 718.623718,955.295166 
z"/>
<path fill="#FFFFFF" opacity="1.000000" stroke="none" 
	d="
M980.004517,787.920898 
	C967.200806,765.194214 966.305969,742.119629 976.015808,718.499023 
	C986.157104,693.828857 1013.642944,675.736328 1040.281494,674.790161 
	C1061.968994,674.019775 1080.487549,680.371399 1096.162109,695.348450 
	C1109.615112,708.202881 1117.528931,723.886841 1118.841797,742.332642 
	C1121.110596,774.210449 1108.127441,798.504395 1080.661865,814.909424 
	C1055.464478,829.959656 1017.888000,826.413513 996.205322,806.547180 
	C990.262390,801.101929 985.492188,794.376831 980.004517,787.920898 
z"/>
<path fill="#FFFFFF" opacity="1.000000" stroke="none" 
	d="
M1179.015137,391.010254 
	C1213.387085,436.274139 1186.522949,501.794586 1130.461060,510.208588 
	C1090.095459,516.266846 1052.133301,489.806702 1045.576050,449.389557 
	C1037.975464,402.541504 1069.491821,368.199036 1107.263428,362.446899 
	C1136.055542,358.062164 1160.398804,367.538208 1179.015137,391.010254 
z"/>
<path fill="#020202" opacity="1.000000" stroke="none" 
	d="
M304.555145,776.518555 
	C281.121338,792.113647 257.976685,807.488159 234.282776,823.227478 
	C228.608566,814.656677 222.974792,806.146912 217.095093,797.265686 
	C242.870422,780.123352 268.476013,763.093994 294.538666,745.760620 
	C300.242828,754.389954 305.867065,762.898438 311.715363,771.745850 
	C309.238403,773.386841 307.041321,774.842468 304.555145,776.518555 
z"/>
<path fill="#010202" opacity="1.000000" stroke="none" 
	d="
M1188.855713,151.878922 
	C1200.657715,144.079361 1212.149292,136.463074 1224.160400,128.502502 
	C1229.869263,137.059875 1235.446655,145.420227 1241.333008,154.243668 
	C1215.581787,171.367584 1190.031250,188.358093 1163.896240,205.737320 
	C1158.153198,197.049789 1152.532715,188.547592 1146.724609,179.761642 
	C1160.868896,170.393372 1174.707031,161.227783 1188.855713,151.878922 
z"/>
<path fill="#020202" opacity="1.000000" stroke="none" 
	d="
M1020.311707,269.627838 
	C1025.174561,276.997650 1029.831299,284.068665 1034.731445,291.509338 
	C1008.897217,308.691315 983.310242,325.708832 957.311401,343.000275 
	C951.638550,334.414856 946.016479,325.906219 940.135376,317.005554 
	C966.027344,299.788635 991.603699,282.781647 1017.454895,265.591858 
	C1018.425659,266.960541 1019.265625,268.144806 1020.311707,269.627838 
z"/>
<path fill="#010102" opacity="1.000000" stroke="none" 
	d="
M43.520348,912.566650 
	C58.343342,902.698608 72.876289,893.047241 87.949341,883.037231 
	C93.608177,891.572388 99.245728,900.075439 105.152710,908.984924 
	C79.388725,926.035706 53.797909,942.971924 27.688431,960.251404 
	C21.961123,951.660889 16.320992,943.201050 10.519622,934.499390 
	C21.661777,927.102295 32.446041,919.942810 43.520348,912.566650 
z"/>
<path fill="#020202" opacity="1.000000" stroke="none" 
	d="
M183.000000,819.993530 
	C185.789856,818.160461 188.264236,816.502014 191.259262,814.494629 
	C196.956467,823.041992 202.526733,831.398865 208.423187,840.245117 
	C182.675720,857.370239 157.131088,874.360474 131.009384,891.734497 
	C125.326561,883.239502 119.734138,874.879700 113.813866,866.029785 
	C136.824905,850.706543 159.754715,835.437378 183.000000,819.993530 
z"/>
<path fill="#020202" opacity="1.000000" stroke="none" 
	d="
M761.135254,473.105652 
	C757.517517,475.469910 754.215637,477.660797 750.706604,479.989166 
	C744.960205,471.370575 739.441040,463.092773 733.555847,454.266022 
	C759.317749,437.129425 784.961121,420.071655 810.986572,402.759766 
	C816.679626,411.358398 822.248596,419.769623 828.174072,428.719299 
	C805.884827,443.488953 783.668030,458.210602 761.135254,473.105652 
z"/>
<path fill="#020202" opacity="1.000000" stroke="none" 
	d="
M1122.385620,199.210037 
	C1127.667847,207.134720 1132.715576,214.750580 1138.023315,222.758698 
	C1112.299194,239.864868 1086.618286,256.942352 1060.586670,274.253021 
	C1054.875122,265.678680 1049.296753,257.304138 1043.583252,248.726669 
	C1044.803711,247.780396 1045.774536,246.925674 1046.841431,246.215500 
	C1070.351807,230.565384 1093.860352,214.912277 1117.426147,199.345901 
	C1118.722168,198.489792 1120.294067,195.755264 1122.385620,199.210037 
z"/>
<path fill="#020202" opacity="1.000000" stroke="none" 
	d="
M465.994171,631.995972 
	C477.783875,624.219971 489.258453,616.618469 501.127838,608.755432 
	C506.856262,617.338623 512.445312,625.713074 518.307068,634.495972 
	C492.482452,651.666077 466.832794,668.719910 440.850800,685.994690 
	C435.082489,677.263306 429.531372,668.860657 423.695923,660.027649 
	C437.802521,650.667419 451.740784,641.418945 465.994171,631.995972 
z"/>
<path fill="#010102" opacity="1.000000" stroke="none" 
	d="
M639.697876,516.749756 
	C662.411743,501.637695 684.825745,486.728149 707.717957,471.500519 
	C713.389954,480.017578 718.964355,488.388184 724.867371,497.252289 
	C699.048523,514.422607 673.510742,531.406067 647.431519,548.749512 
	C641.762634,540.253357 636.193237,531.906372 630.318237,523.101318 
	C633.449280,520.980835 636.423645,518.966492 639.697876,516.749756 
z"/>
<path fill="#010102" opacity="1.000000" stroke="none" 
	d="
M528.196411,590.746948 
	C553.705688,573.739136 578.909424,556.976440 604.427124,540.004822 
	C610.161499,548.608948 615.745117,556.986816 621.583374,565.746765 
	C595.716919,582.949524 570.122681,599.971252 544.103638,617.275513 
	C538.555542,608.847961 533.079224,600.543518 527.648010,592.209656 
	C527.486511,591.961792 527.799133,591.404907 528.196411,590.746948 
z"/>
<path fill="#020203" opacity="1.000000" stroke="none" 
	d="
M922.477783,346.490051 
	C925.516357,351.055695 928.333435,355.334686 931.419434,360.022156 
	C905.643494,377.165039 880.077454,394.168304 854.017761,411.499908 
	C848.329346,402.979858 842.741699,394.610687 836.834778,385.763306 
	C862.688110,368.574982 888.359009,351.507874 914.295288,334.264374 
	C917.118530,338.498383 919.687439,342.350922 922.477783,346.490051 
z"/>
<path fill="#020203" opacity="1.000000" stroke="none" 
	d="
M364.437012,699.444946 
	C375.646179,691.996216 386.566620,684.765808 397.864624,677.285461 
	C403.608795,685.903625 409.180756,694.263489 415.005768,703.002991 
	C389.118896,720.215637 363.548767,737.217712 337.549866,754.504883 
	C331.833405,745.919617 326.260345,737.549744 320.406342,728.757935 
	C335.177551,718.932983 349.662933,709.298218 364.437012,699.444946 
z"/>
</svg>