<svg version="1.1" id="Layer_1" xmlns="http://www.w3.org/2000/svg" xmlns:xlink="http://www.w3.org/1999/xlink" x="0px" y="0px"
	 width="100%" viewBox="0 0 1280 1024" enable-background="new 0 0 1280 1024" xml:space="preserve">
<path fill="#B2BBF0" opacity="1.000000" stroke="none" 
	d="
M746.000000,1025.000000 
	C497.333344,1025.000000 249.166672,1025.000000 1.000000,1025.000000 
	C1.000000,683.666687 1.000000,342.333344 1.000000,1.000000 
	C427.666656,1.000000 854.333313,1.000000 1281.000000,1.000000 
	C1281.000000,342.333344 1281.000000,683.666687 1281.000000,1025.000000 
	C1102.833374,1025.000000 924.666687,1025.000000 746.000000,1025.000000 
M134.732285,137.088211 
	C133.012070,137.703171 131.287842,138.307129 129.572281,138.934753 
	C102.527008,148.828720 83.299568,175.955017 81.730965,204.546783 
	C79.366531,247.644287 112.673058,281.581299 151.669922,283.692688 
	C199.660889,286.291016 236.494827,246.472977 230.695511,198.689133 
	C225.253479,153.849197 180.582520,124.861526 134.732285,137.088211 
M548.625244,30.047808 
	C510.396973,39.169785 485.313354,73.096939 489.230194,110.383255 
	C493.275360,148.890976 523.932495,177.262299 562.443909,178.138092 
	C611.332581,179.249878 647.968994,134.255508 637.002625,86.570053 
	C627.949158,47.202862 590.637207,23.037809 548.625244,30.047808 
M456.995178,260.483948 
	C434.979279,271.499542 420.910248,288.829132 415.664307,312.987396 
	C406.695648,354.288971 434.396942,395.096954 476.077911,402.005005 
	C522.497925,409.698456 560.362610,376.281311 563.759949,334.269226 
	C568.376892,277.174896 510.090759,236.590942 456.995178,260.483948 
M203.881241,500.283752 
	C203.277176,500.561432 202.674911,500.843079 202.068756,501.116119 
	C169.809052,515.646667 152.377991,547.089417 157.302582,581.868286 
	C161.843994,613.940796 187.962646,639.236694 221.805191,644.338928 
	C272.385559,651.964661 316.163696,604.107300 304.598450,553.830933 
	C294.260498,508.889862 249.060699,484.583191 203.881241,500.283752 
M951.755859,63.747219 
	C913.016418,54.927143 872.055420,80.823021 863.280640,119.682030 
	C853.841614,161.482147 879.433167,201.478378 921.433044,210.566544 
	C961.137024,219.157898 1001.175415,192.789642 1009.727478,152.418152 
	C1018.182983,112.502533 992.226440,72.296356 951.755859,63.747219 
M640.708984,744.684326 
	C655.743042,785.144958 697.486633,804.625977 738.053528,790.113342 
	C775.396057,776.754333 795.539917,733.872009 782.397339,695.714050 
	C768.927551,656.606201 726.929810,635.868958 687.690735,648.950684 
	C648.452515,662.032104 627.639587,703.884766 640.708984,744.684326 
M276.207123,881.736694 
	C266.565613,897.063538 262.814209,913.560364 264.704773,931.725159 
	C268.329529,966.552917 300.765625,1004.064148 351.705811,996.607483 
	C393.055878,990.554688 421.928864,947.661255 412.355042,907.078796 
	C404.963684,875.747620 385.100677,855.514465 353.571716,849.437622 
	C321.762543,843.306763 295.696014,854.610962 276.207123,881.736694 
M711.906372,923.494995 
	C710.087769,962.179993 744.405701,998.321594 786.344604,998.074890 
	C828.027405,997.829712 860.584534,965.269043 861.180298,923.677490 
	C861.738037,884.742371 830.657104,848.868164 787.767151,848.271057 
	C742.420837,847.639771 710.414917,885.558472 711.906372,923.494995 
M1108.891968,787.368103 
	C1116.369751,775.239990 1119.151489,761.992310 1119.106445,747.830078 
	C1118.976440,706.912231 1082.515015,667.331848 1031.868530,675.612854 
	C1001.323120,680.607239 980.566467,699.367615 972.347412,729.346985 
	C964.702942,757.230774 971.294922,782.655945 992.183289,803.200867 
	C1026.407104,836.861755 1083.443848,829.222839 1108.891968,787.368103 
M1049.763428,408.281036 
	C1043.754761,421.715210 1043.206543,436.017426 1045.737915,449.946136 
	C1052.408691,486.652130 1083.279907,511.327454 1120.607910,511.013123 
	C1167.998169,510.614014 1203.038330,465.729218 1192.428955,419.543549 
	C1184.811768,386.383881 1153.079346,361.064789 1118.874268,361.435669 
	C1088.638062,361.763489 1060.152466,382.001801 1049.763428,408.281036 
M632.648560,518.145386 
	C631.477844,519.002380 630.307129,519.859375 628.912170,520.880493 
	C634.670593,529.472290 640.279968,537.841736 646.077087,546.491333 
	C672.070007,529.174683 697.691223,512.105713 723.381226,494.990906 
	C717.406799,486.013702 711.823669,477.624359 706.088318,469.006317 
	C681.540100,485.456268 657.404968,501.629456 632.648560,518.145386 
M185.418686,854.884949 
	C192.937973,849.837097 200.457245,844.789185 208.061493,839.684326 
	C202.093704,830.820862 196.454666,822.445679 190.776764,814.012817 
	C164.810287,831.331665 139.270035,848.366211 113.546516,865.523010 
	C119.470589,874.359863 125.073700,882.717957 130.800278,891.260193 
	C149.115402,879.041565 166.953384,867.141174 185.418686,854.884949 
M985.238098,319.710693 
	C1000.936646,309.177155 1016.635132,298.643616 1032.519897,287.985138 
	C1026.630005,279.187866 1021.044434,270.845154 1015.289429,262.249420 
	C989.248840,279.689301 963.730408,296.779449 938.009827,314.005035 
	C943.908813,322.806671 949.522095,331.181946 955.257385,339.739349 
	C965.292725,333.019348 974.955688,326.548676 985.238098,319.710693 
M605.263611,541.318237 
	C604.488220,540.299133 603.712769,539.279968 602.848450,538.143982 
	C577.077942,555.399353 551.575562,572.475159 525.767151,589.755920 
	C531.624390,598.476746 537.306641,606.937012 543.050964,615.489685 
	C569.127686,598.022461 594.642395,580.931641 620.284607,563.755432 
	C615.267029,556.231750 610.480225,549.054138 605.263611,541.318237 
M468.529816,628.040039 
	C453.370209,638.208008 438.210632,648.375977 422.724792,658.762756 
	C428.539581,667.446228 434.208435,675.911804 439.962128,684.503967 
	C466.038971,667.039124 491.548920,649.953979 517.245056,632.744080 
	C511.414612,624.046387 505.803070,615.675293 499.999725,607.018005 
	C489.488434,614.053528 479.318054,620.860901 468.529816,628.040039 
M231.536697,819.048828 
	C232.298340,820.075684 233.059982,821.102539 234.015167,822.390381 
	C259.857361,805.082825 285.453705,787.939941 311.140869,770.736267 
	C305.195740,761.879761 299.567200,753.494812 293.871216,745.009460 
	C267.954193,762.361877 242.447540,779.439575 216.619141,796.732666 
	C221.554138,804.137390 226.327347,811.299377 231.536697,819.048828 
M755.498230,435.995239 
	C747.682434,441.218323 739.866577,446.441437 731.893982,451.769318 
	C737.806580,460.668915 743.395264,469.080811 749.148560,477.740631 
	C775.064575,460.388367 800.585022,443.300934 826.415833,426.005737 
	C820.593079,417.312469 815.000061,408.962097 809.182800,400.277069 
	C791.230408,412.224030 773.666321,423.912598 755.498230,435.995239 
M1102.618774,241.078598 
	C1113.495361,233.792984 1124.371826,226.507370 1135.584229,218.996826 
	C1129.742432,210.277817 1124.146729,201.926239 1118.336182,193.253799 
	C1092.351929,210.660873 1066.739868,227.818710 1041.045532,245.031616 
	C1047.059814,253.957947 1052.670898,262.285950 1058.354248,270.721283 
	C1073.287720,260.723419 1087.654663,251.104813 1102.618774,241.078598 
M836.819275,381.779907 
	C836.532654,382.679443 835.713135,383.924805 836.039001,384.426819 
	C841.273743,392.492645 846.654602,400.463745 852.200134,408.752167 
	C878.154785,391.366852 903.763733,374.213043 929.475464,356.990448 
	C923.588501,348.205139 918.052490,339.943451 912.249451,331.283325 
	C887.132385,348.064240 862.274231,364.672150 836.819275,381.779907 
M80.827477,887.391663 
	C57.434280,903.062561 34.041084,918.733521 10.477716,934.518433 
	C16.450748,943.423157 22.044039,951.761719 27.733969,960.244324 
	C53.764034,942.815857 79.288673,925.725830 105.016937,908.499451 
	C99.166138,899.772644 93.481567,891.293701 87.766182,882.768921 
	C85.296135,884.418213 83.363297,885.708801 80.827477,887.391663 
M1218.703125,126.053177 
	C1193.891846,142.675644 1169.080444,159.298096 1144.119873,176.020538 
	C1150.082031,184.891296 1155.689453,193.234177 1161.402344,201.733994 
	C1187.390869,184.328964 1212.891235,167.250793 1238.639893,150.006424 
	C1233.188354,141.842468 1228.089722,134.085358 1222.789673,126.468391 
	C1222.290771,125.751495 1220.524292,125.916672 1218.703125,126.053177 
M384.103943,684.598999 
	C362.728210,698.911438 341.352478,713.223816 319.656433,727.750671 
	C325.503967,736.475464 331.171021,744.930969 336.914124,753.499939 
	C363.030396,736.007935 388.546997,718.917603 414.208801,701.730042 
	C408.302155,692.946655 402.615021,684.489624 396.933136,676.040466 
	C392.436310,679.024292 388.560730,681.595886 384.103943,684.598999 
z"/>
<path fill="#010101" opacity="1.000000" stroke="none" 
	d="
M135.129852,137.010651 
	C180.582520,124.861526 225.253479,153.849197 230.695511,198.689133 
	C236.494827,246.472977 199.660889,286.291016 151.669922,283.692688 
	C112.673058,281.581299 79.366531,247.644287 81.730965,204.546783 
	C83.299568,175.955017 102.527008,148.828720 129.572281,138.934753 
	C131.287842,138.307129 133.012070,137.703171 135.129852,137.010651 
z"/>
<path fill="#010101" opacity="1.000000" stroke="none" 
	d="
M549.050171,29.965416 
	C590.637207,23.037809 627.949158,47.202862 637.002625,86.570053 
	C647.968994,134.255508 611.332581,179.249878 562.443909,178.138092 
	C523.932495,177.262299 493.275360,148.890976 489.230194,110.383255 
	C485.313354,73.096939 510.396973,39.169785 549.050171,29.965416 
z"/>
<path fill="#010101" opacity="1.000000" stroke="none" 
	d="
M457.336548,260.319641 
	C510.090759,236.590942 568.376892,277.174896 563.759949,334.269226 
	C560.362610,376.281311 522.497925,409.698456 476.077911,402.005005 
	C434.396942,395.096954 406.695648,354.288971 415.664307,312.987396 
	C420.910248,288.829132 434.979279,271.499542 457.336548,260.319641 
z"/>
<path fill="#010101" opacity="1.000000" stroke="none" 
	d="
M204.253845,500.176819 
	C249.060699,484.583191 294.260498,508.889862 304.598450,553.830933 
	C316.163696,604.107300 272.385559,651.964661 221.805191,644.338928 
	C187.962646,639.236694 161.843994,613.940796 157.302582,581.868286 
	C152.377991,547.089417 169.809052,515.646667 202.068756,501.116119 
	C202.674911,500.843079 203.277176,500.561432 204.253845,500.176819 
z"/>
<path fill="#010101" opacity="1.000000" stroke="none" 
	d="
M952.169373,63.824791 
	C992.226440,72.296356 1018.182983,112.502533 1009.727478,152.418152 
	C1001.175415,192.789642 961.137024,219.157898 921.433044,210.566544 
	C879.433167,201.478378 853.841614,161.482147 863.280640,119.682030 
	C872.055420,80.823021 913.016418,54.927143 952.169373,63.824791 
z"/>
<path fill="#FFFFFF" opacity="1.000000" stroke="none" 
	d="
M640.582642,744.309387 
	C627.639587,703.884766 648.452515,662.032104 687.690735,648.950684 
	C726.929810,635.868958 768.927551,656.606201 782.397339,695.714050 
	C795.539917,733.872009 775.396057,776.754333 738.053528,790.113342 
	C697.486633,804.625977 655.743042,785.144958 640.582642,744.309387 
z"/>
<path fill="#FFFFFF" opacity="1.000000" stroke="none" 
	d="
M276.411560,881.438477 
	C295.696014,854.610962 321.762543,843.306763 353.571716,849.437622 
	C385.100677,855.514465 404.963684,875.747620 412.355042,907.078796 
	C421.928864,947.661255 393.055878,990.554688 351.705811,996.607483 
	C300.765625,1004.064148 268.329529,966.552917 264.704773,931.725159 
	C262.814209,913.560364 266.565613,897.063538 276.411560,881.438477 
z"/>
<path fill="#FFFFFF" opacity="1.000000" stroke="none" 
	d="
M711.906311,923.000488 
	C710.414917,885.558472 742.420837,847.639771 787.767151,848.271057 
	C830.657104,848.868164 861.738037,884.742371 861.180298,923.677490 
	C860.584534,965.269043 828.027405,997.829712 786.344604,998.074890 
	C744.405701,998.321594 710.087769,962.179993 711.906311,923.000488 
z"/>
<path fill="#FFFFFF" opacity="1.000000" stroke="none" 
	d="
M1108.715576,787.686890 
	C1083.443848,829.222839 1026.407104,836.861755 992.183289,803.200867 
	C971.294922,782.655945 964.702942,757.230774 972.347412,729.346985 
	C980.566467,699.367615 1001.323120,680.607239 1031.868530,675.612854 
	C1082.515015,667.331848 1118.976440,706.912231 1119.106445,747.830078 
	C1119.151489,761.992310 1116.369751,775.239990 1108.715576,787.686890 
z"/>
<path fill="#FFFFFF" opacity="1.000000" stroke="none" 
	d="
M1049.893066,407.919983 
	C1060.152466,382.001801 1088.638062,361.763489 1118.874268,361.435669 
	C1153.079346,361.064789 1184.811768,386.383881 1192.428955,419.543549 
	C1203.038330,465.729218 1167.998169,510.614014 1120.607910,511.013123 
	C1083.279907,511.327454 1052.408691,486.652130 1045.737915,449.946136 
	C1043.206543,436.017426 1043.754761,421.715210 1049.893066,407.919983 
z"/>
<path fill="#020203" opacity="1.000000" stroke="none" 
	d="
M632.959229,517.973999 
	C657.404968,501.629456 681.540100,485.456268 706.088318,469.006317 
	C711.823669,477.624359 717.406799,486.013702 723.381226,494.990906 
	C697.691223,512.105713 672.070007,529.174683 646.077087,546.491333 
	C640.279968,537.841736 634.670593,529.472290 628.912170,520.880493 
	C630.307129,519.859375 631.477844,519.002380 632.959229,517.973999 
z"/>
<path fill="#010102" opacity="1.000000" stroke="none" 
	d="
M185.105042,855.062866 
	C166.953384,867.141174 149.115402,879.041565 130.800278,891.260193 
	C125.073700,882.717957 119.470589,874.359863 113.546516,865.523010 
	C139.270035,848.366211 164.810287,831.331665 190.776764,814.012817 
	C196.454666,822.445679 202.093704,830.820862 208.061493,839.684326 
	C200.457245,844.789185 192.937973,849.837097 185.105042,855.062866 
z"/>
<path fill="#020202" opacity="1.000000" stroke="none" 
	d="
M984.928345,319.894348 
	C974.955688,326.548676 965.292725,333.019348 955.257385,339.739349 
	C949.522095,331.181946 943.908813,322.806671 938.009827,314.005035 
	C963.730408,296.779449 989.248840,279.689301 1015.289429,262.249420 
	C1021.044434,270.845154 1026.630005,279.187866 1032.519897,287.985138 
	C1016.635132,298.643616 1000.936646,309.177155 984.928345,319.894348 
z"/>
<path fill="#010202" opacity="1.000000" stroke="none" 
	d="
M605.478516,541.597412 
	C610.480225,549.054138 615.267029,556.231750 620.284607,563.755432 
	C594.642395,580.931641 569.127686,598.022461 543.050964,615.489685 
	C537.306641,606.937012 531.624390,598.476746 525.767151,589.755920 
	C551.575562,572.475159 577.077942,555.399353 602.848450,538.143982 
	C603.712769,539.279968 604.488220,540.299133 605.478516,541.597412 
z"/>
<path fill="#020202" opacity="1.000000" stroke="none" 
	d="
M468.838745,627.854126 
	C479.318054,620.860901 489.488434,614.053528 499.999725,607.018005 
	C505.803070,615.675293 511.414612,624.046387 517.245056,632.744080 
	C491.548920,649.953979 466.038971,667.039124 439.962128,684.503967 
	C434.208435,675.911804 428.539581,667.446228 422.724792,658.762756 
	C438.210632,648.375977 453.370209,638.208008 468.838745,627.854126 
z"/>
<path fill="#020203" opacity="1.000000" stroke="none" 
	d="
M231.318619,818.755127 
	C226.327347,811.299377 221.554138,804.137390 216.619141,796.732666 
	C242.447540,779.439575 267.954193,762.361877 293.871216,745.009460 
	C299.567200,753.494812 305.195740,761.879761 311.140869,770.736267 
	C285.453705,787.939941 259.857361,805.082825 234.015167,822.390381 
	C233.059982,821.102539 232.298340,820.075684 231.318619,818.755127 
z"/>
<path fill="#020202" opacity="1.000000" stroke="none" 
	d="
M755.800232,435.798187 
	C773.666321,423.912598 791.230408,412.224030 809.182800,400.277069 
	C815.000061,408.962097 820.593079,417.312469 826.415833,426.005737 
	C800.585022,443.300934 775.064575,460.388367 749.148560,477.740631 
	C743.395264,469.080811 737.806580,460.668915 731.893982,451.769318 
	C739.866577,446.441437 747.682434,441.218323 755.800232,435.798187 
z"/>
<path fill="#020202" opacity="1.000000" stroke="none" 
	d="
M1102.320312,241.282394 
	C1087.654663,251.104813 1073.287720,260.723419 1058.354248,270.721283 
	C1052.670898,262.285950 1047.059814,253.957947 1041.045532,245.031616 
	C1066.739868,227.818710 1092.351929,210.660873 1118.336182,193.253799 
	C1124.146729,201.926239 1129.742432,210.277817 1135.584229,218.996826 
	C1124.371826,226.507370 1113.495361,233.792984 1102.320312,241.282394 
z"/>
<path fill="#010202" opacity="1.000000" stroke="none" 
	d="
M837.117676,381.529968 
	C862.274231,364.672150 887.132385,348.064240 912.249451,331.283325 
	C918.052490,339.943451 923.588501,348.205139 929.475464,356.990448 
	C903.763733,374.213043 878.154785,391.366852 852.200134,408.752167 
	C846.654602,400.463745 841.273743,392.492645 836.039001,384.426819 
	C835.713135,383.924805 836.532654,382.679443 837.117676,381.529968 
z"/>
<path fill="#020203" opacity="1.000000" stroke="none" 
	d="
M81.128967,887.195557 
	C83.363297,885.708801 85.296135,884.418213 87.766182,882.768921 
	C93.481567,891.293701 99.166138,899.772644 105.016937,908.499451 
	C79.288673,925.725830 53.764034,942.815857 27.733969,960.244324 
	C22.044039,951.761719 16.450748,943.423157 10.477716,934.518433 
	C34.041084,918.733521 57.434280,903.062561 81.128967,887.195557 
z"/>
<path fill="#020202" opacity="1.000000" stroke="none" 
	d="
M1219.024658,125.862747 
	C1220.524292,125.916672 1222.290771,125.751495 1222.789673,126.468391 
	C1228.089722,134.085358 1233.188354,141.842468 1238.639893,150.006424 
	C1212.891235,167.250793 1187.390869,184.328964 1161.402344,201.733994 
	C1155.689453,193.234177 1150.082031,184.891296 1144.119873,176.020538 
	C1169.080444,159.298096 1193.891846,142.675644 1219.024658,125.862747 
z"/>
<path fill="#020202" opacity="1.000000" stroke="none" 
	d="
M384.394562,684.383240 
	C388.560730,681.595886 392.436310,679.024292 396.933136,676.040466 
	C402.615021,684.489624 408.302155,692.946655 414.208801,701.730042 
	C388.546997,718.917603 363.030396,736.007935 336.914124,753.499939 
	C331.171021,744.930969 325.503967,736.475464 319.656433,727.750671 
	C341.352478,713.223816 362.728210,698.911438 384.394562,684.383240 
z"/>
</svg>