<svg version="1.1" id="Layer_1" xmlns="http://www.w3.org/2000/svg" xmlns:xlink="http://www.w3.org/1999/xlink" x="0px" y="0px"
	 width="100%" viewBox="0 0 1280 1024" enable-background="new 0 0 1280 1024" xml:space="preserve">
<path fill="#EB8755" opacity="1.000000" stroke="none" 
	d="
M737.000000,1025.000000 
	C491.333344,1025.000000 246.166672,1025.000000 1.000000,1025.000000 
	C1.000000,683.666687 1.000000,342.333344 1.000000,1.000000 
	C427.666656,1.000000 854.333313,1.000000 1281.000000,1.000000 
	C1281.000000,342.333344 1281.000000,683.666687 1281.000000,1025.000000 
	C1099.833374,1025.000000 918.666687,1025.000000 737.000000,1025.000000 
M421.902771,798.420837 
	C407.385468,795.021545 395.873871,800.813477 391.279297,814.311218 
	C387.613281,825.081177 387.949371,835.992737 392.306915,846.524475 
	C397.051086,857.990784 407.130005,863.577576 419.263794,860.970032 
	C423.859619,859.982361 428.020630,856.971558 432.418732,854.864319 
	C432.574493,855.998230 432.834961,857.894531 433.080536,859.682434 
	C438.193542,859.682434 443.092865,859.682434 447.955444,859.682434 
	C447.955444,832.144104 447.955444,804.933228 447.955444,777.894836 
	C442.544739,777.894836 437.503540,777.894836 431.881042,777.894836 
	C431.881042,787.351013 431.881042,796.333923 431.881042,804.955139 
	C428.610474,802.762268 425.612366,800.752075 421.902771,798.420837 
M882.774780,371.928894 
	C897.079590,376.715118 909.444519,371.106262 914.659668,357.082520 
	C918.306763,347.275299 918.571899,337.132446 915.418213,327.150970 
	C911.148926,313.638489 898.602417,306.303650 885.820068,310.211609 
	C881.487244,311.536255 877.777222,314.898102 873.755310,317.345581 
	C873.573486,315.551514 873.347961,313.326294 873.129700,311.172150 
	C867.981567,311.172150 863.224182,311.172150 858.461304,311.172150 
	C858.461304,339.525574 858.461304,367.566772 858.461304,395.602478 
	C863.794922,395.602478 868.728210,395.602478 874.233887,395.602478 
	C874.233887,385.483398 874.233887,375.626984 874.233887,365.461487 
	C877.196472,367.787537 879.639282,369.705414 882.774780,371.928894 
M564.817017,647.571228 
	C556.394409,646.244019 549.104736,648.362610 542.410156,656.177734 
	C542.410156,645.704712 542.410156,636.706421 542.410156,627.727783 
	C536.690308,627.727783 531.760559,627.727783 526.610962,627.727783 
	C526.610962,655.260864 526.610962,682.470642 526.610962,709.667664 
	C532.009033,709.667664 537.067078,709.667664 542.479919,709.667664 
	C542.479919,702.017212 542.418213,694.707336 542.500183,687.399048 
	C542.561707,681.909607 542.374512,676.365784 543.080750,670.948181 
	C543.973999,664.095642 549.156799,660.500122 556.302795,660.908325 
	C562.479736,661.261169 565.170959,664.502686 565.555664,672.141174 
	C565.647827,673.969421 565.596436,675.805298 565.596924,677.637695 
	C565.599731,688.273926 565.598328,698.910217 565.598328,709.744751 
	C571.115601,709.744751 576.181030,709.744751 581.292358,709.744751 
	C581.292358,694.205811 581.788391,678.911560 581.100403,663.670837 
	C580.708008,654.977966 574.797607,649.889038 564.817017,647.571228 
M698.448120,221.134033 
	C710.227722,227.710526 720.791565,224.733398 730.347046,217.066849 
	C731.703430,219.142075 732.763611,222.521347 734.251770,222.721710 
	C739.366089,223.410263 744.630127,222.986252 749.837158,222.986252 
	C750.105896,222.675262 750.374695,222.364273 750.643433,222.053284 
	C744.979919,217.116486 746.533569,210.730682 746.415283,204.742828 
	C746.247498,196.253555 746.430603,187.757980 746.350769,179.266174 
	C746.262207,169.837616 742.561462,164.742416 733.585876,161.973938 
	C724.567932,159.192413 715.456848,159.492233 706.556641,162.400040 
	C698.412903,165.060669 693.537964,172.796448 694.173279,181.396210 
	C694.761108,181.481934 695.393311,181.650436 696.026428,181.654083 
	C700.178650,181.678070 704.331055,181.666443 708.374939,181.666443 
	C711.852234,173.662201 717.754578,171.106201 725.711548,173.798431 
	C728.990845,174.907959 731.269104,177.250702 730.425537,180.377609 
	C729.908508,182.294357 727.103699,184.407761 724.964539,184.918686 
	C718.834534,186.382843 712.459534,186.797684 706.293884,188.143005 
	C699.128967,189.706360 693.855164,193.890656 692.119446,201.311279 
	C690.381348,208.741486 691.475708,215.571045 698.448120,221.134033 
M844.749756,173.830673 
	C848.669922,173.914154 852.766052,173.353104 856.435669,174.354630 
	C858.253967,174.850906 860.284119,178.194839 860.341919,180.301880 
	C860.383606,181.821365 857.560242,183.913116 855.587646,184.856552 
	C853.578491,185.817474 851.032166,185.609787 848.746704,186.047562 
	C843.370605,187.077286 837.801697,187.596695 832.690430,189.399124 
	C824.566772,192.263885 820.490662,200.158615 821.570740,209.063858 
	C822.608459,217.619888 827.939880,222.934479 836.856750,224.275284 
	C845.983032,225.647583 853.844299,222.801041 860.223633,217.045212 
	C861.711304,219.212555 862.815552,222.523422 864.337830,222.728348 
	C869.429688,223.413742 874.671021,222.988297 879.855042,222.988297 
	C880.111450,222.649521 880.367859,222.310745 880.624268,221.971970 
	C875.192688,217.378632 876.491577,211.344162 876.407288,205.664017 
	C876.276367,196.842575 876.433655,188.017212 876.349182,179.194656 
	C876.259338,169.806473 872.526611,164.718018 863.522461,161.957413 
	C854.503174,159.192200 845.395752,159.491592 836.503235,162.423782 
	C828.352966,165.111221 823.444702,172.958527 824.220337,181.447647 
	C828.966492,181.447647 833.737854,181.447647 837.445190,181.447647 
	C839.958923,178.602203 841.967834,176.328171 844.749756,173.830673 
M647.932373,858.631287 
	C653.120972,859.640381 658.290344,861.378723 663.501953,861.516052 
	C676.839600,861.867493 687.742859,853.586670 689.743164,842.052124 
	C685.227112,842.052124 680.768921,841.943298 676.322937,842.128845 
	C675.215149,842.175110 673.872314,842.924011 673.105957,843.772827 
	C668.760254,848.586182 663.532654,849.987183 657.416504,847.756714 
	C652.142700,845.833435 649.133240,840.977783 649.109619,833.759644 
	C662.984192,833.759644 676.870789,833.759644 691.378357,833.759644 
	C690.876038,828.673523 690.736877,824.183655 689.944153,819.812195 
	C687.500366,806.336060 678.279053,798.264526 664.546570,797.236694 
	C649.855652,796.137207 639.019104,802.897278 634.618225,816.090942 
	C631.922546,824.172729 631.734802,832.422302 633.728516,840.692810 
	C635.622009,848.547119 639.975281,854.555786 647.932373,858.631287 
M1004.726135,163.715393 
	C989.984314,157.016159 973.483704,160.127380 964.672546,171.267578 
	C956.646912,181.414597 955.939453,200.221985 963.162781,211.403732 
	C970.192200,222.285263 984.651123,227.281570 998.578857,223.455154 
	C1010.767639,220.106506 1018.013306,211.863068 1019.767700,199.563416 
	C1021.817383,185.193405 1019.185059,172.236511 1004.726135,163.715393 
M621.711914,816.884521 
	C621.316711,808.939270 618.170410,802.499939 610.585083,799.378296 
	C599.708374,794.902039 589.970276,796.745728 582.096191,806.777466 
	C581.888062,803.672607 581.737061,801.419556 581.581787,799.103027 
	C576.397400,799.103027 571.627991,799.103027 566.570068,799.103027 
	C566.570068,819.413086 566.570068,839.477295 566.570068,859.740051 
	C571.904968,859.740051 576.968689,859.740051 582.478088,859.740051 
	C582.478088,850.671143 582.433411,841.866333 582.498169,833.062195 
	C582.527466,829.070190 582.446899,825.034302 582.994080,821.098633 
	C583.940735,814.289734 588.964539,810.580200 596.108643,810.899292 
	C602.376526,811.179260 605.214783,814.353699 605.523193,821.939148 
	C605.739563,827.262634 605.593872,832.601196 605.598450,837.932983 
	C605.604675,845.205200 605.599976,852.477478 605.599976,859.622437 
	C611.325989,859.622437 616.388000,859.622437 621.742249,859.622437 
	C621.742249,845.426636 621.742249,831.617737 621.711914,816.884521 
M1074.853027,223.010681 
	C1078.976196,223.010681 1083.099365,223.010681 1087.145752,223.010681 
	C1087.145752,206.917267 1087.666382,191.292221 1086.932861,175.726273 
	C1086.548218,167.560944 1080.392578,162.887909 1072.628540,161.009506 
	C1062.917969,158.660126 1054.610107,161.049072 1048.068115,170.134384 
	C1047.918091,166.861389 1047.815063,164.611542 1047.704102,162.189087 
	C1042.500366,162.189087 1037.617188,162.189087 1032.624390,162.189087 
	C1032.624390,182.586563 1032.624390,202.650024 1032.624390,222.647003 
	C1038.034668,222.647003 1043.092285,222.647003 1048.596558,222.647003 
	C1048.596558,210.475540 1048.324097,198.656830 1048.686279,186.857620 
	C1048.955811,178.081528 1053.853027,173.650818 1061.822876,173.888275 
	C1068.872437,174.098312 1071.533081,177.642853 1071.584839,187.150894 
	C1071.642090,197.648010 1071.509277,208.147369 1071.704590,218.641205 
	C1071.731812,220.109192 1073.156982,221.551147 1074.853027,223.010681 
M548.024963,805.609436 
	C544.249634,800.379944 538.914551,797.970459 532.696228,797.323792 
	C524.352417,796.456116 517.491638,799.382690 511.955444,806.853027 
	C511.648102,803.527100 511.442810,801.305420 511.244690,799.161743 
	C506.006134,799.161743 501.245422,799.161743 496.368408,799.161743 
	C496.368408,819.522339 496.368408,839.581909 496.368408,859.681885 
	C501.746429,859.681885 506.812683,859.681885 512.164429,859.681885 
	C512.164429,848.713623 512.109924,838.068176 512.203003,827.424011 
	C512.226074,824.781860 512.401733,822.057800 513.072876,819.521057 
	C514.719421,813.297913 520.015747,810.172485 526.975098,810.955444 
	C532.470947,811.573853 535.115662,814.972046 535.188782,822.055054 
	C535.300598,832.885193 535.227051,843.717224 535.231873,854.548462 
	C535.232605,856.292480 535.231934,858.036560 535.231934,859.796997 
	C541.001404,859.796997 545.957031,859.796997 551.073547,859.796997 
	C551.073547,844.288025 551.191833,828.986145 550.955261,813.689697 
	C550.916504,811.187988 549.313049,808.710449 548.024963,805.609436 
M407.190430,709.872131 
	C407.459991,708.302307 407.951324,706.734131 407.962921,705.162415 
	C408.035492,695.329712 407.909027,685.494873 408.063568,675.664124 
	C408.104614,673.053223 408.492981,670.295898 409.431763,667.881897 
	C411.547821,662.440552 417.107147,659.917908 423.485718,661.035034 
	C428.384491,661.893066 430.884613,665.374084 431.004700,671.803528 
	C431.104279,677.134949 431.036652,682.469604 431.038483,687.802795 
	C431.041016,695.078979 431.039124,702.355225 431.039124,709.685913 
	C436.682098,709.685913 441.745544,709.685913 447.105011,709.685913 
	C447.105011,695.727844 447.168091,682.084229 447.087921,668.441528 
	C447.000946,653.644287 436.050293,644.492432 421.537994,647.888611 
	C416.445831,649.080261 411.933746,652.750488 407.332855,655.195374 
	C407.250153,653.777405 407.118622,651.521240 406.987885,649.278931 
	C401.824860,649.278931 396.948730,649.278931 392.149170,649.278931 
	C392.149170,669.636047 392.149170,689.581177 392.149170,709.982422 
	C396.992554,709.982422 401.615295,709.982422 407.190430,709.872131 
M376.109436,685.500000 
	C376.109436,673.411560 376.109436,661.323120 376.109436,649.208740 
	C370.444794,649.208740 365.395508,649.208740 360.026855,649.208740 
	C360.026855,660.340332 360.083008,671.133362 359.986511,681.925110 
	C359.962982,684.556519 359.809723,687.293396 359.070251,689.790527 
	C357.303497,695.756836 351.724915,698.891052 345.369110,697.890381 
	C340.067200,697.055664 337.410492,693.688171 337.190643,687.085938 
	C337.024597,682.098145 337.137054,677.100952 337.134216,672.107910 
	C337.129913,664.506042 337.133087,656.904236 337.133087,649.183350 
	C331.524963,649.183350 326.476288,649.183350 321.064423,649.183350 
	C321.064423,662.945007 320.963623,676.394714 321.096619,689.842102 
	C321.201263,700.421387 325.447327,707.213013 333.388062,710.171143 
	C342.491364,713.562378 352.018738,711.192749 358.796204,703.889099 
	C359.251648,703.398254 359.914948,703.100342 360.915710,702.415649 
	C360.915710,705.208679 360.915710,707.356262 360.915710,709.695496 
	C366.006805,709.695496 370.896912,709.695496 376.109436,709.695496 
	C376.109436,701.760254 376.109436,694.130127 376.109436,685.500000 
M809.962463,212.402512 
	C811.381836,208.796936 812.801208,205.191360 814.538940,200.777252 
	C809.733704,200.777252 806.098694,200.952362 802.489136,200.724640 
	C799.314148,200.524338 797.501709,201.182770 796.389526,204.683670 
	C795.033203,208.953125 791.495789,211.221191 786.777283,211.261093 
	C782.202026,211.299774 778.325562,209.667725 776.651245,205.377686 
	C773.401611,197.052002 773.000854,188.507172 776.801636,180.170242 
	C778.888733,175.592331 782.690002,173.646820 787.713196,173.862091 
	C792.480286,174.066360 795.299255,176.588058 797.028381,180.871811 
	C797.489197,182.013367 798.775391,183.560654 799.765137,183.623566 
	C804.367249,183.916229 808.998352,183.753128 813.694458,183.753128 
	C813.694458,182.420639 813.820862,181.581100 813.675537,180.791565 
	C811.445618,168.677460 802.872864,161.409927 789.497620,160.251190 
	C775.634460,159.050171 763.996826,165.581436 760.342773,177.834488 
	C758.481384,184.076462 757.975647,190.929321 758.038574,197.494720 
	C758.162781,210.455658 764.999329,219.818375 775.690552,223.149918 
	C789.087341,227.324585 801.763123,223.535751 809.962463,212.402512 
M475.670227,672.605591 
	C475.845276,671.791260 475.932220,670.945557 476.209747,670.167786 
	C477.993713,665.168091 480.752747,661.252686 486.672394,660.885132 
	C492.428864,660.527771 494.872925,662.226562 497.975708,668.555176 
	C498.407349,669.435486 499.417450,670.612427 500.201385,670.644836 
	C504.928833,670.840149 509.668396,670.741821 514.615234,670.741821 
	C513.951599,661.922607 510.552094,655.635681 503.635315,651.391235 
	C485.919861,640.520081 463.797699,649.747864 459.620422,669.975220 
	C458.656189,674.644226 458.481781,679.592163 458.718109,684.373474 
	C459.780365,705.867981 475.316559,714.776733 495.112457,710.650940 
	C506.200195,708.340149 514.449097,697.968445 513.817017,687.778259 
	C511.352539,687.778259 508.866852,687.778259 506.381134,687.778259 
	C503.759613,687.778259 501.138092,687.778259 498.709503,687.778259 
	C495.922363,695.914368 492.503418,698.659424 486.198303,698.214966 
	C480.250610,697.795715 476.717316,694.141785 475.673584,686.340332 
	C475.106354,682.100342 475.495270,677.732544 475.670227,672.605591 
M668.603210,164.840958 
	C664.658081,178.397507 660.712891,191.954056 656.767761,205.510605 
	C656.462158,205.497330 656.156616,205.484039 655.851074,205.470764 
	C651.763489,191.001175 647.675903,176.531601 643.587036,162.057434 
	C637.551147,162.057434 631.932068,162.057434 625.890442,162.057434 
	C626.503418,163.901337 626.987427,165.455475 627.534302,166.987167 
	C632.784729,181.691299 638.039673,196.393814 643.305725,211.092392 
	C647.652405,223.224899 647.659729,223.101822 660.724854,223.096298 
	C663.799255,223.095001 664.993164,221.967316 665.949890,219.260132 
	C672.203552,201.564636 678.621765,183.927338 684.960571,166.261810 
	C685.423340,164.972092 685.683533,163.609680 686.148560,161.865921 
	C681.026978,161.865921 676.540527,161.726028 672.074402,161.964966 
	C670.966980,162.024200 669.925354,163.310898 668.603210,164.840958 
M913.258362,223.816330 
	C915.185608,223.583740 917.112854,223.351151 919.006104,223.122650 
	C919.006104,219.001495 919.006104,215.392471 919.006104,211.424042 
	C917.803101,211.424042 916.846252,211.443405 915.890381,211.420883 
	C909.808350,211.277649 909.298767,210.789062 909.260498,204.860336 
	C909.230469,200.203033 909.253845,195.545364 909.253784,190.887863 
	C909.253662,185.136627 909.253723,179.385391 909.253723,173.481476 
	C912.981201,173.308014 915.912598,173.171585 918.878540,173.033554 
	C918.878540,169.179672 918.878540,165.651917 918.878540,161.685379 
	C915.574829,161.685379 912.644043,161.685379 909.170410,161.685379 
	C909.170410,155.997284 909.170410,150.745071 909.170410,145.607971 
	C903.546265,145.607971 898.483459,145.607971 892.857178,145.607971 
	C892.857178,151.233261 892.857178,156.456024 892.857178,161.967331 
	C889.995605,161.967331 887.718079,161.967331 885.239502,161.967331 
	C885.239502,165.832458 885.239502,169.372421 885.239502,173.020142 
	C887.955200,173.195633 890.380920,173.352386 892.640930,173.498428 
	C892.873535,174.225067 893.060364,174.537842 893.061523,174.851318 
	C893.100281,184.997223 893.132751,195.143204 893.141907,205.289185 
	C893.155945,220.851212 896.082336,223.759491 911.856689,223.836868 
	C912.023010,223.837677 912.189392,223.835678 913.258362,223.816330 
M760.046265,347.458252 
	C760.046265,339.181549 760.046265,330.904846 760.046265,322.470001 
	C763.637085,322.292084 766.715332,322.139557 769.785095,321.987457 
	C769.785095,318.140015 769.785095,314.709534 769.785095,310.731171 
	C766.476196,310.731171 763.420654,310.731171 759.833557,310.731171 
	C759.833557,304.958099 759.833557,299.733582 759.833557,294.459717 
	C754.358948,294.459717 749.436035,294.459717 743.995972,294.459717 
	C743.995972,299.929138 743.995972,305.170410 743.995972,310.635834 
	C741.059143,310.800903 738.623535,310.937775 736.070190,311.081299 
	C736.070190,314.820343 736.070190,318.375549 736.070190,322.076080 
	C738.826904,322.204529 741.260193,322.317902 743.985229,322.444855 
	C743.985229,324.643738 743.984558,326.460602 743.985352,328.277466 
	C743.989929,338.927704 743.941345,349.578369 744.024170,360.227997 
	C744.061035,364.969727 745.281189,369.298553 750.314819,371.081177 
	C756.697083,373.341370 763.225708,373.375214 770.041504,371.960754 
	C770.041504,368.787628 770.059448,365.972229 770.030151,363.157318 
	C770.021851,362.364441 769.874939,361.573029 769.797546,360.837158 
	C760.046570,359.746887 760.046631,359.746887 760.046326,349.939240 
	C760.046326,349.440002 760.046265,348.940796 760.046265,347.458252 
M289.275970,696.486267 
	C289.275970,700.917114 289.275970,705.348022 289.275970,709.839966 
	C294.992584,709.839966 299.958801,709.839966 305.167175,709.839966 
	C305.167175,682.443176 305.167175,655.220703 305.167175,627.772583 
	C299.804657,627.772583 294.762573,627.772583 289.275970,627.772583 
	C289.275970,650.590088 289.275970,673.040710 289.275970,696.486267 
M737.917114,799.032654 
	C736.585510,798.425964 735.244141,797.282776 733.924072,797.306946 
	C728.619934,797.403870 724.342407,799.754639 721.206177,804.081238 
	C720.336792,805.280457 719.490723,806.496643 717.789551,808.896301 
	C717.789551,804.601318 717.789551,801.962158 717.789551,799.099609 
	C712.582703,799.099609 707.656738,799.099609 702.551514,799.099609 
	C702.551514,819.407532 702.551514,839.468872 702.551514,859.756348 
	C707.890991,859.756348 712.954407,859.756348 718.482361,859.756348 
	C718.482361,857.706299 718.479858,855.901062 718.482788,854.095764 
	C718.496887,845.437805 718.312378,836.773743 718.579224,828.123535 
	C718.895752,817.864136 722.842407,814.091064 733.009216,813.681946 
	C734.582581,813.618652 736.160706,813.673035 737.947754,813.673035 
	C737.947754,808.581665 737.947754,804.259094 737.917114,799.032654 
M796.190491,371.872162 
	C796.460022,370.304810 796.949585,368.739319 796.962891,367.169800 
	C797.040649,358.017273 796.901306,348.862213 797.040222,339.711121 
	C797.179016,330.574829 801.365479,326.301239 810.378479,325.728851 
	C812.178040,325.614532 813.981262,325.555847 815.969604,325.462769 
	C815.969604,320.063019 815.969604,314.854523 815.969604,309.703308 
	C807.916321,308.602264 805.841980,309.665771 796.473816,319.765778 
	C796.296875,316.556824 796.149170,313.877655 795.998047,311.137146 
	C790.839722,311.137146 786.098694,311.137146 781.156616,311.137146 
	C781.156616,331.450623 781.156616,351.494354 781.156616,371.982422 
	C786.002808,371.982422 790.620422,371.982422 796.190491,371.872162 
M841.252380,371.885895 
	C841.554016,370.670349 842.114502,369.455566 842.118286,368.239105 
	C842.174255,350.275757 842.164062,332.312134 842.136841,314.348633 
	C842.135193,313.255524 841.860596,312.162811 841.717773,311.105591 
	C836.462280,311.105591 831.530640,311.105591 826.453247,311.105591 
	C826.453247,331.500824 826.453247,351.655212 826.453247,371.986481 
	C831.321045,371.986481 835.805969,371.986481 841.252380,371.885895 
M945.996338,208.494232 
	C945.996338,193.075500 945.996338,177.656784 945.996338,162.194412 
	C940.361267,162.194412 935.308350,162.194412 930.213562,162.194412 
	C930.213562,182.559021 930.213562,202.599091 930.213562,222.693268 
	C935.570251,222.693268 940.627197,222.693268 945.996338,222.693268 
	C945.996338,218.089996 945.996338,213.790237 945.996338,208.494232 
M464.068817,812.509766 
	C464.068817,828.239563 464.068817,843.969360 464.068817,859.662109 
	C469.794525,859.662109 474.857452,859.662109 480.158112,859.662109 
	C480.158112,849.359009 480.158112,839.395447 480.158112,829.431824 
	C480.158112,819.354736 480.158112,809.277649 480.158112,798.866943 
	C477.035370,798.866943 474.568451,798.867004 472.101501,798.867004 
	C469.515747,798.867004 466.929993,798.866943 464.068817,798.866943 
	C464.068817,803.576538 464.068817,807.545227 464.068817,812.509766 
M607.020386,200.289627 
	C607.241638,199.316910 607.541138,198.354538 607.671509,197.369781 
	C608.596985,190.377258 605.118896,183.491531 599.022766,180.173828 
	C593.227722,177.019974 584.820923,177.987335 579.852417,182.379761 
	C574.567749,187.051727 572.522339,194.542923 575.150269,201.021774 
	C577.813538,207.587936 582.819580,211.520096 589.969116,211.885406 
	C598.011719,212.296371 603.533936,208.276505 607.020386,200.289627 
M716.623474,338.135071 
	C711.091919,325.203400 694.282715,324.978790 687.251038,334.902740 
	C682.880066,341.071564 683.291992,349.960144 688.286499,355.691559 
	C693.181824,361.309204 702.263245,363.068420 708.796265,359.664642 
	C716.293518,355.758423 719.394470,347.823395 716.623474,338.135071 
M252.587662,666.619141 
	C245.146072,664.919434 239.000412,667.200378 234.613571,673.271362 
	C230.564774,678.874573 230.575409,685.184265 233.647552,691.208618 
	C236.930511,697.646362 244.460739,701.027832 251.303665,699.687744 
	C258.633636,698.252136 264.180145,692.296326 264.930725,685.055176 
	C265.799408,676.674500 261.846313,670.456543 252.587662,666.619141 
M341.569580,818.964050 
	C335.253235,823.827698 333.612976,830.343201 335.634430,837.684082 
	C337.307495,843.759766 341.573120,847.731873 347.855103,848.849304 
	C354.716553,850.069763 360.764832,848.425293 365.131470,842.518616 
	C369.546753,836.546265 369.217957,827.266968 364.389801,821.610107 
	C358.942657,815.228027 350.502991,814.065552 341.569580,818.964050 
M464.052490,783.557983 
	C464.052490,786.022278 464.052490,788.486572 464.052490,791.276184 
	C469.487701,791.276184 474.550751,791.276184 479.898010,791.276184 
	C479.898010,786.473083 479.898010,781.754395 479.898010,776.928955 
	C474.540802,776.928955 469.461639,776.928955 464.052490,776.928955 
	C464.052490,779.008606 464.052490,780.818298 464.052490,783.557983 
M838.062622,303.604187 
	C839.421509,302.900330 841.875916,302.301178 841.954895,301.474976 
	C842.355347,297.285461 842.139343,293.036987 842.139343,288.896729 
	C836.414734,288.896729 831.463745,288.896729 826.418457,288.896729 
	C826.418457,293.825256 826.418457,298.509125 826.418457,303.604645 
	C830.241577,303.604645 833.703430,303.604645 838.062622,303.604187 
M946.009155,151.194214 
	C946.009155,147.456741 946.009155,143.719284 946.009155,140.001587 
	C940.301270,140.001587 935.252014,140.001587 930.165405,140.001587 
	C930.165405,144.919846 930.165405,149.498413 930.165405,154.567093 
	C934.862183,154.567093 939.309692,154.686157 943.739197,154.456863 
	C944.532349,154.415787 945.250854,152.934601 946.009155,151.194214 
z"/>
<path fill="#040202" opacity="1.000000" stroke="none" 
	d="
M422.258514,798.581360 
	C425.612366,800.752075 428.610474,802.762268 431.881042,804.955139 
	C431.881042,796.333923 431.881042,787.351013 431.881042,777.894836 
	C437.503540,777.894836 442.544739,777.894836 447.955444,777.894836 
	C447.955444,804.933228 447.955444,832.144104 447.955444,859.682434 
	C443.092865,859.682434 438.193542,859.682434 433.080536,859.682434 
	C432.834961,857.894531 432.574493,855.998230 432.418732,854.864319 
	C428.020630,856.971558 423.859619,859.982361 419.263794,860.970032 
	C407.130005,863.577576 397.051086,857.990784 392.306915,846.524475 
	C387.949371,835.992737 387.613281,825.081177 391.279297,814.311218 
	C395.873871,800.813477 407.385468,795.021545 422.258514,798.581360 
M407.035889,839.043335 
	C410.579956,846.599792 413.936249,848.846924 420.673157,848.173523 
	C426.765198,847.564697 431.211639,843.650696 432.181976,836.299377 
	C432.861267,831.153503 432.525940,825.655029 431.473785,820.555481 
	C430.201080,814.387268 425.487152,811.246521 419.543213,811.112183 
	C413.709412,810.980225 408.519592,813.969788 407.307159,820.101196 
	C406.149780,825.954285 406.902374,832.185059 407.035889,839.043335 
z"/>
<path fill="#040201" opacity="1.000000" stroke="none" 
	d="
M882.428406,371.776093 
	C879.639282,369.705414 877.196472,367.787537 874.233887,365.461487 
	C874.233887,375.626984 874.233887,385.483398 874.233887,395.602478 
	C868.728210,395.602478 863.794922,395.602478 858.461304,395.602478 
	C858.461304,367.566772 858.461304,339.525574 858.461304,311.172150 
	C863.224182,311.172150 867.981567,311.172150 873.129700,311.172150 
	C873.347961,313.326294 873.573486,315.551514 873.755310,317.345581 
	C877.777222,314.898102 881.487244,311.536255 885.820068,310.211609 
	C898.602417,306.303650 911.148926,313.638489 915.418213,327.150970 
	C918.571899,337.132446 918.306763,347.275299 914.659668,357.082520 
	C909.444519,371.106262 897.079590,376.715118 882.428406,371.776093 
M876.327209,329.075806 
	C872.827271,336.856537 872.366272,344.829193 875.549866,352.735199 
	C877.598511,357.822662 881.774475,360.233124 887.347168,360.295258 
	C892.637268,360.354218 896.135742,357.779449 898.357910,353.225494 
	C901.574341,346.634003 901.674805,339.753632 899.691528,332.856445 
	C898.269653,327.911499 895.144836,324.314728 889.842468,323.388947 
	C884.562744,322.467133 879.951416,323.730713 876.327209,329.075806 
z"/>
<path fill="#060302" opacity="1.000000" stroke="none" 
	d="
M565.229980,647.656189 
	C574.797607,649.889038 580.708008,654.977966 581.100403,663.670837 
	C581.788391,678.911560 581.292358,694.205811 581.292358,709.744751 
	C576.181030,709.744751 571.115601,709.744751 565.598328,709.744751 
	C565.598328,698.910217 565.599731,688.273926 565.596924,677.637695 
	C565.596436,675.805298 565.647827,673.969421 565.555664,672.141174 
	C565.170959,664.502686 562.479736,661.261169 556.302795,660.908325 
	C549.156799,660.500122 543.973999,664.095642 543.080750,670.948181 
	C542.374512,676.365784 542.561707,681.909607 542.500183,687.399048 
	C542.418213,694.707336 542.479919,702.017212 542.479919,709.667664 
	C537.067078,709.667664 532.009033,709.667664 526.610962,709.667664 
	C526.610962,682.470642 526.610962,655.260864 526.610962,627.727783 
	C531.760559,627.727783 536.690308,627.727783 542.410156,627.727783 
	C542.410156,636.706421 542.410156,645.704712 542.410156,656.177734 
	C549.104736,648.362610 556.394409,646.244019 565.229980,647.656189 
z"/>
<path fill="#040302" opacity="1.000000" stroke="none" 
	d="
M698.145142,220.930237 
	C691.475708,215.571045 690.381348,208.741486 692.119446,201.311279 
	C693.855164,193.890656 699.128967,189.706360 706.293884,188.143005 
	C712.459534,186.797684 718.834534,186.382843 724.964539,184.918686 
	C727.103699,184.407761 729.908508,182.294357 730.425537,180.377609 
	C731.269104,177.250702 728.990845,174.907959 725.711548,173.798431 
	C717.754578,171.106201 711.852234,173.662201 708.374939,181.666443 
	C704.331055,181.666443 700.178650,181.678070 696.026428,181.654083 
	C695.393311,181.650436 694.761108,181.481934 694.173279,181.396210 
	C693.537964,172.796448 698.412903,165.060669 706.556641,162.400040 
	C715.456848,159.492233 724.567932,159.192413 733.585876,161.973938 
	C742.561462,164.742416 746.262207,169.837616 746.350769,179.266174 
	C746.430603,187.757980 746.247498,196.253555 746.415283,204.742828 
	C746.533569,210.730682 744.979919,217.116486 750.643433,222.053284 
	C750.374695,222.364273 750.105896,222.675262 749.837158,222.986252 
	C744.630127,222.986252 739.366089,223.410263 734.251770,222.721710 
	C732.763611,222.521347 731.703430,219.142075 730.347046,217.066849 
	C720.791565,224.733398 710.227722,227.710526 698.145142,220.930237 
M730.375610,203.464188 
	C730.524597,200.402756 730.673645,197.341324 730.830750,194.114426 
	C724.386963,195.541840 718.521545,196.585907 712.812866,198.188370 
	C708.427979,199.419189 707.113770,203.019104 707.770203,207.260208 
	C708.422058,211.471985 711.479980,213.035355 715.310730,213.001068 
	C721.868652,212.942413 727.374329,210.834991 730.375610,203.464188 
z"/>
<path fill="#040302" opacity="1.000000" stroke="none" 
	d="
M844.363281,173.942398 
	C841.967834,176.328171 839.958923,178.602203 837.445190,181.447647 
	C833.737854,181.447647 828.966492,181.447647 824.220337,181.447647 
	C823.444702,172.958527 828.352966,165.111221 836.503235,162.423782 
	C845.395752,159.491592 854.503174,159.192200 863.522461,161.957413 
	C872.526611,164.718018 876.259338,169.806473 876.349182,179.194656 
	C876.433655,188.017212 876.276367,196.842575 876.407288,205.664017 
	C876.491577,211.344162 875.192688,217.378632 880.624268,221.971970 
	C880.367859,222.310745 880.111450,222.649521 879.855042,222.988297 
	C874.671021,222.988297 869.429688,223.413742 864.337830,222.728348 
	C862.815552,222.523422 861.711304,219.212555 860.223633,217.045212 
	C853.844299,222.801041 845.983032,225.647583 836.856750,224.275284 
	C827.939880,222.934479 822.608459,217.619888 821.570740,209.063858 
	C820.490662,200.158615 824.566772,192.263885 832.690430,189.399124 
	C837.801697,187.596695 843.370605,187.077286 848.746704,186.047562 
	C851.032166,185.609787 853.578491,185.817474 855.587646,184.856552 
	C857.560242,183.913116 860.383606,181.821365 860.341919,180.301880 
	C860.284119,178.194839 858.253967,174.850906 856.435669,174.354630 
	C852.766052,173.353104 848.669922,173.914154 844.363281,173.942398 
M839.478699,200.202881 
	C839.241089,203.467621 837.755432,207.486252 839.136780,209.773087 
	C840.377991,211.827820 844.823242,212.959671 847.759216,212.794464 
	C857.879028,212.225113 862.668335,204.598892 859.947998,193.881378 
	C853.315125,195.804169 846.687866,197.725357 839.478699,200.202881 
z"/>
<path fill="#060302" opacity="1.000000" stroke="none" 
	d="
M647.608459,858.443787 
	C639.975281,854.555786 635.622009,848.547119 633.728516,840.692810 
	C631.734802,832.422302 631.922546,824.172729 634.618225,816.090942 
	C639.019104,802.897278 649.855652,796.137207 664.546570,797.236694 
	C678.279053,798.264526 687.500366,806.336060 689.944153,819.812195 
	C690.736877,824.183655 690.876038,828.673523 691.378357,833.759644 
	C676.870789,833.759644 662.984192,833.759644 649.109619,833.759644 
	C649.133240,840.977783 652.142700,845.833435 657.416504,847.756714 
	C663.532654,849.987183 668.760254,848.586182 673.105957,843.772827 
	C673.872314,842.924011 675.215149,842.175110 676.322937,842.128845 
	C680.768921,841.943298 685.227112,842.052124 689.743164,842.052124 
	C687.742859,853.586670 676.839600,861.867493 663.501953,861.516052 
	C658.290344,861.378723 653.120972,859.640381 647.608459,858.443787 
M674.099304,821.879089 
	C672.582703,813.966064 668.019470,810.023804 660.953857,810.522583 
	C653.905701,811.020020 649.994507,815.270691 649.608826,822.736816 
	C657.690002,822.736816 665.775879,822.736816 674.099304,821.879089 
z"/>
<path fill="#040201" opacity="1.000000" stroke="none" 
	d="
M1005.059692,163.881195 
	C1019.185059,172.236511 1021.817383,185.193405 1019.767700,199.563416 
	C1018.013306,211.863068 1010.767639,220.106506 998.578857,223.455154 
	C984.651123,227.281570 970.192200,222.285263 963.162781,211.403732 
	C955.939453,200.221985 956.646912,181.414597 964.672546,171.267578 
	C973.483704,160.127380 989.984314,157.016159 1005.059692,163.881195 
M1001.172668,204.478546 
	C1004.235291,198.417526 1004.504395,192.067169 1003.084412,185.559921 
	C1001.359314,177.654770 996.846985,173.834747 989.316223,173.845856 
	C981.898071,173.856796 976.791321,177.765106 975.561951,185.565933 
	C974.828064,190.222855 975.064331,195.176620 975.732117,199.873596 
	C976.544922,205.590866 980.077515,209.649933 985.971558,210.707382 
	C991.870117,211.765640 997.270386,210.730438 1001.172668,204.478546 
z"/>
<path fill="#060302" opacity="1.000000" stroke="none" 
	d="
M621.727051,817.346680 
	C621.742249,831.617737 621.742249,845.426636 621.742249,859.622437 
	C616.388000,859.622437 611.325989,859.622437 605.599976,859.622437 
	C605.599976,852.477478 605.604675,845.205200 605.598450,837.932983 
	C605.593872,832.601196 605.739563,827.262634 605.523193,821.939148 
	C605.214783,814.353699 602.376526,811.179260 596.108643,810.899292 
	C588.964539,810.580200 583.940735,814.289734 582.994080,821.098633 
	C582.446899,825.034302 582.527466,829.070190 582.498169,833.062195 
	C582.433411,841.866333 582.478088,850.671143 582.478088,859.740051 
	C576.968689,859.740051 571.904968,859.740051 566.570068,859.740051 
	C566.570068,839.477295 566.570068,819.413086 566.570068,799.103027 
	C571.627991,799.103027 576.397400,799.103027 581.581787,799.103027 
	C581.737061,801.419556 581.888062,803.672607 582.096191,806.777466 
	C589.970276,796.745728 599.708374,794.902039 610.585083,799.378296 
	C618.170410,802.499939 621.316711,808.939270 621.727051,817.346680 
z"/>
<path fill="#060302" opacity="1.000000" stroke="none" 
	d="
M1074.394043,223.007904 
	C1073.156982,221.551147 1071.731812,220.109192 1071.704590,218.641205 
	C1071.509277,208.147369 1071.642090,197.648010 1071.584839,187.150894 
	C1071.533081,177.642853 1068.872437,174.098312 1061.822876,173.888275 
	C1053.853027,173.650818 1048.955811,178.081528 1048.686279,186.857620 
	C1048.324097,198.656830 1048.596558,210.475540 1048.596558,222.647003 
	C1043.092285,222.647003 1038.034668,222.647003 1032.624390,222.647003 
	C1032.624390,202.650024 1032.624390,182.586563 1032.624390,162.189087 
	C1037.617188,162.189087 1042.500366,162.189087 1047.704102,162.189087 
	C1047.815063,164.611542 1047.918091,166.861389 1048.068115,170.134384 
	C1054.610107,161.049072 1062.917969,158.660126 1072.628540,161.009506 
	C1080.392578,162.887909 1086.548218,167.560944 1086.932861,175.726273 
	C1087.666382,191.292221 1087.145752,206.917267 1087.145752,223.010681 
	C1083.099365,223.010681 1078.976196,223.010681 1074.394043,223.007904 
z"/>
<path fill="#040201" opacity="1.000000" stroke="none" 
	d="
M548.228882,805.915588 
	C549.313049,808.710449 550.916504,811.187988 550.955261,813.689697 
	C551.191833,828.986145 551.073547,844.288025 551.073547,859.796997 
	C545.957031,859.796997 541.001404,859.796997 535.231934,859.796997 
	C535.231934,858.036560 535.232605,856.292480 535.231873,854.548462 
	C535.227051,843.717224 535.300598,832.885193 535.188782,822.055054 
	C535.115662,814.972046 532.470947,811.573853 526.975098,810.955444 
	C520.015747,810.172485 514.719421,813.297913 513.072876,819.521057 
	C512.401733,822.057800 512.226074,824.781860 512.203003,827.424011 
	C512.109924,838.068176 512.164429,848.713623 512.164429,859.681885 
	C506.812683,859.681885 501.746429,859.681885 496.368408,859.681885 
	C496.368408,839.581909 496.368408,819.522339 496.368408,799.161743 
	C501.245422,799.161743 506.006134,799.161743 511.244690,799.161743 
	C511.442810,801.305420 511.648102,803.527100 511.955444,806.853027 
	C517.491638,799.382690 524.352417,796.456116 532.696228,797.323792 
	C538.914551,797.970459 544.249634,800.379944 548.228882,805.915588 
z"/>
<path fill="#020101" opacity="1.000000" stroke="none" 
	d="
M406.714233,709.927246 
	C401.615295,709.982422 396.992554,709.982422 392.149170,709.982422 
	C392.149170,689.581177 392.149170,669.636047 392.149170,649.278931 
	C396.948730,649.278931 401.824860,649.278931 406.987885,649.278931 
	C407.118622,651.521240 407.250153,653.777405 407.332855,655.195374 
	C411.933746,652.750488 416.445831,649.080261 421.537994,647.888611 
	C436.050293,644.492432 447.000946,653.644287 447.087921,668.441528 
	C447.168091,682.084229 447.105011,695.727844 447.105011,709.685913 
	C441.745544,709.685913 436.682098,709.685913 431.039124,709.685913 
	C431.039124,702.355225 431.041016,695.078979 431.038483,687.802795 
	C431.036652,682.469604 431.104279,677.134949 431.004700,671.803528 
	C430.884613,665.374084 428.384491,661.893066 423.485718,661.035034 
	C417.107147,659.917908 411.547821,662.440552 409.431763,667.881897 
	C408.492981,670.295898 408.104614,673.053223 408.063568,675.664124 
	C407.909027,685.494873 408.035492,695.329712 407.962921,705.162415 
	C407.951324,706.734131 407.459991,708.302307 406.714233,709.927246 
z"/>
<path fill="#020101" opacity="1.000000" stroke="none" 
	d="
M376.109436,686.000000 
	C376.109436,694.130127 376.109436,701.760254 376.109436,709.695496 
	C370.896912,709.695496 366.006805,709.695496 360.915710,709.695496 
	C360.915710,707.356262 360.915710,705.208679 360.915710,702.415649 
	C359.914948,703.100342 359.251648,703.398254 358.796204,703.889099 
	C352.018738,711.192749 342.491364,713.562378 333.388062,710.171143 
	C325.447327,707.213013 321.201263,700.421387 321.096619,689.842102 
	C320.963623,676.394714 321.064423,662.945007 321.064423,649.183350 
	C326.476288,649.183350 331.524963,649.183350 337.133087,649.183350 
	C337.133087,656.904236 337.129913,664.506042 337.134216,672.107910 
	C337.137054,677.100952 337.024597,682.098145 337.190643,687.085938 
	C337.410492,693.688171 340.067200,697.055664 345.369110,697.890381 
	C351.724915,698.891052 357.303497,695.756836 359.070251,689.790527 
	C359.809723,687.293396 359.962982,684.556519 359.986511,681.925110 
	C360.083008,671.133362 360.026855,660.340332 360.026855,649.208740 
	C365.395508,649.208740 370.444794,649.208740 376.109436,649.208740 
	C376.109436,661.323120 376.109436,673.411560 376.109436,686.000000 
z"/>
<path fill="#050302" opacity="1.000000" stroke="none" 
	d="
M809.769409,212.711929 
	C801.763123,223.535751 789.087341,227.324585 775.690552,223.149918 
	C764.999329,219.818375 758.162781,210.455658 758.038574,197.494720 
	C757.975647,190.929321 758.481384,184.076462 760.342773,177.834488 
	C763.996826,165.581436 775.634460,159.050171 789.497620,160.251190 
	C802.872864,161.409927 811.445618,168.677460 813.675537,180.791565 
	C813.820862,181.581100 813.694458,182.420639 813.694458,183.753128 
	C808.998352,183.753128 804.367249,183.916229 799.765137,183.623566 
	C798.775391,183.560654 797.489197,182.013367 797.028381,180.871811 
	C795.299255,176.588058 792.480286,174.066360 787.713196,173.862091 
	C782.690002,173.646820 778.888733,175.592331 776.801636,180.170242 
	C773.000854,188.507172 773.401611,197.052002 776.651245,205.377686 
	C778.325562,209.667725 782.202026,211.299774 786.777283,211.261093 
	C791.495789,211.221191 795.033203,208.953125 796.389526,204.683670 
	C797.501709,201.182770 799.314148,200.524338 802.489136,200.724640 
	C806.098694,200.952362 809.733704,200.777252 814.538940,200.777252 
	C812.801208,205.191360 811.381836,208.796936 809.769409,212.711929 
z"/>
<path fill="#040302" opacity="1.000000" stroke="none" 
	d="
M475.561584,673.013977 
	C475.495270,677.732544 475.106354,682.100342 475.673584,686.340332 
	C476.717316,694.141785 480.250610,697.795715 486.198303,698.214966 
	C492.503418,698.659424 495.922363,695.914368 498.709503,687.778259 
	C501.138092,687.778259 503.759613,687.778259 506.381134,687.778259 
	C508.866852,687.778259 511.352539,687.778259 513.817017,687.778259 
	C514.449097,697.968445 506.200195,708.340149 495.112457,710.650940 
	C475.316559,714.776733 459.780365,705.867981 458.718109,684.373474 
	C458.481781,679.592163 458.656189,674.644226 459.620422,669.975220 
	C463.797699,649.747864 485.919861,640.520081 503.635315,651.391235 
	C510.552094,655.635681 513.951599,661.922607 514.615234,670.741821 
	C509.668396,670.741821 504.928833,670.840149 500.201385,670.644836 
	C499.417450,670.612427 498.407349,669.435486 497.975708,668.555176 
	C494.872925,662.226562 492.428864,660.527771 486.672394,660.885132 
	C480.752747,661.252686 477.993713,665.168091 476.209747,670.167786 
	C475.932220,670.945557 475.845276,671.791260 475.561584,673.013977 
z"/>
<path fill="#040201" opacity="1.000000" stroke="none" 
	d="
M668.728333,164.437164 
	C669.925354,163.310898 670.966980,162.024200 672.074402,161.964966 
	C676.540527,161.726028 681.026978,161.865921 686.148560,161.865921 
	C685.683533,163.609680 685.423340,164.972092 684.960571,166.261810 
	C678.621765,183.927338 672.203552,201.564636 665.949890,219.260132 
	C664.993164,221.967316 663.799255,223.095001 660.724854,223.096298 
	C647.659729,223.101822 647.652405,223.224899 643.305725,211.092392 
	C638.039673,196.393814 632.784729,181.691299 627.534302,166.987167 
	C626.987427,165.455475 626.503418,163.901337 625.890442,162.057434 
	C631.932068,162.057434 637.551147,162.057434 643.587036,162.057434 
	C647.675903,176.531601 651.763489,191.001175 655.851074,205.470764 
	C656.156616,205.484039 656.462158,205.497330 656.767761,205.510605 
	C660.712891,191.954056 664.658081,178.397507 668.728333,164.437164 
z"/>
<path fill="#040202" opacity="1.000000" stroke="none" 
	d="
M912.807007,223.825653 
	C912.189392,223.835678 912.023010,223.837677 911.856689,223.836868 
	C896.082336,223.759491 893.155945,220.851212 893.141907,205.289185 
	C893.132751,195.143204 893.100281,184.997223 893.061523,174.851318 
	C893.060364,174.537842 892.873535,174.225067 892.640930,173.498428 
	C890.380920,173.352386 887.955200,173.195633 885.239502,173.020142 
	C885.239502,169.372421 885.239502,165.832458 885.239502,161.967331 
	C887.718079,161.967331 889.995605,161.967331 892.857178,161.967331 
	C892.857178,156.456024 892.857178,151.233261 892.857178,145.607971 
	C898.483459,145.607971 903.546265,145.607971 909.170410,145.607971 
	C909.170410,150.745071 909.170410,155.997284 909.170410,161.685379 
	C912.644043,161.685379 915.574829,161.685379 918.878540,161.685379 
	C918.878540,165.651917 918.878540,169.179672 918.878540,173.033554 
	C915.912598,173.171585 912.981201,173.308014 909.253723,173.481476 
	C909.253723,179.385391 909.253662,185.136627 909.253784,190.887863 
	C909.253845,195.545364 909.230469,200.203033 909.260498,204.860336 
	C909.298767,210.789062 909.808350,211.277649 915.890381,211.420883 
	C916.846252,211.443405 917.803101,211.424042 919.006104,211.424042 
	C919.006104,215.392471 919.006104,219.001495 919.006104,223.122650 
	C917.112854,223.351151 915.185608,223.583740 912.807007,223.825653 
z"/>
<path fill="#020101" opacity="1.000000" stroke="none" 
	d="
M760.046265,347.949890 
	C760.046265,348.940796 760.046326,349.440002 760.046326,349.939240 
	C760.046631,359.746887 760.046570,359.746887 769.797546,360.837158 
	C769.874939,361.573029 770.021851,362.364441 770.030151,363.157318 
	C770.059448,365.972229 770.041504,368.787628 770.041504,371.960754 
	C763.225708,373.375214 756.697083,373.341370 750.314819,371.081177 
	C745.281189,369.298553 744.061035,364.969727 744.024170,360.227997 
	C743.941345,349.578369 743.989929,338.927704 743.985352,328.277466 
	C743.984558,326.460602 743.985229,324.643738 743.985229,322.444855 
	C741.260193,322.317902 738.826904,322.204529 736.070190,322.076080 
	C736.070190,318.375549 736.070190,314.820343 736.070190,311.081299 
	C738.623535,310.937775 741.059143,310.800903 743.995972,310.635834 
	C743.995972,305.170410 743.995972,299.929138 743.995972,294.459717 
	C749.436035,294.459717 754.358948,294.459717 759.833557,294.459717 
	C759.833557,299.733582 759.833557,304.958099 759.833557,310.731171 
	C763.420654,310.731171 766.476196,310.731171 769.785095,310.731171 
	C769.785095,314.709534 769.785095,318.140015 769.785095,321.987457 
	C766.715332,322.139557 763.637085,322.292084 760.046265,322.470001 
	C760.046265,330.904846 760.046265,339.181549 760.046265,347.949890 
z"/>
<path fill="#070402" opacity="1.000000" stroke="none" 
	d="
M289.275970,695.988770 
	C289.275970,673.040710 289.275970,650.590088 289.275970,627.772583 
	C294.762573,627.772583 299.804657,627.772583 305.167175,627.772583 
	C305.167175,655.220703 305.167175,682.443176 305.167175,709.839966 
	C299.958801,709.839966 294.992584,709.839966 289.275970,709.839966 
	C289.275970,705.348022 289.275970,700.917114 289.275970,695.988770 
z"/>
<path fill="#070402" opacity="1.000000" stroke="none" 
	d="
M737.932434,799.484619 
	C737.947754,804.259094 737.947754,808.581665 737.947754,813.673035 
	C736.160706,813.673035 734.582581,813.618652 733.009216,813.681946 
	C722.842407,814.091064 718.895752,817.864136 718.579224,828.123535 
	C718.312378,836.773743 718.496887,845.437805 718.482788,854.095764 
	C718.479858,855.901062 718.482361,857.706299 718.482361,859.756348 
	C712.954407,859.756348 707.890991,859.756348 702.551514,859.756348 
	C702.551514,839.468872 702.551514,819.407532 702.551514,799.099609 
	C707.656738,799.099609 712.582703,799.099609 717.789551,799.099609 
	C717.789551,801.962158 717.789551,804.601318 717.789551,808.896301 
	C719.490723,806.496643 720.336792,805.280457 721.206177,804.081238 
	C724.342407,799.754639 728.619934,797.403870 733.924072,797.306946 
	C735.244141,797.282776 736.585510,798.425964 737.932434,799.484619 
z"/>
<path fill="#020101" opacity="1.000000" stroke="none" 
	d="
M795.714233,371.927307 
	C790.620422,371.982422 786.002808,371.982422 781.156616,371.982422 
	C781.156616,351.494354 781.156616,331.450623 781.156616,311.137146 
	C786.098694,311.137146 790.839722,311.137146 795.998047,311.137146 
	C796.149170,313.877655 796.296875,316.556824 796.473816,319.765778 
	C805.841980,309.665771 807.916321,308.602264 815.969604,309.703308 
	C815.969604,314.854523 815.969604,320.063019 815.969604,325.462769 
	C813.981262,325.555847 812.178040,325.614532 810.378479,325.728851 
	C801.365479,326.301239 797.179016,330.574829 797.040222,339.711121 
	C796.901306,348.862213 797.040649,358.017273 796.962891,367.169800 
	C796.949585,368.739319 796.460022,370.304810 795.714233,371.927307 
z"/>
<path fill="#020101" opacity="1.000000" stroke="none" 
	d="
M840.771667,371.936188 
	C835.805969,371.986481 831.321045,371.986481 826.453247,371.986481 
	C826.453247,351.655212 826.453247,331.500824 826.453247,311.105591 
	C831.530640,311.105591 836.462280,311.105591 841.717773,311.105591 
	C841.860596,312.162811 842.135193,313.255524 842.136841,314.348633 
	C842.164062,332.312134 842.174255,350.275757 842.118286,368.239105 
	C842.114502,369.455566 841.554016,370.670349 840.771667,371.936188 
z"/>
<path fill="#000000" opacity="1.000000" stroke="none" 
	d="
M945.996338,208.992340 
	C945.996338,213.790237 945.996338,218.089996 945.996338,222.693268 
	C940.627197,222.693268 935.570251,222.693268 930.213562,222.693268 
	C930.213562,202.599091 930.213562,182.559021 930.213562,162.194412 
	C935.308350,162.194412 940.361267,162.194412 945.996338,162.194412 
	C945.996338,177.656784 945.996338,193.075500 945.996338,208.992340 
z"/>
<path fill="#020101" opacity="1.000000" stroke="none" 
	d="
M464.068817,812.011841 
	C464.068817,807.545227 464.068817,803.576538 464.068817,798.866943 
	C466.929993,798.866943 469.515747,798.867004 472.101501,798.867004 
	C474.568451,798.867004 477.035370,798.866943 480.158112,798.866943 
	C480.158112,809.277649 480.158112,819.354736 480.158112,829.431824 
	C480.158112,839.395447 480.158112,849.359009 480.158112,859.662109 
	C474.857452,859.662109 469.794525,859.662109 464.068817,859.662109 
	C464.068817,843.969360 464.068817,828.239563 464.068817,812.011841 
z"/>
<path fill="#040202" opacity="1.000000" stroke="none" 
	d="
M606.934265,200.675018 
	C603.533936,208.276505 598.011719,212.296371 589.969116,211.885406 
	C582.819580,211.520096 577.813538,207.587936 575.150269,201.021774 
	C572.522339,194.542923 574.567749,187.051727 579.852417,182.379761 
	C584.820923,177.987335 593.227722,177.019974 599.022766,180.173828 
	C605.118896,183.491531 608.596985,190.377258 607.671509,197.369781 
	C607.541138,198.354538 607.241638,199.316910 606.934265,200.675018 
z"/>
<path fill="#040302" opacity="1.000000" stroke="none" 
	d="
M716.774048,338.499817 
	C719.394470,347.823395 716.293518,355.758423 708.796265,359.664642 
	C702.263245,363.068420 693.181824,361.309204 688.286499,355.691559 
	C683.291992,349.960144 682.880066,341.071564 687.251038,334.902740 
	C694.282715,324.978790 711.091919,325.203400 716.774048,338.499817 
z"/>
<path fill="#040201" opacity="1.000000" stroke="none" 
	d="
M252.972992,666.735901 
	C261.846313,670.456543 265.799408,676.674500 264.930725,685.055176 
	C264.180145,692.296326 258.633636,698.252136 251.303665,699.687744 
	C244.460739,701.027832 236.930511,697.646362 233.647552,691.208618 
	C230.575409,685.184265 230.564774,678.874573 234.613571,673.271362 
	C239.000412,667.200378 245.146072,664.919434 252.972992,666.735901 
z"/>
<path fill="#040201" opacity="1.000000" stroke="none" 
	d="
M341.877319,818.757935 
	C350.502991,814.065552 358.942657,815.228027 364.389801,821.610107 
	C369.217957,827.266968 369.546753,836.546265 365.131470,842.518616 
	C360.764832,848.425293 354.716553,850.069763 347.855103,848.849304 
	C341.573120,847.731873 337.307495,843.759766 335.634430,837.684082 
	C333.612976,830.343201 335.253235,823.827698 341.877319,818.757935 
z"/>
<path fill="#090503" opacity="1.000000" stroke="none" 
	d="
M464.052490,783.092957 
	C464.052490,780.818298 464.052490,779.008606 464.052490,776.928955 
	C469.461639,776.928955 474.540802,776.928955 479.898010,776.928955 
	C479.898010,781.754395 479.898010,786.473083 479.898010,791.276184 
	C474.550751,791.276184 469.487701,791.276184 464.052490,791.276184 
	C464.052490,788.486572 464.052490,786.022278 464.052490,783.092957 
z"/>
<path fill="#090503" opacity="1.000000" stroke="none" 
	d="
M837.613953,303.604431 
	C833.703430,303.604645 830.241577,303.604645 826.418457,303.604645 
	C826.418457,298.509125 826.418457,293.825256 826.418457,288.896729 
	C831.463745,288.896729 836.414734,288.896729 842.139343,288.896729 
	C842.139343,293.036987 842.355347,297.285461 841.954895,301.474976 
	C841.875916,302.301178 839.421509,302.900330 837.613953,303.604431 
z"/>
<path fill="#070402" opacity="1.000000" stroke="none" 
	d="
M946.006470,151.656281 
	C945.250854,152.934601 944.532349,154.415787 943.739197,154.456863 
	C939.309692,154.686157 934.862183,154.567093 930.165405,154.567093 
	C930.165405,149.498413 930.165405,144.919846 930.165405,140.001587 
	C935.252014,140.001587 940.301270,140.001587 946.009155,140.001587 
	C946.009155,143.719284 946.009155,147.456741 946.006470,151.656281 
z"/>
<path fill="#E88554" opacity="1.000000" stroke="none" 
	d="
M406.925598,838.646606 
	C406.902374,832.185059 406.149780,825.954285 407.307159,820.101196 
	C408.519592,813.969788 413.709412,810.980225 419.543213,811.112183 
	C425.487152,811.246521 430.201080,814.387268 431.473785,820.555481 
	C432.525940,825.655029 432.861267,831.153503 432.181976,836.299377 
	C431.211639,843.650696 426.765198,847.564697 420.673157,848.173523 
	C413.936249,848.846924 410.579956,846.599792 406.925598,838.646606 
z"/>
<path fill="#E88554" opacity="1.000000" stroke="none" 
	d="
M876.549194,328.764587 
	C879.951416,323.730713 884.562744,322.467133 889.842468,323.388947 
	C895.144836,324.314728 898.269653,327.911499 899.691528,332.856445 
	C901.674805,339.753632 901.574341,346.634003 898.357910,353.225494 
	C896.135742,357.779449 892.637268,360.354218 887.347168,360.295258 
	C881.774475,360.233124 877.598511,357.822662 875.549866,352.735199 
	C872.366272,344.829193 872.827271,336.856537 876.549194,328.764587 
z"/>
<path fill="#E48353" opacity="1.000000" stroke="none" 
	d="
M730.260376,203.851013 
	C727.374329,210.834991 721.868652,212.942413 715.310730,213.001068 
	C711.479980,213.035355 708.422058,211.471985 707.770203,207.260208 
	C707.113770,203.019104 708.427979,199.419189 712.812866,198.188370 
	C718.521545,196.585907 724.386963,195.541840 730.830750,194.114426 
	C730.673645,197.341324 730.524597,200.402756 730.260376,203.851013 
z"/>
<path fill="#E48353" opacity="1.000000" stroke="none" 
	d="
M839.769653,199.924713 
	C846.687866,197.725357 853.315125,195.804169 859.947998,193.881378 
	C862.668335,204.598892 857.879028,212.225113 847.759216,212.794464 
	C844.823242,212.959671 840.377991,211.827820 839.136780,209.773087 
	C837.755432,207.486252 839.241089,203.467621 839.769653,199.924713 
z"/>
<path fill="#E88554" opacity="1.000000" stroke="none" 
	d="
M673.980469,822.307983 
	C665.775879,822.736816 657.690002,822.736816 649.608826,822.736816 
	C649.994507,815.270691 653.905701,811.020020 660.953857,810.522583 
	C668.019470,810.023804 672.582703,813.966064 673.980469,822.307983 
z"/>
<path fill="#E88554" opacity="1.000000" stroke="none" 
	d="
M1000.999756,204.816711 
	C997.270386,210.730438 991.870117,211.765640 985.971558,210.707382 
	C980.077515,209.649933 976.544922,205.590866 975.732117,199.873596 
	C975.064331,195.176620 974.828064,190.222855 975.561951,185.565933 
	C976.791321,177.765106 981.898071,173.856796 989.316223,173.845856 
	C996.846985,173.834747 1001.359314,177.654770 1003.084412,185.559921 
	C1004.504395,192.067169 1004.235291,198.417526 1000.999756,204.816711 
z"/>
</svg>