<svg version="1.1" id="Layer_1" xmlns="http://www.w3.org/2000/svg" xmlns:xlink="http://www.w3.org/1999/xlink" x="0px" y="0px"
	 width="100%" viewBox="0 0 1280 1024" enable-background="new 0 0 1280 1024" xml:space="preserve">
<path fill="#706BE4" opacity="1.000000" stroke="none" 
	d="
M1281.000000,128.000000 
	C1281.000000,426.973053 1281.000000,725.946106 1281.000000,1024.919189 
	C1280.860352,1024.946167 1280.720581,1024.996704 1280.580933,1024.996704 
	C854.119324,1025.000122 427.657776,1025.000000 1.098098,1025.000000 
	C1.098098,683.762878 1.098098,342.525665 1.098098,1.144241 
	C427.666626,1.144241 854.333313,1.144241 1281.000000,1.144241 
	C1281.000000,31.093443 1281.000000,61.090771 1280.763672,91.205063 
	C1270.381714,97.913902 1260.235962,104.505768 1249.949463,111.189018 
	C1255.900757,120.101448 1261.512085,128.504883 1267.105591,136.881470 
	C1272.045410,133.723862 1276.522705,130.861938 1281.000000,128.000000 
M552.032227,72.455986 
	C525.024109,54.948376 497.062103,53.632710 469.783844,70.448166 
	C443.414581,86.703278 431.793365,111.470406 434.792084,142.537857 
	C439.645416,192.819565 495.769928,224.062363 541.039307,201.802887 
	C593.015869,176.245407 599.146912,107.960754 552.032227,72.455986 
M184.783890,289.728363 
	C209.413086,307.917786 236.093185,311.721863 263.702942,298.394989 
	C291.053680,285.193176 305.512726,262.523407 306.068542,231.839951 
	C306.698639,197.057281 283.542114,166.927307 249.993607,158.239777 
	C216.913910,149.673645 181.584991,165.442169 165.230362,195.776276 
	C150.291107,223.485138 153.546860,264.436462 184.783890,289.728363 
M554.809082,364.265411 
	C563.336182,348.066437 566.421997,330.930084 562.299500,313.026764 
	C555.513611,283.556671 537.487427,263.696075 508.270416,256.023163 
	C480.039276,248.609161 454.865906,255.804123 434.344391,277.113373 
	C405.638733,306.920929 407.645996,356.836548 438.523773,383.645233 
	C475.798340,416.007843 529.006104,407.397797 554.809082,364.265411 
M711.957275,185.345947 
	C712.155518,187.332275 712.224915,189.341354 712.571228,191.301529 
	C719.419189,230.067261 754.267029,256.394958 794.036072,252.880508 
	C831.642273,249.557205 860.284485,217.537552 861.262024,179.119949 
	C862.362061,135.887085 822.093567,93.025230 767.779663,105.849907 
	C737.193359,113.071991 708.534241,143.327667 711.957275,185.345947 
M331.127899,620.667603 
	C384.593567,600.669128 398.527832,534.680603 357.614624,495.233978 
	C334.916016,473.349030 298.896820,468.530701 271.047363,483.802094 
	C242.695709,499.348907 226.443649,528.873596 232.824036,563.685364 
	C241.104340,608.863342 286.650299,635.164062 331.127899,620.667603 
M858.085938,945.445923 
	C861.450806,934.928040 861.925964,924.103333 860.611938,913.295593 
	C855.483093,871.110107 815.031067,841.798218 772.857605,849.480652 
	C743.891663,854.757080 719.783447,877.745605 713.359985,906.215027 
	C706.648682,935.960083 718.074036,966.451355 742.491699,983.959961 
	C784.075195,1013.777161 840.263855,995.387878 858.085938,945.445923 
M507.956848,878.716492 
	C498.882782,836.966064 463.295868,811.752502 421.608795,818.291626 
	C384.430450,824.123596 355.646423,858.929993 359.656677,899.894775 
	C364.642303,950.822815 420.571991,982.448975 466.473755,959.762207 
	C497.120209,944.615295 512.500427,914.957947 507.956848,878.716492 
M733.639343,788.127075 
	C749.328430,769.542969 754.345825,747.977600 749.839783,724.512512 
	C742.092468,684.169128 702.274231,658.149475 661.644287,666.178833 
	C621.954224,674.022400 595.173401,712.934082 602.786621,752.746399 
	C608.517700,782.716492 626.455750,803.192200 655.692139,811.457947 
	C685.595398,819.912231 711.979370,812.030640 733.639343,788.127075 
M990.698608,920.799744 
	C1018.869690,950.211792 1066.466309,951.092773 1096.064575,922.749878 
	C1125.873047,894.205750 1127.114380,846.530884 1098.817261,817.025513 
	C1069.996704,786.974243 1022.701477,785.714111 992.679993,814.197571 
	C962.659058,842.680359 961.544067,890.651123 990.698608,920.799744 
M942.004211,420.541260 
	C898.356018,417.277161 866.083557,450.230865 862.099121,485.133087 
	C856.440735,534.699646 893.321655,566.668396 929.442627,569.799438 
	C970.571838,573.364563 1007.369141,543.075073 1010.839111,502.864410 
	C1014.513855,460.280914 984.709595,424.207886 942.004211,420.541260 
M301.830475,778.303162 
	C305.078583,776.141418 308.326691,773.979736 311.716034,771.724060 
	C305.739197,762.693970 300.182770,754.299072 294.534027,745.764648 
	C268.444916,763.118286 242.857376,780.138245 217.106659,797.266724 
	C223.032928,806.241028 228.604309,814.677795 234.261108,823.244019 
	C256.874817,808.220642 279.063232,793.479919 301.830475,778.303162 
M999.782288,277.319855 
	C980.008301,290.482880 960.234314,303.645905 940.151367,317.014587 
	C946.000000,325.880310 951.559814,334.308228 957.292603,342.998413 
	C983.161377,325.800720 1008.755859,308.785339 1034.745972,291.506958 
	C1028.915161,282.685181 1023.297852,274.186401 1017.572327,265.523926 
	C1011.470154,269.579437 1005.932190,273.260010 999.782288,277.319855 
M1206.188843,177.648911 
	C1217.793579,169.914825 1229.398315,162.180740 1241.315674,154.238373 
	C1235.515381,145.530899 1229.936646,137.155930 1224.170044,128.499039 
	C1198.100342,145.754196 1172.505249,162.695129 1146.711060,179.767899 
	C1152.620361,188.692825 1158.176147,197.083969 1163.893433,205.718979 
	C1178.151855,196.248535 1191.864502,187.140579 1206.188843,177.648911 
M186.910065,817.378723 
	C162.574066,833.572266 138.238068,849.765808 113.818436,866.015015 
	C119.702309,874.833435 125.217712,883.099609 130.985596,891.744141 
	C156.963852,874.470581 182.534088,857.468323 208.422256,840.254639 
	C202.587723,831.505310 197.007324,823.137024 191.312454,814.597107 
	C189.742325,815.585327 188.631973,816.284119 186.910065,817.378723 
M826.784729,426.575592 
	C821.564758,418.716003 816.344788,410.856415 810.977844,402.775543 
	C785.022339,420.033295 759.448547,437.037292 733.561890,454.249268 
	C739.372681,462.975677 744.942383,471.340027 750.706482,479.996338 
	C776.219482,463.122589 801.316895,446.539124 826.356445,429.868744 
	C826.945801,429.476349 826.885681,428.108521 826.784729,426.575592 
M1046.717163,246.282013 
	C1045.327515,247.438614 1042.905640,247.904083 1044.871826,250.746811 
	C1050.161011,258.393860 1055.217651,266.201691 1060.571655,274.254272 
	C1086.512817,257.009125 1112.225952,239.915543 1138.056885,222.743591 
	C1132.189209,213.962769 1126.576050,205.562820 1120.859375,197.007919 
	C1096.060669,213.503189 1071.702148,229.705612 1046.717163,246.282013 
M66.270569,934.759460 
	C79.205795,926.167053 92.141022,917.574707 105.125908,908.949341 
	C99.142944,899.908569 93.580292,891.502930 87.959702,883.009766 
	C61.829815,900.388428 36.274765,917.384705 10.511010,934.519775 
	C16.440233,943.389160 22.022367,951.739319 27.707901,960.244141 
	C40.702316,951.633179 53.171337,943.370361 66.270569,934.759460 
M673.192810,531.644958 
	C690.307312,520.247986 707.421875,508.851013 724.860168,497.238434 
	C718.962769,488.387451 713.392578,480.027618 707.712524,471.502869 
	C681.605164,488.867065 656.043640,505.868195 630.271790,523.009216 
	C636.158325,531.840393 641.674316,540.115662 647.410339,548.721130 
	C656.005249,543.021729 664.294250,537.525208 673.192810,531.644958 
M517.469910,634.984253 
	C512.176575,626.215149 506.883270,617.446045 501.490723,608.512573 
	C474.997528,626.048218 449.404785,642.987854 423.679199,660.015442 
	C429.583893,668.947388 435.135681,677.345459 440.851624,685.991821 
	C466.536438,668.916321 491.723328,652.171814 517.469910,634.984253 
M582.978699,591.428650 
	C595.789734,582.902283 608.600769,574.375916 621.583801,565.735168 
	C615.686096,556.891357 610.164612,548.611572 604.428528,540.010010 
	C578.533508,557.227173 552.867615,574.291870 526.978821,591.504822 
	C532.876770,600.360352 538.466309,608.752686 544.113831,617.232178 
	C557.188049,608.566406 569.792725,600.211914 582.978699,591.428650 
M849.683105,377.173096 
	C845.472107,380.027679 841.261169,382.882294 836.884033,385.849548 
	C842.779602,394.678864 848.363464,403.041321 854.015930,411.506592 
	C880.210632,394.078400 905.782349,377.064636 931.462158,359.979004 
	C925.544922,351.113037 920.033691,342.855286 914.298462,334.261993 
	C892.681885,348.637177 871.495056,362.726562 849.683105,377.173096 
M379.876068,726.371460 
	C391.556671,718.588562 403.237274,710.805603 415.003143,702.965881 
	C409.015442,693.987915 403.504181,685.724304 397.852386,677.250000 
	C371.791595,694.581909 346.233124,711.579773 320.392944,728.764954 
	C326.312653,737.624451 331.887451,745.967773 337.562958,754.461792 
	C351.848358,744.991516 365.570038,735.894897 379.876068,726.371460 
z"/>
<path fill="#010102" opacity="1.000000" stroke="none" 
	d="
M1281.000000,127.531342 
	C1276.522705,130.861938 1272.045410,133.723862 1267.105591,136.881470 
	C1261.512085,128.504883 1255.900757,120.101448 1249.949463,111.189018 
	C1260.235962,104.505768 1270.381714,97.913902 1280.763672,91.661018 
	C1281.000000,103.687561 1281.000000,115.375122 1281.000000,127.531342 
z"/>
<path fill="#000001" opacity="1.000000" stroke="none" 
	d="
M552.323608,72.667793 
	C599.146912,107.960754 593.015869,176.245407 541.039307,201.802887 
	C495.769928,224.062363 439.645416,192.819565 434.792084,142.537857 
	C431.793365,111.470406 443.414581,86.703278 469.783844,70.448166 
	C497.062103,53.632710 525.024109,54.948376 552.323608,72.667793 
z"/>
<path fill="#000001" opacity="1.000000" stroke="none" 
	d="
M184.513000,289.497253 
	C153.546860,264.436462 150.291107,223.485138 165.230362,195.776276 
	C181.584991,165.442169 216.913910,149.673645 249.993607,158.239777 
	C283.542114,166.927307 306.698639,197.057281 306.068542,231.839951 
	C305.512726,262.523407 291.053680,285.193176 263.702942,298.394989 
	C236.093185,311.721863 209.413086,307.917786 184.513000,289.497253 
z"/>
<path fill="#000001" opacity="1.000000" stroke="none" 
	d="
M554.614197,364.578247 
	C529.006104,407.397797 475.798340,416.007843 438.523773,383.645233 
	C407.645996,356.836548 405.638733,306.920929 434.344391,277.113373 
	C454.865906,255.804123 480.039276,248.609161 508.270416,256.023163 
	C537.487427,263.696075 555.513611,283.556671 562.299500,313.026764 
	C566.421997,330.930084 563.336182,348.066437 554.614197,364.578247 
z"/>
<path fill="#010001" opacity="1.000000" stroke="none" 
	d="
M711.940552,184.863678 
	C708.534241,143.327667 737.193359,113.071991 767.779663,105.849907 
	C822.093567,93.025230 862.362061,135.887085 861.262024,179.119949 
	C860.284485,217.537552 831.642273,249.557205 794.036072,252.880508 
	C754.267029,256.394958 719.419189,230.067261 712.571228,191.301529 
	C712.224915,189.341354 712.155518,187.332275 711.940552,184.863678 
z"/>
<path fill="#000001" opacity="1.000000" stroke="none" 
	d="
M330.750610,620.790527 
	C286.650299,635.164062 241.104340,608.863342 232.824036,563.685364 
	C226.443649,528.873596 242.695709,499.348907 271.047363,483.802094 
	C298.896820,468.530701 334.916016,473.349030 357.614624,495.233978 
	C398.527832,534.680603 384.593567,600.669128 330.750610,620.790527 
z"/>
<path fill="#D9D9D9" opacity="1.000000" stroke="none" 
	d="
M857.962402,945.827637 
	C840.263855,995.387878 784.075195,1013.777161 742.491699,983.959961 
	C718.074036,966.451355 706.648682,935.960083 713.359985,906.215027 
	C719.783447,877.745605 743.891663,854.757080 772.857605,849.480652 
	C815.031067,841.798218 855.483093,871.110107 860.611938,913.295593 
	C861.925964,924.103333 861.450806,934.928040 857.962402,945.827637 
z"/>
<path fill="#D9D9D9" opacity="1.000000" stroke="none" 
	d="
M508.005524,879.150024 
	C512.500427,914.957947 497.120209,944.615295 466.473755,959.762207 
	C420.571991,982.448975 364.642303,950.822815 359.656677,899.894775 
	C355.646423,858.929993 384.430450,824.123596 421.608795,818.291626 
	C463.295868,811.752502 498.882782,836.966064 508.005524,879.150024 
z"/>
<path fill="#D9D9D9" opacity="1.000000" stroke="none" 
	d="
M733.398376,788.388184 
	C711.979370,812.030640 685.595398,819.912231 655.692139,811.457947 
	C626.455750,803.192200 608.517700,782.716492 602.786621,752.746399 
	C595.173401,712.934082 621.954224,674.022400 661.644287,666.178833 
	C702.274231,658.149475 742.092468,684.169128 749.839783,724.512512 
	C754.345825,747.977600 749.328430,769.542969 733.398376,788.388184 
z"/>
<path fill="#D9D9D9" opacity="1.000000" stroke="none" 
	d="
M990.456238,920.543762 
	C961.544067,890.651123 962.659058,842.680359 992.679993,814.197571 
	C1022.701477,785.714111 1069.996704,786.974243 1098.817261,817.025513 
	C1127.114380,846.530884 1125.873047,894.205750 1096.064575,922.749878 
	C1066.466309,951.092773 1018.869690,950.211792 990.456238,920.543762 
z"/>
<path fill="#D9D9D9" opacity="1.000000" stroke="none" 
	d="
M942.452271,420.588654 
	C984.709595,424.207886 1014.513855,460.280914 1010.839111,502.864410 
	C1007.369141,543.075073 970.571838,573.364563 929.442627,569.799438 
	C893.321655,566.668396 856.440735,534.699646 862.099121,485.133087 
	C866.083557,450.230865 898.356018,417.277161 942.452271,420.588654 
z"/>
<path fill="#010102" opacity="1.000000" stroke="none" 
	d="
M301.541046,778.521118 
	C279.063232,793.479919 256.874817,808.220642 234.261108,823.244019 
	C228.604309,814.677795 223.032928,806.241028 217.106659,797.266724 
	C242.857376,780.138245 268.444916,763.118286 294.534027,745.764648 
	C300.182770,754.299072 305.739197,762.693970 311.716034,771.724060 
	C308.326691,773.979736 305.078583,776.141418 301.541046,778.521118 
z"/>
<path fill="#010102" opacity="1.000000" stroke="none" 
	d="
M1000.088257,277.130188 
	C1005.932190,273.260010 1011.470154,269.579437 1017.572327,265.523926 
	C1023.297852,274.186401 1028.915161,282.685181 1034.745972,291.506958 
	C1008.755859,308.785339 983.161377,325.800720 957.292603,342.998413 
	C951.559814,334.308228 946.000000,325.880310 940.151367,317.014587 
	C960.234314,303.645905 980.008301,290.482880 1000.088257,277.130188 
z"/>
<path fill="#010102" opacity="1.000000" stroke="none" 
	d="
M1205.883057,177.840759 
	C1191.864502,187.140579 1178.151855,196.248535 1163.893433,205.718979 
	C1158.176147,197.083969 1152.620361,188.692825 1146.711060,179.767899 
	C1172.505249,162.695129 1198.100342,145.754196 1224.170044,128.499039 
	C1229.936646,137.155930 1235.515381,145.530899 1241.315674,154.238373 
	C1229.398315,162.180740 1217.793579,169.914825 1205.883057,177.840759 
z"/>
<path fill="#010102" opacity="1.000000" stroke="none" 
	d="
M187.215851,817.180786 
	C188.631973,816.284119 189.742325,815.585327 191.312454,814.597107 
	C197.007324,823.137024 202.587723,831.505310 208.422256,840.254639 
	C182.534088,857.468323 156.963852,874.470581 130.985596,891.744141 
	C125.217712,883.099609 119.702309,874.833435 113.818436,866.015015 
	C138.238068,849.765808 162.574066,833.572266 187.215851,817.180786 
z"/>
<path fill="#010102" opacity="1.000000" stroke="none" 
	d="
M826.956665,426.885620 
	C826.885681,428.108521 826.945801,429.476349 826.356445,429.868744 
	C801.316895,446.539124 776.219482,463.122589 750.706482,479.996338 
	C744.942383,471.340027 739.372681,462.975677 733.561890,454.249268 
	C759.448547,437.037292 785.022339,420.033295 810.977844,402.775543 
	C816.344788,410.856415 821.564758,418.716003 826.956665,426.885620 
z"/>
<path fill="#010102" opacity="1.000000" stroke="none" 
	d="
M1047.030518,246.095032 
	C1071.702148,229.705612 1096.060669,213.503189 1120.859375,197.007919 
	C1126.576050,205.562820 1132.189209,213.962769 1138.056885,222.743591 
	C1112.225952,239.915543 1086.512817,257.009125 1060.571655,274.254272 
	C1055.217651,266.201691 1050.161011,258.393860 1044.871826,250.746811 
	C1042.905640,247.904083 1045.327515,247.438614 1047.030518,246.095032 
z"/>
<path fill="#010102" opacity="1.000000" stroke="none" 
	d="
M65.955460,934.933472 
	C53.171337,943.370361 40.702316,951.633179 27.707901,960.244141 
	C22.022367,951.739319 16.440233,943.389160 10.511010,934.519775 
	C36.274765,917.384705 61.829815,900.388428 87.959702,883.009766 
	C93.580292,891.502930 99.142944,899.908569 105.125908,908.949341 
	C92.141022,917.574707 79.205795,926.167053 65.955460,934.933472 
z"/>
<path fill="#010102" opacity="1.000000" stroke="none" 
	d="
M672.888062,531.836792 
	C664.294250,537.525208 656.005249,543.021729 647.410339,548.721130 
	C641.674316,540.115662 636.158325,531.840393 630.271790,523.009216 
	C656.043640,505.868195 681.605164,488.867065 707.712524,471.502869 
	C713.392578,480.027618 718.962769,488.387451 724.860168,497.238434 
	C707.421875,508.851013 690.307312,520.247986 672.888062,531.836792 
z"/>
<path fill="#010102" opacity="1.000000" stroke="none" 
	d="
M517.190063,635.205811 
	C491.723328,652.171814 466.536438,668.916321 440.851624,685.991821 
	C435.135681,677.345459 429.583893,668.947388 423.679199,660.015442 
	C449.404785,642.987854 474.997528,626.048218 501.490723,608.512573 
	C506.883270,617.446045 512.176575,626.215149 517.190063,635.205811 
z"/>
<path fill="#010102" opacity="1.000000" stroke="none" 
	d="
M582.687988,591.643066 
	C569.792725,600.211914 557.188049,608.566406 544.113831,617.232178 
	C538.466309,608.752686 532.876770,600.360352 526.978821,591.504822 
	C552.867615,574.291870 578.533508,557.227173 604.428528,540.010010 
	C610.164612,548.611572 615.686096,556.891357 621.583801,565.735168 
	C608.600769,574.375916 595.789734,582.902283 582.687988,591.643066 
z"/>
<path fill="#010102" opacity="1.000000" stroke="none" 
	d="
M849.995667,376.994507 
	C871.495056,362.726562 892.681885,348.637177 914.298462,334.261993 
	C920.033691,342.855286 925.544922,351.113037 931.462158,359.979004 
	C905.782349,377.064636 880.210632,394.078400 854.015930,411.506592 
	C848.363464,403.041321 842.779602,394.678864 836.884033,385.849548 
	C841.261169,382.882294 845.472107,380.027679 849.995667,376.994507 
z"/>
<path fill="#010102" opacity="1.000000" stroke="none" 
	d="
M379.583893,726.584900 
	C365.570038,735.894897 351.848358,744.991516 337.562958,754.461792 
	C331.887451,745.967773 326.312653,737.624451 320.392944,728.764954 
	C346.233124,711.579773 371.791595,694.581909 397.852386,677.250000 
	C403.504181,685.724304 409.015442,693.987915 415.003143,702.965881 
	C403.237274,710.805603 391.556671,718.588562 379.583893,726.584900 
z"/>
</svg>